SplineFontDB: 3.0
FontName: HudIcons
FullName: HUD Icons
FamilyName: HUD Icons
Weight: Regular
Copyright: 
Version: 1.0
ItalicAngle: 0
UnderlinePosition: -328
UnderlineWidth: 84
Ascent: 750
Descent: 250
InvalidEm: 0
sfntRevision: 0x00010000
LayerCount: 2
Layer: 0 0 "Back" 1
Layer: 1 0 "Fore" 0
XUID: [1021 137 -1059879492 4156]
StyleMap: 0x0000
FSType: 0
OS2Version: 4
OS2_WeightWidthSlopeOnly: 1
OS2_UseTypoMetrics: 1
CreationTime: 1440708775
ModificationTime: 1586596590
PfmFamily: 17
TTFWeight: 400
TTFWidth: 5
LineGap: 0
VLineGap: 0
Panose: 2 11 5 3 3 5 2 4 2 3
OS2TypoAscent: 750
OS2TypoAOffset: 0
OS2TypoDescent: -250
OS2TypoDOffset: 0
OS2TypoLinegap: 213
OS2WinAscent: 960
OS2WinAOffset: 0
OS2WinDescent: 253
OS2WinDOffset: 0
HheadAscent: 960
HheadAOffset: 0
HheadDescent: -253
HheadDOffset: 0
OS2SubXSize: 650
OS2SubYSize: 600
OS2SubXOff: 0
OS2SubYOff: 75
OS2SupXSize: 650
OS2SupYSize: 600
OS2SupXOff: 0
OS2SupYOff: 350
OS2StrikeYSize: 84
OS2StrikeYPos: 294
OS2CapHeight: 716
OS2XHeight: 490
OS2Vendor: 'GOOG'
OS2CodePages: 2000019f.00000000
OS2UnicodeRanges: 80000287.00000010.00000000.00000000
Lookup: 258 0 0 "'kern' Horizontal Kerning lookup 0" { "'kern' Horizontal Kerning lookup 0 subtable"  } ['kern' ('DFLT' <'dflt' > ) ]
Lookup: 258 0 0 "'kern' Horizontal Kerning in Latin lookup 1" { "'kern' Horizontal Kerning in Latin lookup 1 subtable"  } ['kern' ('DFLT' <'dflt' > 'latn' <'dflt' > ) ]
MarkAttachClasses: 1
DEI: 91125
KernClass2: 89 73 "'kern' Horizontal Kerning in Latin lookup 1 subtable"
 6 Igrave
 0 
 9 ampersand
 8 asterisk
 2 at
 9 backslash
 0 
 5 eight
 0 
 10 exclamdown
 4 five
 4 four
 4 nine
 10 numbersign
 7 percent
 0 
 3 six
 5 slash
 5 three
 0 
 50 A Agrave Aacute Acircumflex Atilde Adieresis Aring
 1 B
 10 C Ccedilla
 1 D
 37 E Egrave Eacute Ecircumflex Edieresis
 1 F
 1 G
 14 H I M N Ntilde
 28 Iacute Icircumflex Idieresis
 1 J
 1 K
 1 L
 53 O Q Ograve Oacute Ocircumflex Otilde Odieresis Oslash
 1 P
 1 R
 1 S
 1 T

StartChar: exclam
Encoding: 33 33 2
Width: 1114
Flags: W
LayerCount: 2
Fore
SplineSet
628 33 m 2
 628 138.999023438 l 2
 628 144.33203125 626.333007812 148.665039062 623 151.998046875 c 0
 619.666992188 155.331054688 615.666992188 156.998046875 611 156.998046875 c 2
 503 156.998046875 l 2
 498.333007812 156.998046875 494.333007812 155.331054688 491 151.998046875 c 0
 487.666992188 148.665039062 486 144.33203125 486 138.999023438 c 2
 486 32.9990234375 l 2
 486 27.666015625 487.666992188 23.3330078125 491 20 c 0
 494.333007812 16.6669921875 498.333007812 14.6669921875 503 14 c 2
 611 14 l 2
 615.666992188 14 619.666992188 16 623 20 c 0
 626.333007812 24 628 28.3330078125 628 33 c 2
627 240.999023438 m 2
 637.000976562 497.999023438 l 2
 637.000976562 501.999023438 635.333984375 505.33203125 632.000976562 507.999023438 c 0
 627.333984375 511.999023438 622.666992188 513.999023438 618 513.999023438 c 2
 496 513.999023438 l 2
 492 513.999023438 487.333007812 511.999023438 482 507.999023438 c 0
 478.666992188 505.33203125 477 501.33203125 477 495.999023438 c 2
 486 240.999023438 l 2
 486 237.666015625 488 234.666015625 492 231.999023438 c 0
 496 229.33203125 500.333007812 228.33203125 505 228.999023438 c 2
 608 228.999023438 l 2
 613.333007812 228.999023438 618 229.999023438 622 231.999023438 c 0
 626 233.999023438 627.666992188 236.999023438 627 240.999023438 c 2
620.000976562 762.999023438 m 2
 1048.00097656 -23.001953125 l 2
 1061.33398438 -46.3349609375 1061.00097656 -69.66796875 1047.00097656 -93.0009765625 c 0
 1041.00097656 -104.333984375 1032.33398438 -113.000976562 1021.00097656 -119.000976562 c 0
 1009.66796875 -125.000976562 998.000976562 -128.333984375 986.000976562 -129.000976562 c 2
 128.000976562 -129.000976562 l 2
 116.000976562 -129.000976562 104.333984375 -125.66796875 93.0009765625 -119.000976562 c 0
 81.66796875 -112.333984375 73.0009765625 -103.666992188 67.0009765625 -93 c 0
 53.0009765625 -69.6669921875 52.66796875 -46.333984375 66.0009765625 -23.0009765625 c 2
 495.000976562 762.999023438 l 2
 501.000976562 774.33203125 509.66796875 783.33203125 521.000976562 789.999023438 c 0
 532.333984375 796.666015625 544.333984375 799.999023438 557.000976562 799.999023438 c 0
 569.66796875 799.999023438 581.66796875 796.666015625 593.000976562 789.999023438 c 0
 604.333984375 783.33203125 613.333984375 774.33203125 620.000976562 762.999023438 c 2
EndSplineSet
Validated: 33
EndChar

StartChar: quotedbl
Encoding: 34 34 3
Width: 1127
Flags: W
LayerCount: 2
Fore
SplineSet
1063.5 410 m 0
 1063.5 345.333007812 1041.16601562 285.670898438 996.499023438 231.00390625 c 0
 951.83203125 176.336914062 891.165039062 133.00390625 814.498046875 101.00390625 c 0
 737.831054688 69.00390625 654.1640625 53.00390625 563.497070312 53.00390625 c 0
 537.497070312 53.00390625 510.497070312 54.3369140625 482.497070312 57.00390625 c 1
 409.1640625 -7.6630859375 323.497070312 -52.6630859375 225.497070312 -77.99609375 c 0
 207.497070312 -83.3291015625 186.497070312 -87.3291015625 162.497070312 -89.99609375 c 0
 155.830078125 -90.6630859375 150.163085938 -88.99609375 145.49609375 -84.99609375 c 0
 140.829101562 -80.99609375 137.49609375 -75.6630859375 135.49609375 -68.99609375 c 2
 135.49609375 -67.99609375 l 2
 134.163085938 -66.6630859375 134.163085938 -64.6630859375 135.49609375 -61.99609375 c 0
 136.829101562 -59.3291015625 137.162109375 -57.3291015625 136.495117188 -55.99609375 c 0
 135.828125 -54.6630859375 136.495117188 -52.99609375 138.495117188 -50.99609375 c 2
 150.495117188 -35.99609375 l 2
 153.162109375 -32.6630859375 158.829101562 -26.330078125 167.49609375 -16.9970703125 c 2
 187.49609375 5.0029296875 l 2
 192.163085938 10.3359375 197.830078125 17.6689453125 204.497070312 27.001953125 c 0
 211.1640625 36.3349609375 217.1640625 45.66796875 222.497070312 55.0009765625 c 0
 227.830078125 64.333984375 232.830078125 75.333984375 237.497070312 88.0009765625 c 2
 252.497070312 130.000976562 l 1
 193.830078125 163.333984375 147.830078125 204.333984375 114.497070312 253.000976562 c 0
 81.1640625 301.66796875 64.1640625 354.000976562 63.4970703125 410.000976562 c 0
 63.4970703125 458.66796875 76.830078125 505.000976562 103.497070312 549.000976562 c 0
 130.1640625 593.000976562 165.497070312 631.000976562 209.497070312 663.000976562 c 0
 253.497070312 695.000976562 306.830078125 720.333984375 369.497070312 739.000976562 c 0
 432.1640625 757.66796875 496.831054688 767.000976562 563.498046875 767.000976562 c 0
 654.165039062 767.000976562 737.83203125 751.000976562 814.499023438 719.000976562 c 0
 891.166015625 687.000976562 951.833007812 643.66796875 996.5 589.000976562 c 0
 1041.16699219 534.333984375 1063.5 474.666992188 1063.5 410 c 0
EndSplineSet
Validated: 1
EndChar

StartChar: numbersign
Encoding: 35 35 4
Width: 1147
Flags: W
LayerCount: 2
Fore
SplineSet
1002.51757812 11 m 2
 1002.51660156 439 l 1
 990.516601562 425.666992188 977.516601562 413.333984375 963.516601562 402.000976562 c 0
 864.18359375 326.000976562 784.850585938 263.333984375 725.517578125 214.000976562 c 0
 706.850585938 198.000976562 691.517578125 185.333984375 679.517578125 176.000976562 c 0
 667.517578125 166.66796875 651.517578125 157.66796875 631.517578125 149.000976562 c 0
 611.517578125 140.333984375 592.517578125 136.000976562 574.517578125 136.000976562 c 2
 572.517578125 136.000976562 l 2
 555.184570312 136.000976562 536.184570312 140.333984375 515.517578125 149.000976562 c 0
 494.850585938 157.66796875 478.850585938 166.66796875 467.517578125 176.000976562 c 2
 421.517578125 214.000976562 l 2
 362.850585938 263.333984375 283.517578125 326.000976562 183.517578125 402.000976562 c 0
 169.517578125 413.333984375 156.517578125 425.666992188 144.517578125 439 c 1
 144.517578125 11 l 2
 144.517578125 5.6669921875 146.517578125 1.333984375 150.517578125 -1.9990234375 c 0
 154.517578125 -5.33203125 158.517578125 -6.9990234375 162.517578125 -6.9990234375 c 2
 984.517578125 -6.9990234375 l 2
 989.184570312 -6.9990234375 993.184570312 -5.33203125 996.517578125 -1.9990234375 c 0
 999.850585938 1.333984375 1001.85058594 5.6669921875 1002.51757812 11 c 2
1002.51660156 597 m 2
 1002.515625 611.001953125 l 1
 1000.515625 625.001953125 l 1
 997.515625 630.001953125 l 2
 995.515625 633.334960938 993.848632812 634.66796875 992.515625 634.000976562 c 0
 991.182617188 633.333984375 988.515625 634.000976562 984.515625 636.000976562 c 2
 162.515625 636.000976562 l 2
 157.848632812 636.000976562 153.848632812 634.000976562 150.515625 630.000976562 c 0
 147.182617188 626.000976562 145.182617188 622.000976562 144.515625 618.000976562 c 0
 144.515625 555.333984375 171.848632812 502.333984375 226.515625 459.000976562 c 2
 450.515625 282.000976562 l 2
 453.182617188 280.66796875 459.849609375 275.334960938 470.516601562 266.001953125 c 0
 481.18359375 256.668945312 489.516601562 249.668945312 495.516601562 245.001953125 c 0
 501.516601562 240.334960938 509.849609375 234.334960938 520.516601562 227.001953125 c 0
 531.18359375 219.668945312 540.516601562 214.668945312 548.516601562 212.001953125 c 0
 556.516601562 209.334960938 564.516601562 207.66796875 572.516601562 207.000976562 c 2
 574.516601562 207.000976562 l 2
 581.849609375 207.000976562 589.849609375 208.66796875 598.516601562 212.000976562 c 0
 607.18359375 215.333984375 616.516601562 220.333984375 626.516601562 227.000976562 c 0
 636.516601562 233.66796875 644.849609375 239.66796875 651.516601562 245.000976562 c 0
 658.18359375 250.333984375 666.516601562 257.333984375 676.516601562 266.000976562 c 0
 686.516601562 274.66796875 693.18359375 280.000976562 696.516601562 282.000976562 c 2
 920.516601562 459.000976562 l 2
 940.516601562 475.000976562 959.18359375 496.66796875 976.516601562 524.000976562 c 0
 993.849609375 551.333984375 1002.51660156 575.666992188 1002.51660156 597 c 2
1073.515625 618.001953125 m 2
 1073.515625 11.001953125 l 2
 1073.515625 -13.6650390625 1064.84863281 -34.6650390625 1047.515625 -51.998046875 c 0
 1030.18261719 -69.3310546875 1009.18261719 -78.3310546875 984.515625 -78.998046875 c 2
 162.515625 -78.998046875 l 2
 138.515625 -78.998046875 117.515625 -69.998046875 99.515625 -51.998046875 c 0
 81.515625 -33.998046875 72.8486328125 -12.998046875 73.515625 11.001953125 c 2
 73.515625 618.001953125 l 2
 73.515625 642.668945312 82.1826171875 663.668945312 99.515625 681.001953125 c 0
 116.848632812 698.334960938 137.848632812 707.001953125 162.515625 707.001953125 c 2
 984.515625 707.001953125 l 2
 1009.18261719 707.001953125 1030.18261719 698.334960938 1047.515625 681.001953125 c 0
 1064.84863281 663.668945312 1073.515625 642.668945312 1073.515625 618.001953125 c 2
EndSplineSet
Validated: 33
EndChar

StartChar: dollar
Encoding: 36 36 5
Width: 1202
Flags: W
LayerCount: 2
Fore
SplineSet
170.227539062 395.674804688 m 1
 500.828125 43.224609375 l 1
 342.177734375 395.674804688 l 1
 170.227539062 395.674804688 l 1
600.578125 -12.8251953125 m 1
 785.828125 395.674804688 l 1
 416.278320312 395.674804688 l 1
 600.578125 -12.8251953125 l 1
343.127929688 464.075195312 m 1
 451.427734375 667.375 l 1
 312.727539062 667.375 l 1
 159.778320312 464.075195312 l 1
 343.127929688 464.075195312 l 1
701.278320312 43.224609375 m 1
 1031.87792969 395.674804688 l 1
 859.927734375 395.674804688 l 1
 701.278320312 43.224609375 l 1
420.078125 464.075195312 m 1
 782.028320312 464.075195312 l 1
 673.727539062 667.375 l 1
 528.377929688 667.375 l 1
 420.078125 464.075195312 l 1
858.977539062 464.075195312 m 1
 1042.328125 464.075195312 l 1
 889.377929688 667.375 l 1
 750.677734375 667.375 l 1
 858.977539062 464.075195312 l 1
933.078125 721.525390625 m 2
 1137.33007812 449.825195312 l 2
 1141.76269531 443.4921875 1143.97949219 436.208984375 1143.97949219 427.975585938 c 0
 1143.97949219 419.7421875 1140.8125 412.775390625 1134.47949219 407.075195312 c 2
 626.229492188 -136.325195312 l 2
 619.896484375 -143.291992188 611.346679688 -146.775390625 600.580078125 -146.775390625 c 0
 589.813476562 -146.775390625 581.580078125 -143.291992188 575.879882812 -136.325195312 c 2
 67.6298828125 407.075195312 l 2
 61.9296875 412.775390625 58.7626953125 419.7421875 58.12890625 427.975585938 c 0
 57.4951171875 436.208984375 59.7119140625 443.4921875 64.779296875 449.825195312 c 2
 269.029296875 721.525390625 l 2
 275.362304688 731.025390625 284.228515625 735.775390625 295.627929688 735.775390625 c 2
 906.477539062 735.775390625 l 2
 917.877929688 735.775390625 926.745117188 731.025390625 933.078125 721.525390625 c 2
EndSplineSet
Validated: 1
EndChar

StartChar: percent
Encoding: 37 37 6
Width: 895
Flags: W
LayerCount: 2
Fore
SplineSet
340.5 82 m 2
 340.5 475 l 2
 340.5 480.333007812 338.833007812 484.666015625 335.5 487.999023438 c 0
 332.166992188 491.33203125 327.833984375 492.999023438 322.500976562 492.999023438 c 2
 286.500976562 492.999023438 l 2
 281.16796875 492.999023438 276.834960938 491.33203125 273.501953125 487.999023438 c 0
 270.168945312 484.666015625 268.501953125 480.333007812 268.501953125 475 c 2
 268.501953125 82 l 2
 268.501953125 76.6669921875 270.168945312 72.333984375 273.501953125 69.0009765625 c 0
 276.834960938 65.66796875 281.16796875 64.0009765625 286.500976562 64.0009765625 c 2
 322.500976562 64.0009765625 l 2
 327.833984375 64.0009765625 332.166992188 65.66796875 335.5 69.0009765625 c 0
 338.833007812 72.333984375 340.5 76.6669921875 340.5 82 c 2
483.5 82 m 2
 483.5 475 l 2
 483.5 480.333007812 481.833007812 484.666015625 478.5 487.999023438 c 0
 475.166992188 491.33203125 470.833984375 492.999023438 465.500976562 492.999023438 c 2
 429.500976562 492.999023438 l 2
 424.16796875 492.999023438 419.834960938 491.33203125 416.501953125 487.999023438 c 0
 413.168945312 484.666015625 411.501953125 480.333007812 411.501953125 475 c 2
 411.501953125 82 l 2
 411.501953125 76.6669921875 413.168945312 72.333984375 416.501953125 69.0009765625 c 0
 419.834960938 65.66796875 424.16796875 64.0009765625 429.500976562 64.0009765625 c 2
 465.500976562 64.0009765625 l 2
 470.833984375 64.0009765625 475.166992188 65.66796875 478.5 69.0009765625 c 0
 481.833007812 72.333984375 483.5 76.6669921875 483.5 82 c 2
625.5 82 m 2
 625.5 475 l 2
 625.5 480.333007812 623.833007812 484.666015625 620.5 487.999023438 c 0
 617.166992188 491.33203125 613.166992188 492.999023438 608.5 492.999023438 c 2
 572.5 492.999023438 l 2
 567.166992188 492.999023438 562.833984375 491.33203125 559.500976562 487.999023438 c 0
 556.16796875 484.666015625 554.500976562 480.333007812 554.500976562 475 c 2
 554.500976562 82 l 2
 554.500976562 76.6669921875 556.16796875 72.333984375 559.500976562 69.0009765625 c 0
 562.833984375 65.66796875 567.166992188 64.0009765625 572.5 64.0009765625 c 2
 608.5 64.0009765625 l 2
 613.166992188 64.0009765625 617.166992188 65.66796875 620.5 69.0009765625 c 0
 623.833007812 72.333984375 625.5 76.6669921875 625.5 82 c 2
322.5 636 m 1
 572.5 636 l 1
 545.5 701 l 2
 542.833007812 704.333007812 539.833007812 706.333007812 536.5 707 c 2
 359.5 707 l 2
 355.5 706.333007812 352.166992188 704.333007812 349.5 701 c 2
 322.5 636 l 1
840.5 618 m 2
 840.498046875 582.000976562 l 2
 840.498046875 576.66796875 838.831054688 572.334960938 835.498046875 569.001953125 c 0
 832.165039062 565.668945312 827.83203125 564.001953125 822.499023438 564.001953125 c 2
 768.499023438 564.001953125 l 1
 768.499023438 35.001953125 l 2
 768.499023438 4.3349609375 759.83203125 -22.33203125 742.499023438 -44.9990234375 c 0
 725.166015625 -67.666015625 704.166015625 -78.9990234375 679.499023438 -78.9990234375 c 2
 215.499023438 -78.9990234375 l 2
 190.83203125 -78.9990234375 169.83203125 -67.9990234375 152.499023438 -45.9990234375 c 0
 135.166015625 -23.9990234375 126.166015625 2.333984375 125.499023438 33.0009765625 c 2
 125.499023438 564.000976562 l 1
 72.4990234375 564.000976562 l 2
 67.166015625 564.000976562 62.8330078125 565.66796875 59.5 569.000976562 c 0
 56.1669921875 572.333984375 54.5 576.666992188 54.5 582 c 2
 54.5 618 l 2
 54.5 623.333007812 56.1669921875 627.666015625 59.5 630.999023438 c 0
 62.8330078125 634.33203125 67.166015625 635.999023438 72.4990234375 635.999023438 c 2
 244.499023438 635.999023438 l 1
 283.499023438 728.999023438 l 2
 289.499023438 742.999023438 299.83203125 754.666015625 314.499023438 763.999023438 c 0
 329.166015625 773.33203125 343.833007812 778.33203125 358.5 778.999023438 c 2
 536.5 778.999023438 l 2
 551.166992188 778.999023438 565.833984375 773.999023438 580.500976562 763.999023438 c 0
 595.16796875 753.999023438 605.16796875 742.33203125 610.500976562 728.999023438 c 2
 649.500976562 635.999023438 l 1
 822.500976562 635.999023438 l 2
 827.833984375 635.999023438 832.166992188 634.33203125 835.5 630.999023438 c 0
 838.833007812 627.666015625 840.5 623.333007812 840.5 618 c 2
EndSplineSet
Validated: 1
EndChar

StartChar: ampersand
Encoding: 38 38 7
Width: 1017
Flags: W
LayerCount: 2
Fore
SplineSet
830.016601562 246 m 2
 830.016601562 -21.001953125 l 2
 830.016601562 -31.001953125 826.349609375 -39.6689453125 819.016601562 -47.001953125 c 0
 811.68359375 -54.3349609375 803.350585938 -57.66796875 794.017578125 -57.0009765625 c 2
 580.017578125 -57.0009765625 l 1
 580.017578125 156.999023438 l 1
 437.017578125 156.999023438 l 1
 437.017578125 -57.0009765625 l 1
 223.017578125 -57.0009765625 l 2
 213.017578125 -57.0009765625 204.684570312 -53.66796875 198.017578125 -47.0009765625 c 0
 191.350585938 -40.333984375 187.68359375 -31.6669921875 187.016601562 -21 c 2
 187.016601562 250 l 1
 508.016601562 514 l 1
 829.016601562 250 l 2
 829.68359375 249.333007812 830.016601562 248 830.016601562 246 c 2
954.016601562 284.998046875 m 2
 920.017578125 244 l 2
 916.684570312 240.666992188 912.684570312 238.666992188 908.017578125 238 c 2
 906.017578125 238 l 2
 901.350585938 238 897.350585938 239 894.017578125 241 c 2
 508.017578125 563 l 1
 122.017578125 241 l 2
 117.350585938 238.333007812 113.017578125 237 109.017578125 237 c 0
 104.350585938 238.333007812 100.350585938 240.666015625 97.017578125 243.999023438 c 2
 62.017578125 284.999023438 l 2
 59.3505859375 288.33203125 58.3505859375 292.665039062 59.017578125 297.998046875 c 0
 59.6845703125 303.331054688 61.6845703125 307.331054688 65.017578125 309.998046875 c 2
 466.017578125 643.998046875 l 2
 478.017578125 653.998046875 492.017578125 658.998046875 508.017578125 658.998046875 c 0
 524.017578125 658.998046875 538.350585938 653.998046875 551.017578125 643.998046875 c 2
 687.017578125 529.998046875 l 1
 687.017578125 638.998046875 l 2
 687.017578125 644.331054688 688.684570312 648.6640625 692.017578125 651.997070312 c 0
 695.350585938 655.330078125 699.68359375 656.997070312 705.016601562 656.997070312 c 2
 812.016601562 656.997070312 l 2
 817.349609375 656.997070312 821.682617188 655.330078125 825.015625 651.997070312 c 0
 828.348632812 648.6640625 830.015625 644.331054688 830.015625 638.998046875 c 2
 830.015625 411.998046875 l 1
 952.015625 309.998046875 l 2
 955.348632812 306.665039062 957.348632812 302.665039062 958.015625 297.998046875 c 0
 958.682617188 293.331054688 957.349609375 288.998046875 954.016601562 284.998046875 c 2
EndSplineSet
Validated: 1
EndChar

StartChar: quotesingle
Encoding: 39 39 8
Width: 962
Flags: W
LayerCount: 2
Fore
SplineSet
261.5 -57 m 1
 311.5 -6 l 1
 180.5 125 l 1
 129.5 74 l 1
 129.5 14 l 1
 201.5 14 l 1
 201.5 -57 l 1
 261.5 -57 l 1
552.5 461 m 0
 552.5 469 548.5 473 540.5 473 c 0
 537.166992188 473 534.166992188 471.666992188 531.5 469 c 2
 228.5 167 l 2
 225.833007812 164.333007812 224.5 161 224.5 157 c 0
 224.5 149 228.833007812 145 237.5 145 c 0
 240.833007812 145 243.833007812 146.333007812 246.5 149 c 2
 549.5 451 l 2
 551.5 453.666992188 552.5 457 552.5 461 c 0
522.5 568 m 1
 754.5 336 l 1
 290.5 -129 l 1
 58.5 -129 l 1
 58.5 104 l 1
 522.5 568 l 1
883.5 565 m 2
 896.833007812 550.333007812 903.5 533.333007812 903.5 514 c 0
 903.5 494.666992188 896.833007812 478 883.5 464 c 2
 790.5 371 l 1
 558.5 604 l 1
 651.5 696 l 2
 664.833007812 710 681.5 717 701.5 717 c 0
 721.5 717 738.5 710 752.5 696 c 2
 883.5 565 l 2
EndSplineSet
Validated: 1
EndChar

StartChar: parenleft
Encoding: 40 40 9
Width: 1124
Flags: W
LayerCount: 2
Fore
SplineSet
991 314 m 1
 934.333007812 402 863.331054688 467.666992188 777.998046875 511 c 1
 800.665039062 472.333007812 811.998046875 430.666015625 811.998046875 385.999023438 c 0
 811.998046875 316.666015625 787.665039062 257.666015625 738.998046875 208.999023438 c 0
 690.331054688 160.33203125 631.331054688 135.999023438 561.998046875 135.999023438 c 0
 492.665039062 135.999023438 433.665039062 160.33203125 384.998046875 208.999023438 c 0
 336.331054688 257.666015625 311.998046875 316.666015625 311.998046875 385.999023438 c 0
 311.998046875 430.666015625 323.331054688 472.333007812 345.998046875 511 c 1
 260.665039062 467.666992188 189.665039062 402 132.998046875 314 c 1
 182.998046875 238 245.331054688 177.333007812 319.998046875 132 c 0
 394.665039062 86.6669921875 475.33203125 64 561.999023438 64 c 0
 648.666015625 64 729.333007812 86.6669921875 804 132 c 0
 878.666992188 177.333007812 941 238 991 314 c 1
588.998046875 529 m 0
 588.998046875 536.333007812 586.333007812 542.669921875 581 548.002929688 c 0
 575.666992188 553.3359375 569.333984375 555.668945312 562.000976562 555.001953125 c 0
 515.333984375 555.001953125 475.333984375 538.334960938 442.000976562 505.001953125 c 0
 408.66796875 471.668945312 392.000976562 432.001953125 392.000976562 386.001953125 c 0
 392.000976562 378.001953125 394.66796875 371.668945312 400.000976562 367.001953125 c 0
 405.333984375 362.334960938 411.666992188 359.66796875 419 359.000976562 c 0
 426.333007812 358.333984375 432.666015625 361.000976562 437.999023438 367.000976562 c 0
 443.33203125 373.000976562 445.999023438 379.333984375 445.999023438 386.000976562 c 0
 445.999023438 418.000976562 457.33203125 445.333984375 479.999023438 468.000976562 c 0
 502.666015625 490.66796875 529.999023438 502.000976562 561.999023438 502.000976562 c 0
 569.33203125 502.000976562 575.665039062 504.66796875 580.998046875 510.000976562 c 0
 586.331054688 515.333984375 588.998046875 521.666992188 588.998046875 529 c 0
1062 314.00390625 m 0
 1062 301.336914062 1058.33300781 288.670898438 1051 276.00390625 c 0
 999 190.00390625 929 121.336914062 841 70.00390625 c 0
 753 18.6708984375 660 -6.99609375 562 -6.99609375 c 0
 464 -6.99609375 371 18.6708984375 283 70.00390625 c 0
 195 121.336914062 125 190.00390625 73 276.00390625 c 0
 65.6669921875 288.670898438 62 301.337890625 62 314.004882812 c 0
 62 326.671875 65.6669921875 339.671875 73 353.004882812 c 0
 125 438.337890625 195 506.670898438 283 558.00390625 c 0
 371 609.336914062 464 635.336914062 562 636.00390625 c 0
 660 636.670898438 753 610.670898438 841 558.00390625 c 0
 929 505.336914062 999 437.00390625 1051 353.00390625 c 0
 1058.33300781 339.670898438 1062 326.670898438 1062 314.00390625 c 0
EndSplineSet
Validated: 33
EndChar

StartChar: parenright
Encoding: 41 41 10
Width: 986
Flags: W
LayerCount: 2
Fore
SplineSet
921.612304688 265 m 0
 921.612304688 207 910.278320312 151.668945312 887.611328125 99.001953125 c 0
 864.944335938 46.3349609375 834.611328125 0.66796875 796.611328125 -37.9990234375 c 0
 758.611328125 -76.666015625 712.944335938 -107.333007812 659.611328125 -130 c 0
 606.278320312 -152.666992188 550.9453125 -164 493.612304688 -164 c 0
 436.279296875 -164 380.612304688 -152.666992188 326.612304688 -130 c 0
 272.612304688 -107.333007812 227.279296875 -76.666015625 190.612304688 -37.9990234375 c 0
 153.9453125 0.66796875 123.278320312 46.3349609375 98.611328125 99.001953125 c 0
 73.9443359375 151.668945312 62.611328125 207.001953125 64.611328125 265.001953125 c 0
 64.611328125 333.001953125 79.611328125 396.668945312 109.611328125 456.001953125 c 0
 139.611328125 515.334960938 181.611328125 565.66796875 235.611328125 607.000976562 c 0
 251.611328125 619.000976562 269.611328125 623.66796875 289.611328125 621.000976562 c 0
 309.611328125 618.333984375 324.944335938 609.000976562 335.611328125 593.000976562 c 0
 347.611328125 577.66796875 352.278320312 560.000976562 349.611328125 540.000976562 c 0
 346.944335938 520.000976562 337.611328125 504.333984375 321.611328125 493.000976562 c 0
 285.611328125 465.66796875 257.611328125 432.000976562 237.611328125 392.000976562 c 0
 217.611328125 352.000976562 207.611328125 309.66796875 207.611328125 265.000976562 c 0
 207.611328125 226.333984375 214.944335938 189.333984375 229.611328125 154.000976562 c 0
 244.278320312 118.66796875 264.9453125 88.3349609375 291.612304688 63.001953125 c 0
 318.279296875 37.6689453125 348.612304688 17.3359375 382.612304688 2.0029296875 c 0
 416.612304688 -13.330078125 453.612304688 -20.9970703125 493.612304688 -20.9970703125 c 0
 533.612304688 -20.9970703125 570.279296875 -13.330078125 603.612304688 2.0029296875 c 0
 636.9453125 17.3359375 667.612304688 37.6689453125 695.612304688 63.001953125 c 0
 723.612304688 88.3349609375 743.9453125 118.66796875 756.612304688 154.000976562 c 0
 769.279296875 189.333984375 776.612304688 226.333984375 778.612304688 265.000976562 c 0
 778.612304688 310.333984375 768.612304688 352.666992188 748.612304688 392 c 0
 728.612304688 431.333007812 700.612304688 465 664.612304688 493 c 0
 648.612304688 505 639.279296875 520.666992188 636.612304688 540 c 0
 633.9453125 559.333007812 638.612304688 577 650.612304688 593 c 0
 662.612304688 609 678.279296875 618.333007812 697.612304688 621 c 0
 716.9453125 623.666992188 734.612304688 619 750.612304688 607 c 0
 804.612304688 566.333007812 846.612304688 516 876.612304688 456 c 0
 906.612304688 396 921.612304688 332.333007812 921.612304688 265 c 0
564.611328125 694.001953125 m 2
 564.611328125 336.001953125 l 2
 564.611328125 316.668945312 557.611328125 300.001953125 543.611328125 286.001953125 c 0
 529.611328125 272.001953125 512.944335938 265.001953125 493.611328125 265.001953125 c 0
 474.278320312 265.001953125 457.278320312 272.001953125 442.611328125 286.001953125 c 0
 427.944335938 300.001953125 420.944335938 316.668945312 421.611328125 336.001953125 c 2
 421.611328125 694.001953125 l 2
 421.611328125 713.334960938 428.611328125 730.001953125 442.611328125 744.001953125 c 0
 456.611328125 758.001953125 473.611328125 765.001953125 493.611328125 765.001953125 c 0
 513.611328125 765.001953125 530.278320312 758.001953125 543.611328125 744.001953125 c 0
 556.944335938 730.001953125 563.944335938 713.334960938 564.611328125 694.001953125 c 2
EndSplineSet
Validated: 33
EndChar

StartChar: asterisk
Encoding: 42 42 11
Width: 1074
Flags: W
LayerCount: 2
Fore
SplineSet
1001.5 461 m 2
 1001.5 68 l 2
 1001.5 34 989.166992188 4.6669921875 964.5 -20 c 0
 939.833007812 -44.6669921875 910.5 -57 876.5 -57 c 2
 197.5 -57 l 2
 163.5 -57 134.166992188 -44.6669921875 109.5 -20 c 0
 84.8330078125 4.6669921875 72.5 34 72.5 68 c 2
 72.5 604 l 2
 72.5 638 84.8330078125 667.333007812 109.5 692 c 0
 134.166992188 716.666992188 163.5 729 197.5 729 c 2
 376.5 729 l 2
 410.5 729 439.833007812 716.666992188 464.5 692 c 0
 489.166992188 667.333007812 501.5 638 501.5 604 c 2
 501.5 586 l 1
 876.5 586 l 2
 910.5 586 939.833007812 573.666992188 964.5 549 c 0
 989.166992188 524.333007812 1001.5 495 1001.5 461 c 2
EndSplineSet
Validated: 1
EndChar

StartChar: plus
Encoding: 43 43 12
Width: 1180
Flags: W
LayerCount: 2
Fore
SplineSet
1114.75 269 m 0
 1114.75 257 1108.74902344 244.66796875 1096.74902344 232.000976562 c 2
 909.749023438 11.0009765625 l 2
 893.749023438 -7.666015625 871.416015625 -23.666015625 842.749023438 -36.9990234375 c 0
 814.08203125 -50.33203125 787.08203125 -56.9990234375 761.749023438 -56.9990234375 c 2
 154.749023438 -56.9990234375 l 2
 142.08203125 -56.9990234375 131.08203125 -54.666015625 121.749023438 -49.9990234375 c 0
 112.416015625 -45.33203125 107.749023438 -37.33203125 107.749023438 -25.9990234375 c 0
 107.749023438 -14.666015625 113.08203125 -2.3330078125 123.749023438 11 c 2
 311.749023438 232 l 2
 327.749023438 250.666992188 350.08203125 266.666992188 378.749023438 280 c 0
 407.416015625 293.333007812 434.083007812 300 458.75 300 c 2
 1065.75 300 l 2
 1078.41699219 300 1089.75 297.666992188 1099.75 293 c 0
 1109.75 288.333007812 1114.75 280.333007812 1114.75 269 c 0
922.749023438 461.000976562 m 2
 922.749023438 371.000976562 l 1
 458.749023438 371.000976562 l 2
 423.416015625 371.000976562 386.749023438 362.333984375 348.749023438 345.000976562 c 0
 310.749023438 327.66796875 280.08203125 305.334960938 256.749023438 278.001953125 c 2
 68.7490234375 57.001953125 l 1
 66.7490234375 54.001953125 l 1
 65.7490234375 61.001953125 l 2
 65.08203125 64.3349609375 65.08203125 66.66796875 65.7490234375 68.0009765625 c 2
 65.7490234375 604.000976562 l 2
 65.7490234375 638.000976562 78.08203125 667.333984375 102.749023438 692.000976562 c 0
 127.416015625 716.66796875 156.749023438 729.000976562 190.749023438 729.000976562 c 2
 369.749023438 729.000976562 l 2
 403.749023438 729.000976562 433.08203125 716.66796875 457.749023438 692.000976562 c 0
 482.416015625 667.333984375 494.749023438 638.000976562 494.749023438 604.000976562 c 2
 494.749023438 586.000976562 l 1
 797.749023438 586.000976562 l 2
 831.749023438 586.000976562 861.08203125 573.66796875 885.749023438 549.000976562 c 0
 910.416015625 524.333984375 922.749023438 495.000976562 922.749023438 461.000976562 c 2
EndSplineSet
Validated: 1
EndChar

StartChar: comma
Encoding: 44 44 13
Width: 986
Flags: W
LayerCount: 2
Fore
SplineSet
493.5703125 729 m 0
 570.903320312 729 642.5703125 709.666992188 708.5703125 671 c 0
 774.5703125 632.333007812 826.5703125 580.333007812 864.5703125 515 c 0
 902.5703125 449.666992188 921.5703125 378 921.5703125 300 c 0
 921.5703125 222 902.5703125 150.333007812 864.5703125 85 c 0
 826.5703125 19.6669921875 774.5703125 -32.3330078125 708.5703125 -71 c 0
 642.5703125 -109.666992188 570.903320312 -129 493.5703125 -129 c 0
 416.237304688 -129 344.237304688 -109.666992188 277.5703125 -71 c 0
 210.903320312 -32.3330078125 159.236328125 19.6669921875 122.569335938 85 c 0
 85.90234375 150.333007812 66.5693359375 222 64.5693359375 300 c 0
 62.5693359375 378 81.90234375 449.666992188 122.569335938 515 c 0
 163.236328125 580.333007812 214.903320312 632.333007812 277.5703125 671 c 0
 340.237304688 709.666992188 412.237304688 729 493.5703125 729 c 0
645.5703125 438 m 2
 640.579101562 432.991210938 l 1
 633.579101562 426.991210938 l 2
 634.24609375 426.991210938 634.913085938 427.991210938 635.580078125 429.991210938 c 0
 636.247070312 431.991210938 637.247070312 433.991210938 638.580078125 435.991210938 c 0
 639.913085938 437.991210938 640.580078125 439.32421875 640.580078125 439.991210938 c 0
 642.580078125 442.658203125 646.580078125 445.325195312 652.580078125 447.9921875 c 0
 658.580078125 450.659179688 668.247070312 452.9921875 681.580078125 454.9921875 c 0
 694.247070312 458.325195312 703.9140625 456.325195312 710.581054688 448.9921875 c 1
 709.9140625 449.659179688 711.581054688 451.9921875 715.581054688 455.9921875 c 0
 719.581054688 459.9921875 722.248046875 462.325195312 723.581054688 462.9921875 c 0
 724.9140625 463.659179688 727.581054688 464.326171875 731.581054688 464.993164062 c 0
 735.581054688 465.66015625 738.581054688 467.327148438 740.581054688 469.994140625 c 2
 741.581054688 481.994140625 l 1
 736.9140625 481.327148438 733.581054688 482.66015625 731.581054688 485.993164062 c 0
 729.581054688 489.326171875 728.581054688 493.326171875 728.581054688 497.993164062 c 1
 728.581054688 496.66015625 727.248046875 494.993164062 724.581054688 492.993164062 c 1
 724.581054688 495.66015625 723.9140625 497.327148438 722.581054688 497.994140625 c 0
 721.248046875 498.661132812 718.915039062 498.328125 715.58203125 496.995117188 c 0
 712.249023438 495.662109375 710.58203125 495.329101562 710.58203125 495.99609375 c 0
 707.249023438 497.329101562 704.58203125 498.99609375 702.58203125 500.99609375 c 0
 700.58203125 502.99609375 698.915039062 505.99609375 697.58203125 509.99609375 c 0
 696.249023438 513.99609375 695.58203125 516.99609375 695.58203125 518.99609375 c 0
 695.58203125 520.99609375 693.915039062 522.663085938 690.58203125 523.99609375 c 0
 687.249023438 525.329101562 685.58203125 527.329101562 685.58203125 529.99609375 c 2
 679.58203125 539.99609375 l 2
 678.915039062 540.663085938 677.915039062 540.99609375 676.58203125 540.99609375 c 0
 675.249023438 540.99609375 673.916015625 539.99609375 672.583007812 537.99609375 c 0
 671.25 535.99609375 669.916992188 534.329101562 668.583984375 532.99609375 c 0
 667.250976562 531.663085938 666.583984375 530.663085938 666.583984375 529.99609375 c 1
 665.250976562 530.663085938 663.91796875 530.99609375 662.584960938 530.99609375 c 0
 661.251953125 530.99609375 660.584960938 530.663085938 660.584960938 529.99609375 c 0
 660.584960938 529.329101562 659.584960938 528.662109375 657.584960938 527.995117188 c 0
 655.584960938 527.328125 654.584960938 526.661132812 654.584960938 525.994140625 c 0
 654.584960938 525.327148438 653.251953125 524.994140625 650.584960938 524.994140625 c 0
 647.91796875 524.994140625 646.250976562 524.661132812 645.583984375 523.994140625 c 1
 650.916992188 525.994140625 650.583984375 527.994140625 644.583984375 529.994140625 c 0
 641.250976562 531.327148438 638.250976562 531.66015625 635.583984375 530.993164062 c 1
 638.916992188 532.993164062 640.583984375 535.326171875 640.583984375 537.993164062 c 0
 640.583984375 540.66015625 638.916992188 543.327148438 635.583984375 545.994140625 c 2
 638.583984375 545.994140625 l 2
 637.916992188 547.327148438 636.25 548.994140625 633.583007812 550.994140625 c 0
 630.916015625 552.994140625 627.583007812 554.327148438 623.583007812 554.994140625 c 0
 619.583007812 555.661132812 617.25 556.994140625 616.583007812 558.994140625 c 0
 613.25 560.994140625 606.916992188 562.661132812 597.583984375 563.994140625 c 0
 588.250976562 565.327148438 582.583984375 565.327148438 580.583984375 563.994140625 c 0
 578.583984375 562.661132812 577.250976562 560.994140625 576.583984375 558.994140625 c 0
 575.916992188 556.994140625 576.583984375 554.327148438 578.583984375 550.994140625 c 2
 580.583984375 543.994140625 l 2
 581.250976562 541.327148438 580.250976562 538.994140625 577.583984375 536.994140625 c 0
 574.916992188 534.994140625 573.916992188 532.661132812 574.583984375 529.994140625 c 0
 575.250976562 527.327148438 577.583984375 524.327148438 581.583984375 520.994140625 c 0
 585.583984375 517.661132812 587.583984375 513.661132812 587.583984375 508.994140625 c 0
 586.250976562 506.327148438 583.250976562 503.327148438 578.583984375 499.994140625 c 2
 569.583984375 493.994140625 l 2
 567.583984375 490.661132812 567.250976562 486.994140625 568.583984375 482.994140625 c 0
 569.916992188 478.994140625 571.916992188 475.994140625 574.583984375 473.994140625 c 0
 575.250976562 473.327148438 575.583984375 472.66015625 575.583984375 471.993164062 c 0
 575.583984375 471.326171875 574.916992188 470.326171875 573.583984375 468.993164062 c 0
 572.250976562 467.66015625 571.250976562 466.993164062 570.583984375 466.993164062 c 0
 569.916992188 466.993164062 568.583984375 466.326171875 566.583984375 464.993164062 c 2
 565.583984375 463.993164062 l 2
 560.916992188 461.993164062 556.916992188 462.993164062 553.583984375 466.993164062 c 0
 550.250976562 470.993164062 547.91796875 475.993164062 546.584960938 481.993164062 c 0
 543.91796875 491.326171875 540.91796875 496.993164062 537.584960938 498.993164062 c 0
 528.91796875 501.66015625 523.250976562 501.327148438 520.583984375 497.994140625 c 1
 519.250976562 502.661132812 511.91796875 507.661132812 498.584960938 512.994140625 c 0
 489.251953125 516.327148438 478.251953125 516.994140625 465.584960938 514.994140625 c 1
 468.251953125 514.994140625 468.251953125 517.994140625 465.584960938 523.994140625 c 0
 462.91796875 529.994140625 459.584960938 531.994140625 455.584960938 529.994140625 c 1
 456.251953125 531.994140625 456.918945312 535.327148438 457.5859375 539.994140625 c 0
 458.252929688 544.661132812 458.252929688 546.994140625 457.5859375 546.994140625 c 1
 458.918945312 551.661132812 461.251953125 555.994140625 464.584960938 559.994140625 c 2
 473.584960938 571.994140625 l 2
 474.91796875 573.994140625 475.250976562 575.327148438 474.583984375 575.994140625 c 1
 487.250976562 573.994140625 496.583984375 575.994140625 502.583984375 581.994140625 c 0
 503.916992188 583.327148438 505.916992188 586.327148438 508.583984375 590.994140625 c 2
 514.583984375 600.994140625 l 2
 517.916992188 602.994140625 520.583984375 603.994140625 522.583984375 603.994140625 c 0
 524.583984375 603.994140625 527.250976562 602.994140625 530.583984375 600.994140625 c 0
 533.916992188 598.994140625 536.583984375 597.994140625 538.583984375 597.994140625 c 0
 543.916992188 597.327148438 546.583984375 599.327148438 546.583984375 603.994140625 c 0
 546.583984375 608.661132812 545.250976562 612.328125 542.583984375 614.995117188 c 1
 547.250976562 614.995117188 547.91796875 618.328125 544.584960938 624.995117188 c 0
 542.584960938 627.662109375 540.91796875 629.329101562 539.584960938 629.99609375 c 0
 535.584960938 631.329101562 530.584960938 630.329101562 524.584960938 626.99609375 c 0
 521.91796875 625.663085938 522.584960938 624.330078125 526.584960938 622.997070312 c 1
 525.91796875 622.997070312 523.91796875 620.997070312 520.584960938 616.997070312 c 2
 511.584960938 606.997070312 l 2
 508.91796875 604.330078125 505.91796875 605.330078125 502.584960938 609.997070312 c 2
 499.584960938 616.997070312 l 2
 497.584960938 621.6640625 495.91796875 624.331054688 494.584960938 624.998046875 c 0
 491.251953125 624.998046875 488.251953125 621.998046875 485.584960938 615.998046875 c 1
 486.251953125 619.331054688 484.251953125 622.331054688 479.584960938 624.998046875 c 0
 474.91796875 627.665039062 470.250976562 628.998046875 465.583984375 628.998046875 c 1
 472.916992188 633.665039062 471.583984375 638.665039062 461.583984375 643.998046875 c 0
 458.916992188 645.998046875 454.916992188 646.998046875 449.583984375 646.998046875 c 0
 444.250976562 646.998046875 440.583984375 646.331054688 438.583984375 644.998046875 c 2
 435.583984375 637.998046875 l 2
 434.916992188 635.998046875 435.916992188 634.665039062 438.583984375 633.998046875 c 0
 441.250976562 633.331054688 443.250976562 632.331054688 444.583984375 630.998046875 c 0
 445.916992188 629.665039062 447.916992188 628.998046875 450.583984375 628.998046875 c 0
 453.250976562 628.998046875 454.91796875 628.331054688 455.584960938 626.998046875 c 0
 460.91796875 622.998046875 462.584960938 620.331054688 460.584960938 618.998046875 c 0
 459.91796875 618.998046875 458.250976562 618.331054688 455.583984375 616.998046875 c 0
 452.916992188 615.665039062 450.916992188 614.998046875 449.583984375 614.998046875 c 0
 448.250976562 614.998046875 446.91796875 614.331054688 445.584960938 612.998046875 c 0
 444.251953125 611.665039062 444.251953125 608.998046875 445.584960938 604.998046875 c 0
 446.91796875 600.998046875 446.584960938 598.331054688 444.584960938 596.998046875 c 0
 442.584960938 598.998046875 440.91796875 602.331054688 439.584960938 606.998046875 c 0
 438.251953125 611.665039062 436.918945312 614.665039062 435.5859375 615.998046875 c 1
 438.252929688 612.665039062 433.5859375 611.33203125 421.5859375 611.999023438 c 2
 416.5859375 612.999023438 l 2
 414.5859375 612.999023438 411.5859375 612.666015625 407.5859375 611.999023438 c 0
 403.5859375 611.33203125 399.5859375 610.999023438 395.5859375 610.999023438 c 0
 391.5859375 610.999023438 389.252929688 612.666015625 388.5859375 615.999023438 c 0
 386.5859375 618.666015625 386.5859375 622.333007812 388.5859375 627 c 0
 388.5859375 628.333007812 389.252929688 628.666015625 390.5859375 627.999023438 c 2
 378.5859375 637.999023438 l 1
 361.918945312 632.666015625 344.5859375 624.999023438 326.5859375 614.999023438 c 1
 328.5859375 614.999023438 330.5859375 615.33203125 332.5859375 615.999023438 c 2
 340.5859375 618.999023438 l 2
 343.918945312 620.33203125 345.5859375 621.665039062 345.5859375 622.998046875 c 0
 358.252929688 627.665039062 366.252929688 628.665039062 369.5859375 625.998046875 c 1
 372.5859375 628.998046875 l 1
 383.5859375 614.998046875 l 2
 380.918945312 616.998046875 375.251953125 617.331054688 366.584960938 615.998046875 c 0
 359.251953125 613.331054688 355.251953125 610.998046875 354.584960938 608.998046875 c 0
 357.251953125 604.331054688 357.918945312 600.998046875 356.5859375 598.998046875 c 2
 350.5859375 604.998046875 l 2
 347.918945312 607.665039062 345.251953125 609.665039062 342.584960938 610.998046875 c 0
 339.91796875 612.331054688 337.250976562 613.331054688 334.583984375 613.998046875 c 0
 328.583984375 613.998046875 324.250976562 613.665039062 321.583984375 612.998046875 c 0
 267.583984375 582.998046875 223.916992188 541.665039062 190.583984375 488.998046875 c 0
 193.250976562 486.331054688 195.583984375 484.998046875 197.583984375 484.998046875 c 0
 199.583984375 484.998046875 200.583984375 483.331054688 200.583984375 479.998046875 c 0
 200.583984375 476.665039062 200.916992188 474.665039062 201.583984375 473.998046875 c 0
 202.250976562 473.331054688 204.250976562 473.6640625 207.583984375 474.997070312 c 0
 210.916992188 472.330078125 211.583984375 468.997070312 209.583984375 464.997070312 c 1
 210.250976562 464.997070312 218.583984375 459.997070312 234.583984375 449.997070312 c 0
 241.250976562 443.330078125 244.91796875 439.330078125 245.584960938 437.997070312 c 0
 246.91796875 433.997070312 245.250976562 430.6640625 240.583984375 427.997070312 c 1
 235.583984375 432.997070312 l 2
 232.916992188 435.6640625 231.25 436.331054688 230.583007812 434.998046875 c 0
 229.916015625 433.665039062 229.916015625 430.33203125 230.583007812 424.999023438 c 0
 231.25 419.666015625 233.25 417.333007812 236.583007812 418 c 1
 233.916015625 418 232.249023438 415 231.58203125 409 c 2
 229.58203125 389 l 2
 228.915039062 381.666992188 228.915039062 377.333984375 229.58203125 376.000976562 c 2
 230.58203125 375.000976562 l 2
 229.249023438 371.000976562 230.249023438 364.66796875 233.58203125 356.000976562 c 0
 236.915039062 347.333984375 240.915039062 343.666992188 245.58203125 345 c 1
 240.915039062 344.333007812 244.58203125 336.333007812 256.58203125 321 c 2
 260.58203125 316 l 1
 267.58203125 312 l 1
 276.58203125 306 l 1
 282.58203125 301 l 2
 283.915039062 299.666992188 285.58203125 295.333984375 287.58203125 288.000976562 c 0
 289.58203125 280.66796875 292.249023438 276.334960938 295.58203125 275.001953125 c 1
 294.249023438 273.001953125 295.916015625 269.334960938 300.583007812 264.001953125 c 0
 305.25 258.668945312 307.25 254.3359375 306.583007812 251.002929688 c 0
 305.916015625 251.002929688 305.249023438 250.669921875 304.58203125 250.002929688 c 0
 303.915039062 249.3359375 303.58203125 249.3359375 303.58203125 250.002929688 c 1
 304.915039062 247.3359375 307.915039062 244.668945312 312.58203125 242.001953125 c 0
 317.249023438 239.334960938 319.916015625 237.334960938 320.583007812 236.001953125 c 0
 321.25 234.668945312 321.583007812 232.3359375 321.583007812 229.002929688 c 0
 321.583007812 225.669921875 322.25 223.669921875 323.583007812 223.002929688 c 0
 324.916015625 222.3359375 326.249023438 222.002929688 327.58203125 222.002929688 c 0
 328.915039062 229.3359375 324.58203125 240.668945312 314.58203125 256.001953125 c 0
 309.249023438 265.334960938 306.249023438 271.001953125 305.58203125 273.001953125 c 0
 304.915039062 275.001953125 303.58203125 277.668945312 301.58203125 281.001953125 c 0
 299.58203125 284.334960938 298.915039062 287.001953125 299.58203125 289.001953125 c 2
 302.58203125 289.001953125 l 2
 303.915039062 289.001953125 305.58203125 288.334960938 307.58203125 287.001953125 c 2
 312.58203125 283.001953125 l 2
 311.915039062 280.334960938 312.248046875 277.001953125 313.581054688 273.001953125 c 0
 314.9140625 269.001953125 317.247070312 265.668945312 320.580078125 263.001953125 c 0
 323.913085938 260.334960938 327.24609375 256.66796875 330.579101562 252.000976562 c 0
 333.912109375 247.333984375 335.912109375 245.000976562 336.579101562 245.000976562 c 0
 339.24609375 242.333984375 341.913085938 238.666992188 344.580078125 234 c 0
 347.247070312 229.333007812 347.247070312 226.666015625 344.580078125 225.999023438 c 1
 347.913085938 225.999023438 351.580078125 224.33203125 355.580078125 220.999023438 c 0
 359.580078125 217.666015625 362.913085938 214.333007812 365.580078125 211 c 0
 368.247070312 207.666992188 369.580078125 202.333984375 369.580078125 195.000976562 c 0
 369.580078125 187.66796875 370.580078125 183.334960938 372.580078125 182.001953125 c 0
 374.580078125 180.668945312 376.247070312 178.001953125 377.580078125 174.001953125 c 0
 378.913085938 170.001953125 381.24609375 168.334960938 384.579101562 169.001953125 c 2
 393.579101562 164.001953125 l 1
 400.579101562 161.001953125 l 1
 422.579101562 148.001953125 l 2
 426.579101562 146.668945312 429.579101562 146.001953125 431.579101562 146.001953125 c 0
 433.579101562 146.001953125 436.24609375 146.334960938 439.579101562 147.001953125 c 2
 447.579101562 149.001953125 l 2
 452.912109375 149.668945312 458.245117188 147.001953125 463.578125 141.001953125 c 0
 468.911132812 135.001953125 472.911132812 131.001953125 475.578125 129.001953125 c 0
 488.911132812 122.334960938 498.911132812 120.334960938 505.578125 123.001953125 c 1
 504.911132812 123.001953125 505.244140625 121.668945312 506.577148438 119.001953125 c 2
 510.577148438 110.001953125 l 2
 511.91015625 106.668945312 513.577148438 104.001953125 515.577148438 102.001953125 c 0
 517.577148438 100.001953125 518.577148438 98.3349609375 518.577148438 97.001953125 c 0
 520.577148438 95.001953125 523.91015625 92.3349609375 528.577148438 89.001953125 c 0
 533.244140625 85.6689453125 536.577148438 83.001953125 538.577148438 81.001953125 c 0
 541.244140625 82.3349609375 542.577148438 84.001953125 542.577148438 86.001953125 c 1
 541.91015625 82.6689453125 543.243164062 79.001953125 546.576171875 75.001953125 c 0
 549.909179688 71.001953125 553.2421875 69.001953125 556.575195312 69.001953125 c 0
 561.908203125 70.3349609375 564.575195312 76.3349609375 564.575195312 87.001953125 c 1
 553.2421875 81.001953125 544.2421875 84.3349609375 537.575195312 97.001953125 c 2
 535.575195312 100.001953125 l 2
 534.2421875 102.001953125 533.575195312 103.668945312 533.575195312 105.001953125 c 0
 533.575195312 106.334960938 533.2421875 107.66796875 532.575195312 109.000976562 c 0
 531.908203125 110.333984375 531.908203125 112.000976562 532.575195312 114.000976562 c 0
 533.2421875 116.000976562 533.909179688 116.333984375 534.576171875 115.000976562 c 0
 537.909179688 115.000976562 539.909179688 115.66796875 540.576171875 117.000976562 c 0
 541.243164062 118.333984375 540.91015625 120.666992188 539.577148438 124 c 0
 538.244140625 127.333007812 537.577148438 130.333007812 537.577148438 133 c 0
 537.577148438 135.666992188 535.577148438 139 531.577148438 143 c 0
 527.577148438 147 525.244140625 149.666992188 524.577148438 151 c 1
 522.577148438 147.666992188 519.577148438 146.333984375 515.577148438 147.000976562 c 0
 511.577148438 147.66796875 508.577148438 149.334960938 506.577148438 152.001953125 c 1
 506.577148438 151.334960938 506.244140625 150.334960938 505.577148438 149.001953125 c 0
 504.91015625 147.668945312 504.577148438 146.3359375 504.577148438 145.002929688 c 2
 496.577148438 145.002929688 l 2
 497.244140625 146.3359375 497.577148438 149.668945312 497.577148438 155.001953125 c 0
 497.577148438 160.334960938 498.244140625 164.66796875 499.577148438 168.000976562 c 2
 507.577148438 183.000976562 l 2
 509.577148438 186.333984375 510.244140625 188.666992188 509.577148438 190 c 2
 506.577148438 195 l 2
 505.244140625 197 502.244140625 197.333007812 497.577148438 196 c 0
 490.244140625 196 485.244140625 192.333007812 482.577148438 185 c 0
 481.91015625 183.666992188 481.243164062 181.666992188 480.576171875 179 c 0
 479.909179688 176.333007812 479.2421875 174.333007812 478.575195312 173 c 0
 477.908203125 171.666992188 476.241210938 170.333984375 473.57421875 169.000976562 c 0
 470.907226562 167.66796875 466.240234375 167.334960938 459.573242188 168.001953125 c 0
 452.90625 168.668945312 448.573242188 169.668945312 446.573242188 171.001953125 c 0
 441.240234375 173.668945312 436.907226562 179.001953125 433.57421875 187.001953125 c 0
 430.241210938 195.001953125 428.57421875 201.334960938 428.57421875 206.001953125 c 0
 428.57421875 210.668945312 428.907226562 216.001953125 429.57421875 222.001953125 c 2
 431.57421875 236.001953125 l 2
 432.241210938 239.334960938 431.241210938 244.001953125 428.57421875 250.001953125 c 0
 429.907226562 250.668945312 431.57421875 252.3359375 433.57421875 255.002929688 c 2
 438.57421875 261.002929688 l 2
 439.907226562 261.669921875 440.907226562 262.002929688 441.57421875 262.002929688 c 2
 443.57421875 262.002929688 l 2
 444.241210938 262.002929688 445.241210938 262.3359375 446.57421875 263.002929688 c 0
 447.907226562 263.669921875 448.57421875 264.669921875 448.57421875 266.002929688 c 0
 448.57421875 267.3359375 447.57421875 268.002929688 445.57421875 268.002929688 c 2
 443.57421875 269.002929688 l 2
 446.241210938 268.3359375 451.57421875 268.668945312 459.57421875 270.001953125 c 0
 467.57421875 271.334960938 472.57421875 271.001953125 474.57421875 269.001953125 c 0
 480.57421875 265.001953125 484.57421875 265.334960938 486.57421875 270.001953125 c 2
 485.57421875 276.001953125 l 2
 484.907226562 279.334960938 484.907226562 281.66796875 485.57421875 283.000976562 c 1
 487.57421875 273.000976562 492.907226562 271.333984375 501.57421875 278.000976562 c 0
 502.907226562 277.333984375 505.907226562 276.333984375 510.57421875 275.000976562 c 0
 515.241210938 273.66796875 518.241210938 273.000976562 519.57421875 273.000976562 c 0
 520.907226562 273.000976562 522.240234375 272.000976562 523.573242188 270.000976562 c 2
 526.573242188 267.000976562 l 2
 527.240234375 266.333984375 528.240234375 266.333984375 529.573242188 267.000976562 c 0
 530.90625 267.66796875 532.573242188 269.000976562 534.573242188 271.000976562 c 1
 537.90625 265.66796875 540.239257812 261.334960938 541.572265625 258.001953125 c 0
 545.572265625 242.668945312 548.905273438 234.3359375 551.572265625 233.002929688 c 0
 554.239257812 231.669921875 556.239257812 231.336914062 557.572265625 232.00390625 c 0
 558.905273438 232.670898438 559.905273438 234.337890625 560.572265625 237.004882812 c 0
 561.239257812 239.671875 561.239257812 242.338867188 560.572265625 245.005859375 c 0
 559.905273438 247.672851562 559.572265625 250.005859375 559.572265625 252.005859375 c 2
 558.572265625 256.005859375 l 1
 558.572265625 271.005859375 l 1
 553.239257812 272.338867188 549.90625 274.671875 548.573242188 278.004882812 c 0
 547.240234375 281.337890625 547.240234375 284.670898438 548.573242188 288.00390625 c 0
 549.90625 291.336914062 552.90625 294.669921875 557.573242188 298.002929688 c 0
 557.573242188 298.669921875 558.90625 299.336914062 561.573242188 300.00390625 c 0
 564.240234375 300.670898438 567.240234375 302.00390625 570.573242188 304.00390625 c 2
 577.573242188 308.00390625 l 2
 585.573242188 315.336914062 588.240234375 322.00390625 585.573242188 328.00390625 c 1
 588.240234375 328.00390625 590.240234375 329.670898438 591.573242188 333.00390625 c 2
 589.573242188 335.00390625 l 2
 588.240234375 336.336914062 586.573242188 337.00390625 584.573242188 337.00390625 c 0
 582.573242188 337.00390625 581.90625 337.670898438 582.573242188 339.00390625 c 0
 585.90625 340.336914062 586.239257812 343.00390625 583.572265625 347.00390625 c 1
 585.572265625 348.336914062 586.905273438 350.669921875 587.572265625 354.002929688 c 0
 588.239257812 357.3359375 589.572265625 359.002929688 591.572265625 359.002929688 c 0
 594.905273438 354.3359375 598.905273438 354.002929688 603.572265625 358.002929688 c 0
 606.239257812 361.3359375 606.572265625 364.3359375 604.572265625 367.002929688 c 0
 605.905273438 369.669921875 609.572265625 371.669921875 615.572265625 373.002929688 c 0
 621.572265625 374.3359375 624.905273438 376.002929688 625.572265625 378.002929688 c 0
 628.239257812 377.3359375 629.90625 377.668945312 630.573242188 379.001953125 c 0
 631.240234375 380.334960938 631.240234375 382.66796875 630.573242188 386.000976562 c 0
 629.90625 389.333984375 630.573242188 391.666992188 632.573242188 393 c 2
 640.573242188 398 l 2
 643.90625 400 646.573242188 400.666992188 648.573242188 400 c 2
 657.573242188 407 l 2
 658.90625 408.333007812 658.90625 409 657.573242188 409 c 1
 664.240234375 408.333007812 670.240234375 410.333007812 675.573242188 415 c 0
 678.90625 419 677.573242188 422.666992188 671.573242188 426 c 1
 672.90625 428 672.239257812 429.666992188 669.572265625 431 c 0
 666.905273438 432.333007812 664.23828125 433.333007812 661.571289062 434 c 1
 662.904296875 434.666992188 665.237304688 435 668.5703125 435 c 0
 671.903320312 435 673.5703125 435.333007812 673.5703125 436 c 0
 679.5703125 439.333007812 678.237304688 442.333007812 669.5703125 445 c 0
 663.5703125 446.333007812 655.5703125 444 645.5703125 438 c 2
555.579101562 -52.0087890625 m 1
 631.579101562 -38.0087890625 696.5703125 -2.677734375 750.5703125 53.9892578125 c 0
 749.903320312 55.322265625 747.5703125 55.9892578125 743.5703125 55.9892578125 c 0
 739.5703125 55.9892578125 737.237304688 56.65625 736.5703125 57.9892578125 c 2
 723.5703125 62.9892578125 l 2
 724.237304688 65.65625 723.904296875 67.9892578125 722.571289062 69.9892578125 c 0
 721.23828125 71.9892578125 719.571289062 73.65625 717.571289062 74.9892578125 c 2
 696.571289062 89.9892578125 l 2
 695.904296875 90.65625 694.571289062 91.3232421875 692.571289062 91.990234375 c 2
 687.571289062 93.990234375 l 2
 686.23828125 94.6572265625 684.571289062 94.32421875 682.571289062 92.9912109375 c 2
 680.571289062 91.9912109375 l 2
 679.23828125 91.9912109375 678.23828125 91.658203125 677.571289062 90.9912109375 c 2
 672.571289062 87.9912109375 l 1
 672.571289062 85.9912109375 l 1
 664.571289062 92.658203125 657.904296875 96.9912109375 652.571289062 98.9912109375 c 0
 650.571289062 98.9912109375 648.23828125 99.9912109375 645.571289062 101.991210938 c 2
 640.571289062 105.991210938 l 2
 639.904296875 106.658203125 637.904296875 106.658203125 634.571289062 105.991210938 c 0
 631.23828125 105.32421875 629.23828125 103.991210938 628.571289062 101.991210938 c 0
 626.571289062 100.658203125 625.23828125 97.9912109375 624.571289062 93.9912109375 c 2
 623.571289062 86.9912109375 l 2
 620.904296875 88.9912109375 620.904296875 92.32421875 623.571289062 96.9912109375 c 0
 626.23828125 101.658203125 626.905273438 104.991210938 625.572265625 106.991210938 c 0
 624.239257812 108.991210938 621.90625 109.658203125 618.573242188 108.991210938 c 0
 615.240234375 108.32421875 613.240234375 107.657226562 612.573242188 106.990234375 c 2
 605.573242188 101.990234375 l 2
 601.573242188 99.3232421875 599.90625 98.3232421875 600.573242188 98.990234375 c 0
 601.240234375 99.6572265625 599.907226562 98.6572265625 596.57421875 95.990234375 c 0
 593.241210938 93.3232421875 591.57421875 91.65625 591.57421875 90.9892578125 c 0
 590.241210938 89.65625 588.908203125 87.65625 587.575195312 84.9892578125 c 0
 586.2421875 82.322265625 585.575195312 79.9892578125 585.575195312 77.9892578125 c 1
 584.908203125 79.9892578125 582.575195312 81.322265625 578.575195312 81.9892578125 c 0
 574.575195312 82.65625 572.908203125 83.65625 573.575195312 84.9892578125 c 1
 574.2421875 81.65625 574.909179688 75.3232421875 575.576171875 65.990234375 c 0
 576.243164062 56.6572265625 577.243164062 49.32421875 578.576171875 43.9912109375 c 0
 581.243164062 32.658203125 578.91015625 23.9912109375 571.577148438 17.9912109375 c 0
 561.577148438 8.658203125 556.244140625 0.9912109375 555.577148438 -5.0087890625 c 0
 554.244140625 -13.0087890625 556.577148438 -17.67578125 562.577148438 -19.0087890625 c 0
 562.577148438 -21.67578125 560.91015625 -25.67578125 557.577148438 -31.0087890625 c 0
 554.244140625 -36.341796875 552.911132812 -40.0087890625 553.578125 -42.0087890625 c 0
 554.245117188 -44.0087890625 554.912109375 -47.341796875 555.579101562 -52.0087890625 c 1
EndSplineSet
Validated: 37
EndChar

StartChar: hyphen
Encoding: 45 45 14
Width: 1128
Flags: W
LayerCount: 2
Fore
SplineSet
564 636 m 0
 488 636 416.999023438 623 350.999023438 597 c 0
 284.999023438 571 232.666015625 536 193.999023438 492 c 0
 155.33203125 448 135.665039062 400.666992188 134.998046875 350 c 0
 134.998046875 308.666992188 148.331054688 269 174.998046875 231 c 0
 201.665039062 193 239.33203125 160.333007812 287.999023438 133 c 2
 335.999023438 105 l 1
 320.999023438 52 l 2
 312.33203125 18 299.33203125 -14.3330078125 281.999023438 -45 c 1
 338.666015625 -21 389.999023438 11 435.999023438 51 c 2
 459.999023438 72 l 1
 491.999023438 69 l 2
 517.33203125 65.6669921875 541.33203125 64 563.999023438 64 c 0
 639.999023438 64 710.999023438 77 776.999023438 103 c 0
 842.999023438 129 895.33203125 164 933.999023438 208 c 0
 972.666015625 252 992.333007812 299.333007812 993 350 c 0
 993.666992188 400.666992188 974 448 934 492 c 0
 894 536 841.666992188 571 777 597 c 0
 712.333007812 623 641.333007812 636 564 636 c 0
1063.99902344 350 m 0
 1063.99902344 285.333007812 1041.66308594 225.669921875 996.99609375 171.002929688 c 0
 952.329101562 116.3359375 891.662109375 73.0029296875 814.995117188 41.0029296875 c 0
 738.328125 9.0029296875 654.661132812 -6.9970703125 563.994140625 -6.9970703125 c 0
 537.994140625 -6.9970703125 510.994140625 -5.6640625 482.994140625 -2.9970703125 c 1
 409.661132812 -67.6640625 323.994140625 -112.6640625 225.994140625 -137.997070312 c 0
 207.994140625 -143.330078125 186.994140625 -147.330078125 162.994140625 -149.997070312 c 2
 159.994140625 -149.997070312 l 2
 154.661132812 -149.997070312 149.661132812 -147.997070312 144.994140625 -143.997070312 c 0
 140.327148438 -139.997070312 137.327148438 -134.997070312 135.994140625 -128.997070312 c 2
 135.994140625 -127.997070312 l 2
 134.661132812 -126.6640625 134.661132812 -124.6640625 135.994140625 -121.997070312 c 0
 137.327148438 -119.330078125 137.66015625 -117.330078125 136.993164062 -115.997070312 c 0
 136.326171875 -114.6640625 136.993164062 -112.997070312 138.993164062 -110.997070312 c 2
 150.993164062 -95.9970703125 l 2
 153.66015625 -92.6640625 159.327148438 -86.3310546875 167.994140625 -76.998046875 c 2
 187.994140625 -54.998046875 l 2
 192.661132812 -49.6650390625 198.328125 -42.33203125 204.995117188 -32.9990234375 c 0
 211.662109375 -23.666015625 217.662109375 -14.3330078125 222.995117188 -5 c 0
 228.328125 4.3330078125 233.328125 15.3330078125 237.995117188 28 c 2
 252.995117188 70 l 1
 194.328125 103.333007812 148.328125 144.333007812 114.995117188 193 c 0
 81.662109375 241.666992188 64.662109375 294 63.9951171875 350 c 0
 63.9951171875 414.666992188 86.328125 474.333984375 130.995117188 529.000976562 c 0
 175.662109375 583.66796875 236.329101562 627.000976562 312.99609375 659.000976562 c 0
 389.663085938 691.000976562 473.330078125 707.000976562 563.997070312 707.000976562 c 0
 654.6640625 707.000976562 738.331054688 691.000976562 814.998046875 659.000976562 c 0
 891.665039062 627.000976562 952.33203125 583.66796875 996.999023438 529.000976562 c 0
 1041.66601562 474.333984375 1063.99902344 414.666992188 1063.99902344 350 c 0
EndSplineSet
Validated: 33
EndChar

StartChar: period
Encoding: 46 46 15
Width: 1125
Flags: W
LayerCount: 2
Fore
SplineSet
455.5 636 m 0
 398.833007812 636 345.500976562 626.333007812 295.500976562 607 c 0
 245.500976562 587.666992188 206.16796875 561.333984375 177.500976562 528.000976562 c 0
 148.833984375 494.66796875 134.166992188 459.000976562 133.5 421.000976562 c 0
 133.5 391.000976562 143.5 361.66796875 163.5 333.000976562 c 0
 183.5 304.333984375 211.166992188 280.000976562 246.5 260.000976562 c 2
 300.5 228.000976562 l 1
 281.5 182.000976562 l 1
 294.166992188 189.333984375 305.5 196.333984375 315.5 203.000976562 c 2
 340.5 221.000976562 l 1
 370.5 215.000976562 l 2
 399.166992188 209.66796875 427.5 207.000976562 455.5 207.000976562 c 0
 512.166992188 207.000976562 565.5 216.66796875 615.5 236.000976562 c 0
 665.5 255.333984375 704.833007812 281.666992188 733.5 315 c 0
 762.166992188 348.333007812 776.5 383.666015625 776.5 420.999023438 c 0
 776.5 458.33203125 762.166992188 493.999023438 733.5 527.999023438 c 0
 704.833007812 561.999023438 665.5 588.33203125 615.5 606.999023438 c 0
 565.5 625.666015625 512.166992188 635.333007812 455.5 636 c 0
455.500976562 707 m 0
 526.16796875 707 591.831054688 694.33203125 652.498046875 668.999023438 c 0
 713.165039062 643.666015625 760.83203125 608.999023438 795.499023438 564.999023438 c 0
 830.166015625 520.999023438 847.833007812 472.999023438 848.5 420.999023438 c 0
 849.166992188 368.999023438 831.5 321.33203125 795.5 277.999023438 c 0
 759.5 234.666015625 711.833007812 199.999023438 652.5 173.999023438 c 0
 593.166992188 147.999023438 527.5 135.33203125 455.5 135.999023438 c 0
 423.5 135.999023438 390.833007812 138.999023438 357.5 144.999023438 c 1
 310.833007812 112.33203125 259.166015625 88.33203125 202.499023438 72.9990234375 c 0
 188.499023438 69.666015625 172.499023438 66.666015625 154.499023438 63.9990234375 c 2
 152.499023438 63.9990234375 l 2
 148.499023438 63.9990234375 144.499023438 65.666015625 140.499023438 68.9990234375 c 0
 136.499023438 72.33203125 134.499023438 76.33203125 134.499023438 80.9990234375 c 0
 133.83203125 81.666015625 133.499023438 82.666015625 133.499023438 83.9990234375 c 0
 133.499023438 85.33203125 133.83203125 86.6650390625 134.499023438 87.998046875 c 0
 135.166015625 89.3310546875 135.499023438 90.3310546875 135.499023438 90.998046875 c 2
 136.499023438 93.998046875 l 1
 140.499023438 99.998046875 l 1
 143.499023438 102.998046875 l 2
 145.499023438 104.998046875 146.166015625 105.665039062 145.499023438 104.998046875 c 2
 173.499023438 134.998046875 l 2
 176.83203125 138.331054688 180.83203125 143.998046875 185.499023438 151.998046875 c 0
 190.166015625 159.998046875 194.833007812 166.998046875 199.5 172.998046875 c 0
 204.166992188 178.998046875 207.833984375 187.331054688 210.500976562 197.998046875 c 1
 164.500976562 224.665039062 128.500976562 257.33203125 102.500976562 295.999023438 c 0
 76.5009765625 334.666015625 63.16796875 376.333007812 62.5009765625 421 c 0
 62.5009765625 473 80.16796875 521 115.500976562 565 c 0
 150.833984375 609 198.500976562 643.666992188 258.500976562 669 c 0
 318.500976562 694.333007812 384.16796875 707 455.500976562 707 c 0
914.497070312 54.9990234375 m 1
 917.830078125 45.666015625 921.499023438 37.3291015625 925.499023438 29.99609375 c 0
 929.499023438 22.6630859375 934.166015625 15.6630859375 939.499023438 8.99609375 c 2
 966.499023438 -24.00390625 l 2
 972.499023438 -31.3369140625 976.83203125 -36.00390625 979.499023438 -38.00390625 c 2
 984.499023438 -43.00390625 l 1
 988.499023438 -49.00390625 l 1
 991.499023438 -59.00390625 l 2
 991.499023438 -59.6708984375 991.166015625 -60.6708984375 990.499023438 -62.00390625 c 0
 989.166015625 -67.3369140625 986.833007812 -71.669921875 983.5 -75.0029296875 c 0
 980.166992188 -78.3359375 976.166992188 -79.6689453125 971.5 -79.001953125 c 0
 952.833007812 -76.3349609375 936.833007812 -73.3349609375 923.5 -70.001953125 c 0
 866.166992188 -54.6689453125 814.166992188 -30.6689453125 767.5 1.998046875 c 1
 734.166992188 -4.001953125 701.5 -7.001953125 669.5 -7.001953125 c 0
 568.833007812 -7.001953125 481.166015625 17.6650390625 406.499023438 66.998046875 c 1
 427.83203125 64.998046875 444.165039062 63.998046875 455.498046875 63.998046875 c 0
 515.498046875 63.998046875 572.831054688 72.3310546875 627.498046875 88.998046875 c 0
 682.165039062 105.665039062 731.498046875 129.665039062 775.498046875 160.998046875 c 0
 821.498046875 195.665039062 857.165039062 235.33203125 882.498046875 279.999023438 c 0
 907.831054688 324.666015625 920.1640625 371.666015625 919.497070312 420.999023438 c 0
 919.497070312 449.666015625 915.1640625 477.999023438 906.497070312 505.999023438 c 1
 954.497070312 479.999023438 992.497070312 446.999023438 1020.49707031 406.999023438 c 0
 1048.49707031 366.999023438 1062.49707031 324.499023438 1062.49707031 279.499023438 c 0
 1062.49707031 234.499023438 1049.1640625 192.33203125 1022.49707031 152.999023438 c 0
 995.830078125 113.666015625 959.830078125 80.9990234375 914.497070312 54.9990234375 c 1
EndSplineSet
Validated: 37
EndChar

StartChar: slash
Encoding: 47 47 16
Width: 1043
Flags: W
LayerCount: 2
Fore
SplineSet
986 439 m 0
 986 431 981.002929688 422 971.002929688 412 c 2
 768.002929688 215 l 1
 816.002929688 -64 l 2
 816.669921875 -66.6669921875 817.002929688 -70.6669921875 817.002929688 -76 c 0
 817.002929688 -83.3330078125 815.002929688 -89.666015625 811.002929688 -94.9990234375 c 0
 807.002929688 -100.33203125 801.669921875 -103.33203125 795.002929688 -103.999023438 c 0
 788.3359375 -104.666015625 780.668945312 -102.333007812 772.001953125 -97 c 2
 521.001953125 35 l 1
 271.001953125 -97 l 2
 262.334960938 -101.666992188 254.66796875 -104 248.000976562 -104 c 0
 241.333984375 -104 235.666992188 -101 231 -95 c 0
 226.333007812 -89 224.333007812 -82.6669921875 225 -76 c 0
 225 -73.3330078125 225.333007812 -69.3330078125 226 -64 c 2
 274 215 l 1
 71 412 l 2
 61.6669921875 422 57 431 57 439 c 0
 57 453 67.3330078125 461.666992188 88 465 c 2
 368 505 l 1
 494 759 l 2
 501.333007812 774.333007812 510.333007812 782 521 782 c 0
 531.666992188 782 541 774.333007812 549 759 c 2
 674 505 l 1
 954 465 l 2
 975.333007812 461.666992188 986 453 986 439 c 0
EndSplineSet
Validated: 1
EndChar

StartChar: zero
Encoding: 48 48 17
Width: 876
Flags: W
LayerCount: 2
Fore
SplineSet
811.680664062 320.780273438 m 0
 811.680664062 268.939453125 801.840820312 220.21875 782.16015625 174.618164062 c 0
 762.48046875 129.018554688 735.840820312 89.4189453125 702.240234375 55.818359375 c 0
 668.639648438 22.21875 629.040039062 -4.4208984375 583.440429688 -24.1005859375 c 0
 537.83984375 -43.7802734375 489.599609375 -53.6201171875 438.719726562 -53.6201171875 c 0
 386.879882812 -53.6201171875 338.16015625 -43.7802734375 292.559570312 -24.1005859375 c 0
 246.959960938 -4.4208984375 207.360351562 22.21875 173.759765625 55.818359375 c 0
 140.159179688 89.4189453125 113.51953125 129.018554688 93.83984375 174.618164062 c 0
 74.1591796875 220.21875 64.3193359375 268.939453125 64.3193359375 320.780273438 c 0
 64.3193359375 372.620117188 74.1591796875 421.33984375 93.83984375 466.940429688 c 0
 113.51953125 512.540039062 140.159179688 552.379882812 173.759765625 586.459960938 c 0
 207.360351562 620.540039062 246.959960938 647.419921875 292.559570312 667.099609375 c 0
 338.16015625 686.779296875 386.879882812 696.619140625 438.719726562 696.619140625 c 0
 489.599609375 696.619140625 537.83984375 686.779296875 583.440429688 667.099609375 c 0
 629.040039062 647.419921875 668.639648438 620.540039062 702.240234375 586.459960938 c 0
 735.840820312 552.379882812 762.48046875 512.540039062 782.16015625 466.940429688 c 0
 801.840820312 421.33984375 811.680664062 372.620117188 811.680664062 320.780273438 c 0
EndSplineSet
Validated: 1
EndChar

StartChar: one
Encoding: 49 49 18
Width: 1160
Flags: W
LayerCount: 2
Fore
SplineSet
1049 566 m 1
 960.333007812 579.333007812 866.33203125 588.666992188 766.999023438 594 c 1
 931.999023438 758 l 1
 867.999023438 822 l 1
 642.999023438 598 l 1
 579.999023438 598 l 1
 323.999023438 854 l 1
 259.999023438 790 l 1
 453.999023438 596 l 1
 332.666015625 592 218.333007812 582 111 566 c 1
 97 512 86.3330078125 455.666992188 79 397 c 0
 71.6669921875 338.333007812 68 277.5 68 214.5 c 0
 68 151.5 71.6669921875 90.6669921875 79 32 c 0
 86.3330078125 -26.6669921875 97 -83 111 -137 c 1
 183 -147.666992188 258.333007812 -155.666992188 337 -161 c 0
 415.666992188 -166.333007812 496.666992188 -169 580 -169 c 0
 663.333007812 -169 744.333007812 -166.333007812 823 -161 c 0
 901.666992188 -155.666992188 977 -147.666992188 1049 -137 c 1
 1063 -83 1073.66699219 -26.6669921875 1081 32 c 0
 1088.33300781 90.6669921875 1092 151.5 1092 214.5 c 0
 1092 277.5 1088.33300781 338.333007812 1081 397 c 0
 1073.66699219 455.666992188 1063 512 1049 566 c 1
931.999023438 -19.9990234375 m 1
 823.33203125 -33.9990234375 705.999023438 -40.9990234375 579.999023438 -40.9990234375 c 0
 453.999023438 -40.9990234375 336.666015625 -33.9990234375 227.999023438 -19.9990234375 c 1
 207.33203125 52.0009765625 196.999023438 130.16796875 196.999023438 214.500976562 c 0
 196.999023438 298.833984375 207.33203125 377.000976562 227.999023438 449.000976562 c 1
 336.666015625 463.000976562 453.999023438 470.000976562 579.999023438 470.000976562 c 0
 705.999023438 470.000976562 823.33203125 463.000976562 931.999023438 449.000976562 c 1
 952.666015625 377.000976562 962.999023438 299.000976562 962.999023438 215.000976562 c 0
 962.999023438 131.000976562 952.666015625 52.66796875 931.999023438 -19.9990234375 c 1
EndSplineSet
Validated: 9
EndChar

StartChar: two
Encoding: 50 50 19
Width: 907
Flags: W
LayerCount: 2
Fore
SplineSet
846.375 46 m 0
 846.375 1.3330078125 832.706054688 -34.001953125 805.373046875 -60.001953125 c 0
 778.040039062 -86.001953125 742.040039062 -99.001953125 697.373046875 -99.001953125 c 2
 209.373046875 -99.001953125 l 2
 164.706054688 -99.001953125 128.706054688 -86.001953125 101.373046875 -60.001953125 c 0
 74.0400390625 -34.001953125 60.373046875 1.3310546875 60.373046875 45.998046875 c 0
 60.373046875 65.998046875 61.0400390625 85.3310546875 62.373046875 103.998046875 c 0
 63.7060546875 122.665039062 66.373046875 142.998046875 70.373046875 164.998046875 c 0
 74.373046875 186.998046875 79.373046875 206.998046875 85.373046875 224.998046875 c 0
 91.373046875 242.998046875 99.373046875 261.331054688 109.373046875 279.998046875 c 0
 119.373046875 298.665039062 130.706054688 313.665039062 143.373046875 324.998046875 c 0
 156.040039062 336.331054688 172.040039062 346.331054688 191.373046875 354.998046875 c 0
 210.706054688 363.665039062 231.373046875 367.33203125 253.373046875 365.999023438 c 0
 256.706054688 365.999023438 264.706054688 361.999023438 277.373046875 353.999023438 c 0
 290.040039062 345.999023438 303.70703125 336.999023438 318.374023438 326.999023438 c 0
 333.041015625 316.999023438 353.041015625 307.999023438 378.374023438 299.999023438 c 0
 403.70703125 291.999023438 428.70703125 287.999023438 453.374023438 287.999023438 c 0
 478.041015625 287.999023438 502.708007812 291.999023438 527.375 299.999023438 c 0
 552.041992188 307.999023438 572.375 316.999023438 588.375 326.999023438 c 0
 604.375 336.999023438 618.041992188 345.999023438 629.375 353.999023438 c 0
 640.708007812 361.999023438 648.708007812 365.999023438 653.375 365.999023438 c 0
 676.041992188 365.999023438 696.708984375 362.33203125 715.375976562 354.999023438 c 0
 734.04296875 347.666015625 750.04296875 337.666015625 763.375976562 324.999023438 c 0
 776.708984375 312.33203125 788.041992188 297.33203125 797.375 279.999023438 c 0
 806.708007812 262.666015625 814.708007812 244.333007812 821.375 225 c 0
 828.041992188 205.666992188 833.041992188 185.666992188 836.375 165 c 0
 839.708007812 144.333007812 842.375 124 844.375 104 c 0
 846.375 84 847.041992188 64.6669921875 846.375 46 c 0
667.373046875 543.998046875 m 0
 667.373046875 485.331054688 646.375976562 434.997070312 604.375976562 392.997070312 c 0
 562.375976562 350.997070312 512.04296875 329.997070312 453.375976562 329.997070312 c 0
 394.708984375 329.997070312 344.041992188 350.997070312 301.375 392.997070312 c 0
 258.708007812 434.997070312 238.041015625 485.330078125 239.374023438 543.997070312 c 0
 240.70703125 602.6640625 261.374023438 653.331054688 301.374023438 695.998046875 c 0
 341.374023438 738.665039062 392.041015625 759.665039062 453.374023438 758.998046875 c 0
 514.70703125 758.331054688 565.040039062 737.331054688 604.373046875 695.998046875 c 0
 643.706054688 654.665039062 664.706054688 603.998046875 667.373046875 543.998046875 c 0
EndSplineSet
Validated: 33
EndChar

StartChar: three
Encoding: 51 51 20
Width: 987
Flags: W
LayerCount: 2
Fore
SplineSet
635.809570312 300 m 0
 635.809570312 260.666992188 622.139648438 227 594.806640625 199 c 0
 567.473632812 171 533.806640625 157 493.806640625 157 c 0
 453.806640625 157 420.139648438 171 392.806640625 199 c 0
 365.473632812 227 351.473632812 260.666992188 350.806640625 300 c 4
 350.139648438 339.333007812 364.139648438 373 392.806640625 401 c 0
 421.473632812 429 455.140625 443 493.807617188 443 c 0
 532.474609375 443 566.141601562 429 594.80859375 401 c 0
 623.475585938 373 637.142578125 339.333007812 635.809570312 300 c 0
707.806640625 300 m 0
 707.806640625 359.333007812 686.807617188 410.001953125 644.807617188 452.001953125 c 0
 602.807617188 494.001953125 552.474609375 514.668945312 493.807617188 514.001953125 c 0
 435.140625 513.334960938 384.473632812 492.66796875 341.806640625 452.000976562 c 0
 299.139648438 411.333984375 278.139648438 360.666992188 278.806640625 300 c 0
 279.473632812 239.333007812 300.473632812 189 341.806640625 149 c 0
 383.139648438 109 433.806640625 88 493.806640625 86 c 0
 553.806640625 84 604.139648438 105 644.806640625 149 c 0
 685.473632812 193 706.473632812 243.333007812 707.806640625 300 c 0
778.807617188 300.001953125 m 0
 778.807617188 221.334960938 751.137695312 154.001953125 695.8046875 98.001953125 c 0
 640.471679688 42.001953125 573.138671875 14.001953125 493.805664062 14.001953125 c 0
 414.47265625 14.001953125 347.139648438 42.001953125 291.806640625 98.001953125 c 0
 236.473632812 154.001953125 208.473632812 221.334960938 207.806640625 300.001953125 c 0
 207.139648438 378.668945312 235.139648438 446.001953125 291.806640625 502.001953125 c 0
 348.473632812 558.001953125 415.806640625 586.001953125 493.806640625 586.001953125 c 0
 571.806640625 586.001953125 639.139648438 558.001953125 695.806640625 502.001953125 c 0
 752.473632812 446.001953125 780.140625 378.668945312 778.807617188 300.001953125 c 0
850.8046875 300.001953125 m 0
 850.8046875 348.668945312 841.134765625 395.00390625 821.801757812 439.00390625 c 0
 802.46875 483.00390625 777.135742188 521.00390625 745.802734375 553.00390625 c 0
 714.469726562 585.00390625 676.469726562 610.336914062 631.802734375 629.00390625 c 0
 587.135742188 647.670898438 541.135742188 657.00390625 493.802734375 657.00390625 c 0
 446.469726562 657.00390625 400.13671875 647.670898438 354.803710938 629.00390625 c 0
 309.470703125 610.336914062 271.470703125 585.00390625 240.803710938 553.00390625 c 0
 210.13671875 521.00390625 184.803710938 483.00390625 164.803710938 439.00390625 c 0
 144.803710938 395.00390625 135.13671875 348.670898438 135.803710938 300.00390625 c 0
 136.470703125 251.336914062 146.137695312 205.00390625 164.8046875 161.00390625 c 0
 183.471679688 117.00390625 208.8046875 79.3369140625 240.8046875 48.00390625 c 0
 272.8046875 16.6708984375 310.8046875 -8.99609375 354.8046875 -28.99609375 c 0
 398.8046875 -48.99609375 445.137695312 -58.3291015625 493.8046875 -56.99609375 c 0
 542.471679688 -55.6630859375 588.471679688 -46.330078125 631.8046875 -28.9970703125 c 0
 675.137695312 -11.6640625 713.137695312 14.0029296875 745.8046875 48.0029296875 c 0
 778.471679688 82.0029296875 803.8046875 119.669921875 821.8046875 161.002929688 c 0
 839.8046875 202.3359375 849.471679688 248.668945312 850.8046875 300.001953125 c 0
921.801757812 300.00390625 m 0
 921.801757812 222.00390625 902.801757812 150.336914062 864.801757812 85.00390625 c 0
 826.801757812 19.6708984375 774.801757812 -32.3291015625 708.801757812 -70.99609375 c 0
 642.801757812 -109.663085938 571.134765625 -128.99609375 493.801757812 -128.99609375 c 0
 416.46875 -128.99609375 344.46875 -109.663085938 277.801757812 -70.99609375 c 0
 211.134765625 -32.3291015625 159.467773438 19.6708984375 122.80078125 85.00390625 c 0
 86.1337890625 150.336914062 66.80078125 222.00390625 64.80078125 300.00390625 c 0
 62.80078125 378.00390625 82.1337890625 449.670898438 122.80078125 515.00390625 c 0
 163.467773438 580.336914062 215.134765625 632.336914062 277.801757812 671.00390625 c 0
 340.46875 709.670898438 412.46875 729.00390625 493.801757812 729.00390625 c 0
 575.134765625 729.00390625 646.801757812 709.670898438 708.801757812 671.00390625 c 0
 770.801757812 632.336914062 822.801757812 580.336914062 864.801757812 515.00390625 c 0
 906.801757812 449.670898438 925.801757812 378.00390625 921.801757812 300.00390625 c 0
EndSplineSet
Validated: 33
EndChar

StartChar: four
Encoding: 52 52 21
Width: 978
Flags: W
LayerCount: 2
Fore
SplineSet
609 686 m 0
 583 659.333007812 566.5 627.834960938 559.5 591.501953125 c 0
 552.5 555.168945312 556 520.668945312 570 488.001953125 c 1
 494.666992188 381.334960938 408.666992188 293.001953125 312 223.001953125 c 1
 279.333007812 237.668945312 244.333007812 241.668945312 207 235.001953125 c 0
 169.666992188 228.334960938 137.666992188 211.66796875 111 185.000976562 c 0
 86.3330078125 160.333984375 70.166015625 131.000976562 62.4990234375 97.0009765625 c 0
 54.83203125 63.0009765625 56.33203125 30.66796875 66.9990234375 0.0009765625 c 1
 169.999023438 103.000976562 l 1
 243.999023438 99.0009765625 l 1
 282.999023438 60.0009765625 l 1
 286.999023438 -13.9990234375 l 1
 183.999023438 -116.999023438 l 1
 214.666015625 -127.666015625 246.999023438 -129.166015625 280.999023438 -121.499023438 c 0
 314.999023438 -113.83203125 344.33203125 -97.6650390625 368.999023438 -72.998046875 c 0
 392.999023438 -48.998046875 408.999023438 -20.498046875 416.999023438 12.501953125 c 0
 424.999023438 45.501953125 423.999023438 77.3349609375 413.999023438 108.001953125 c 1
 490.666015625 213.334960938 583.666015625 304.334960938 692.999023438 381.001953125 c 1
 723.666015625 373.001953125 754.499023438 373.168945312 785.499023438 381.501953125 c 0
 816.499023438 389.834960938 843.666015625 405.66796875 866.999023438 429.000976562 c 0
 891.666015625 453.000976562 907.833007812 482.000976562 915.5 516.000976562 c 0
 923.166992188 550.000976562 921.666992188 582.333984375 911 613.000976562 c 1
 808 510.000976562 l 1
 734 514.000976562 l 1
 695 553.000976562 l 1
 691 628.000976562 l 1
 794 731.000976562 l 1
 763.333007812 741.000976562 731 742.16796875 697 734.500976562 c 0
 663 726.833984375 633.666992188 710.666992188 609 686 c 0
EndSplineSet
Validated: 41
EndChar

StartChar: five
Encoding: 53 53 22
Width: 987
Flags: MW
HStem: -128.993 143.002<473.67 515.337 473.67 525.002> 586.005 142.997<473.666 510.333>
VStem: 65 143.002<300 300>
LayerCount: 2
Fore
SplineSet
65 300 m 0
 65 242 76.3359375 186.67578125 99.00390625 134.008789062 c 0
 121.669921875 81.341796875 152.00390625 35.6748046875 190.00390625 -2.9921875 c 0
 228.00390625 -41.6591796875 273.669921875 -72.326171875 327.00390625 -94.9931640625 c 0
 380.3359375 -117.66015625 435.669921875 -128.993164062 493.001953125 -128.993164062 c 0
 557.001953125 -128.993164062 618.001953125 -115.326171875 676.001953125 -87.9931640625 c 0
 734.001953125 -60.66015625 783.001953125 -22.66015625 823.001953125 26.0068359375 c 0
 825.669921875 30.0068359375 827.001953125 34.33984375 827.001953125 39.0068359375 c 0
 827.001953125 43.673828125 825.3359375 47.3408203125 822.001953125 50.0078125 c 2
 746.001953125 127.0078125 l 2
 742.001953125 130.340820312 737.001953125 132.0078125 731.001953125 132.0078125 c 0
 725.001953125 132.0078125 721.001953125 129.674804688 719.001953125 125.0078125 c 0
 691.669921875 89.6748046875 658.3359375 62.341796875 619.00390625 43.0087890625 c 0
 579.669921875 23.67578125 537.669921875 14.0087890625 493.00390625 14.0087890625 c 0
 454.3359375 14.0087890625 417.669921875 21.67578125 383.001953125 37.0087890625 c 0
 348.3359375 52.341796875 317.66796875 72.6748046875 291.001953125 98.0078125 c 0
 264.333984375 123.340820312 244.001953125 153.673828125 230.001953125 189.006835938 c 0
 216.001953125 224.33984375 208.66796875 261.33984375 208.001953125 300.006835938 c 0
 207.333984375 338.673828125 214.66796875 375.673828125 230 411.006835938 c 0
 245.333984375 446.33984375 265.666015625 476.672851562 291 502.005859375 c 0
 316.33203125 527.338867188 347 547.671875 383 563.004882812 c 0
 419 578.337890625 455.33203125 586.004882812 492 586.004882812 c 0
 528.666015625 586.004882812 564 579.337890625 598 566.004882812 c 0
 632 552.671875 662 533.671875 688 509.004882812 c 1
 611 432.004882812 l 2
 599.666015625 421.337890625 597 408.670898438 603 394.00390625 c 0
 609 379.336914062 620 371.669921875 636 371.002929688 c 2
 886 371.002929688 l 2
 896 371.002929688 904.33203125 374.669921875 911 382.002929688 c 0
 917.666015625 389.3359375 921.333984375 397.668945312 922 407.001953125 c 2
 922 657.001953125 l 2
 922 673.001953125 914.66796875 684.334960938 900 691.001953125 c 0
 885.333984375 697.668945312 872.333984375 694.668945312 861 682.001953125 c 2
 789 610.001953125 l 1
 749 648.001953125 703.333984375 677.334960938 652 698.001953125 c 0
 600.66796875 718.668945312 547.66796875 729.001953125 493 729.001953125 c 0
 435 729.001953125 379.66796875 717.668945312 327 695.001953125 c 0
 274.333984375 672.334960938 228.666015625 641.66796875 190 603.000976562 c 0
 151.33203125 564.333984375 121 518.666992188 99 466 c 0
 77 413.333007812 65.666015625 358 65 300 c 0
EndSplineSet
Validated: 41
EndChar

StartChar: six
Encoding: 54 54 23
Width: 987
Flags: MW
HStem: -128.993 143.002<471.663 513.33 471.663 522.664> 586.005 142.997<476.667 513.333>
VStem: 778.998 143.002<300 300>
LayerCount: 2
Fore
SplineSet
922 300 m 0
 922 242 910.663085938 186.67578125 887.99609375 134.008789062 c 0
 865.329101562 81.341796875 834.99609375 35.6748046875 796.99609375 -2.9921875 c 0
 758.99609375 -41.6591796875 713.329101562 -72.326171875 659.99609375 -94.9931640625 c 0
 606.663085938 -117.66015625 551.330078125 -128.993164062 493.997070312 -128.993164062 c 0
 429.997070312 -128.993164062 368.997070312 -115.326171875 310.997070312 -87.9931640625 c 0
 252.997070312 -60.66015625 203.997070312 -22.66015625 163.997070312 26.0068359375 c 0
 161.330078125 30.0068359375 159.997070312 34.33984375 159.997070312 39.0068359375 c 0
 159.997070312 43.673828125 161.6640625 47.3408203125 164.997070312 50.0078125 c 2
 240.997070312 127.0078125 l 2
 244.997070312 130.340820312 249.997070312 132.0078125 255.997070312 132.0078125 c 0
 261.997070312 132.0078125 265.997070312 129.674804688 267.997070312 125.0078125 c 0
 295.330078125 89.6748046875 328.663085938 62.341796875 367.99609375 43.0087890625 c 0
 407.329101562 23.67578125 449.329101562 14.0087890625 493.99609375 14.0087890625 c 0
 532.663085938 14.0087890625 569.330078125 21.67578125 603.997070312 37.0087890625 c 0
 638.6640625 52.341796875 669.331054688 72.6748046875 695.998046875 98.0078125 c 0
 722.665039062 123.340820312 742.998046875 153.673828125 756.998046875 189.006835938 c 0
 770.998046875 224.33984375 778.331054688 261.33984375 778.998046875 300.006835938 c 0
 779.665039062 338.673828125 772.33203125 375.673828125 756.999023438 411.006835938 c 0
 741.666015625 446.33984375 721.333007812 476.672851562 696 502.005859375 c 0
 670.666992188 527.338867188 640 547.671875 604 563.004882812 c 0
 568 578.337890625 531.666992188 586.004882812 495 586.004882812 c 0
 458.333007812 586.004882812 423 579.337890625 389 566.004882812 c 0
 355 552.671875 325 533.671875 299 509.004882812 c 1
 376 432.004882812 l 2
 387.333007812 421.337890625 390 408.670898438 384 394.00390625 c 0
 378 379.336914062 367 371.669921875 351 371.002929688 c 2
 101 371.002929688 l 2
 91 371.002929688 82.6669921875 374.669921875 76 382.002929688 c 0
 69.3330078125 389.3359375 65.666015625 397.668945312 64.9990234375 407.001953125 c 2
 64.9990234375 657.001953125 l 2
 64.9990234375 673.001953125 72.33203125 684.334960938 86.9990234375 691.001953125 c 0
 101.666015625 697.668945312 114.666015625 694.668945312 125.999023438 682.001953125 c 2
 197.999023438 610.001953125 l 1
 237.999023438 648.001953125 283.666015625 677.334960938 334.999023438 698.001953125 c 0
 386.33203125 718.668945312 439.33203125 729.001953125 493.999023438 729.001953125 c 0
 551.999023438 729.001953125 607.33203125 717.668945312 659.999023438 695.001953125 c 0
 712.666015625 672.334960938 758.333007812 641.66796875 797 603.000976562 c 0
 835.666992188 564.333984375 866 518.666992188 888 466 c 0
 910 413.333007812 921.333007812 358 922 300 c 0
EndSplineSet
Validated: 33
EndChar

StartChar: seven
Encoding: 55 55 24
Width: 1052
Flags: W
LayerCount: 2
Fore
SplineSet
418.538085938 -37 m 0
 418.538085938 -56.3330078125 411.5390625 -72.998046875 397.5390625 -86.998046875 c 0
 383.5390625 -100.998046875 366.872070312 -108.331054688 347.5390625 -108.998046875 c 0
 328.206054688 -109.665039062 311.5390625 -102.33203125 297.5390625 -86.9990234375 c 0
 283.5390625 -71.666015625 276.206054688 -54.9990234375 275.5390625 -36.9990234375 c 0
 274.872070312 -18.9990234375 282.205078125 -2.33203125 297.538085938 13.0009765625 c 0
 312.87109375 28.333984375 329.538085938 35.333984375 347.538085938 34.0009765625 c 0
 365.538085938 32.66796875 382.205078125 25.66796875 397.538085938 13.0009765625 c 0
 412.87109375 0.333984375 419.87109375 -16.3330078125 418.538085938 -37 c 0
918.5390625 -36.998046875 m 0
 918.5390625 -56.3310546875 911.538085938 -72.99609375 897.538085938 -86.99609375 c 0
 883.538085938 -100.99609375 866.87109375 -108.329101562 847.538085938 -108.99609375 c 0
 828.205078125 -109.663085938 811.205078125 -102.330078125 796.538085938 -86.9970703125 c 0
 781.87109375 -71.6640625 774.87109375 -54.9970703125 775.538085938 -36.9970703125 c 0
 776.205078125 -18.9970703125 783.205078125 -2.330078125 796.538085938 13.0029296875 c 0
 809.87109375 28.3359375 826.87109375 35.3359375 847.538085938 34.0029296875 c 0
 868.205078125 32.669921875 884.872070312 25.669921875 897.5390625 13.0029296875 c 0
 910.206054688 0.3359375 917.206054688 -16.3310546875 918.5390625 -36.998046875 c 0
990.538085938 570.00390625 m 2
 990.541015625 284.006835938 l 2
 990.541015625 275.33984375 987.208007812 267.672851562 980.541015625 261.005859375 c 0
 973.874023438 254.338867188 966.541015625 250.338867188 958.541015625 249.005859375 c 2
 375.541015625 181.005859375 l 1
 380.208007812 158.338867188 382.541015625 144.671875 382.541015625 140.004882812 c 0
 382.541015625 135.337890625 378.208007812 124.004882812 369.541015625 106.004882812 c 1
 882.541015625 106.004882812 l 2
 892.541015625 106.004882812 901.208007812 102.337890625 908.541015625 95.0048828125 c 0
 915.874023438 87.671875 919.20703125 79.3388671875 918.540039062 70.005859375 c 0
 917.873046875 60.6728515625 914.540039062 52.33984375 908.540039062 45.0068359375 c 0
 902.540039062 37.673828125 893.873046875 34.0068359375 882.540039062 34.0068359375 c 2
 311.540039062 34.0068359375 l 2
 302.20703125 34.0068359375 293.874023438 37.673828125 286.541015625 45.0068359375 c 0
 279.208007812 52.33984375 275.541015625 60.6728515625 275.541015625 70.005859375 c 0
 275.541015625 74.005859375 277.208007812 80.005859375 280.541015625 88.005859375 c 0
 283.874023438 96.005859375 286.874023438 102.672851562 289.541015625 108.005859375 c 0
 292.208007812 113.338867188 296.208007812 120.671875 301.541015625 130.004882812 c 0
 306.874023438 139.337890625 309.541015625 144.670898438 309.541015625 146.00390625 c 2
 211.541015625 606.00390625 l 1
 97.541015625 606.00390625 l 2
 87.541015625 606.00390625 79.2080078125 609.336914062 72.541015625 616.00390625 c 0
 65.8740234375 622.670898438 62.20703125 631.00390625 61.5400390625 641.00390625 c 0
 60.873046875 651.00390625 64.5400390625 659.670898438 72.5400390625 667.00390625 c 0
 80.5400390625 674.336914062 88.873046875 677.669921875 97.5400390625 677.002929688 c 2
 240.540039062 677.002929688 l 2
 246.540039062 677.002929688 251.873046875 676.002929688 256.540039062 674.002929688 c 0
 261.20703125 672.002929688 264.540039062 669.002929688 266.540039062 665.002929688 c 0
 268.540039062 661.002929688 271.20703125 656.3359375 274.540039062 651.002929688 c 0
 277.873046875 645.669921875 279.206054688 641.002929688 278.5390625 637.002929688 c 0
 277.872070312 633.002929688 278.872070312 627.3359375 281.5390625 620.002929688 c 0
 284.206054688 612.669921875 285.206054688 608.002929688 284.5390625 606.002929688 c 2
 954.5390625 606.002929688 l 2
 963.872070312 606.002929688 972.205078125 602.3359375 979.538085938 595.002929688 c 0
 986.87109375 587.669921875 990.538085938 579.336914062 990.538085938 570.00390625 c 2
EndSplineSet
Validated: 37
EndChar

StartChar: eight
Encoding: 56 56 25
Width: 1116
Flags: W
LayerCount: 2
Fore
SplineSet
377.057617188 486 m 0
 373.057617188 495.333007812 366.725585938 502.001953125 358.05859375 506.001953125 c 0
 349.391601562 510.001953125 340.05859375 510.001953125 330.05859375 506.001953125 c 0
 290.05859375 489.334960938 254.725585938 465.66796875 224.05859375 435.000976562 c 0
 193.391601562 404.333984375 169.724609375 368.666992188 153.057617188 328 c 0
 149.057617188 318.666992188 149.057617188 309.666992188 153.057617188 301 c 0
 157.057617188 292.333007812 163.390625 286 172.057617188 282 c 0
 177.390625 280 182.057617188 279 186.057617188 279 c 0
 201.390625 279 212.390625 286.666992188 219.057617188 302 c 0
 231.724609375 332.666992188 250.057617188 360 274.057617188 384 c 0
 298.057617188 408 325.724609375 426.333007812 357.057617188 439 c 0
 366.390625 443 373.057617188 449.666992188 377.057617188 459 c 0
 381.057617188 468.333007812 381.057617188 477.333007812 377.057617188 486 c 0
902.05859375 685.001953125 m 1
 928.060546875 659.000976562 l 1
 792.060546875 524.000976562 l 1
 830.060546875 486.000976562 l 2
 836.727539062 478.66796875 840.060546875 470.000976562 840.060546875 460.000976562 c 0
 840.060546875 450.000976562 836.727539062 441.66796875 830.060546875 435.000976562 c 2
 794.060546875 399.000976562 l 1
 827.393554688 339.000976562 844.060546875 275.333984375 844.060546875 208.000976562 c 0
 844.060546875 154.66796875 833.727539062 103.66796875 813.060546875 55.0009765625 c 0
 792.393554688 6.333984375 764.393554688 -35.3330078125 729.060546875 -70 c 0
 693.727539062 -104.666992188 651.727539062 -132.666992188 603.060546875 -154 c 0
 554.393554688 -175.333007812 503.7265625 -185.666015625 451.059570312 -184.999023438 c 0
 398.392578125 -184.33203125 347.392578125 -173.999023438 298.059570312 -153.999023438 c 0
 248.7265625 -133.999023438 207.059570312 -105.999023438 173.059570312 -69.9990234375 c 0
 139.059570312 -33.9990234375 111.059570312 7.66796875 89.0595703125 55.0009765625 c 0
 67.0595703125 102.333984375 56.7265625 153.333984375 58.0595703125 208.000976562 c 0
 59.392578125 262.66796875 69.7255859375 313.334960938 89.05859375 360.001953125 c 0
 108.391601562 406.668945312 136.391601562 448.668945312 173.05859375 486.001953125 c 0
 209.725585938 523.334960938 251.392578125 551.334960938 298.059570312 570.001953125 c 0
 344.7265625 588.668945312 395.7265625 599.001953125 451.059570312 601.001953125 c 0
 518.392578125 601.001953125 582.059570312 584.334960938 642.059570312 551.001953125 c 1
 678.059570312 587.001953125 l 2
 685.392578125 593.668945312 693.725585938 597.001953125 703.05859375 597.001953125 c 0
 712.391601562 597.001953125 721.05859375 593.668945312 729.05859375 587.001953125 c 2
 767.05859375 549.001953125 l 1
 902.05859375 685.001953125 l 1
907.060546875 716.000976562 m 0
 903.060546875 712.66796875 898.729492188 711.001953125 894.0625 711.001953125 c 0
 889.395507812 711.001953125 885.395507812 712.668945312 882.0625 716.001953125 c 2
 831.0625 766.001953125 l 2
 827.729492188 770.001953125 826.0625 774.334960938 826.0625 779.001953125 c 0
 826.0625 783.668945312 827.729492188 788.001953125 831.0625 792.001953125 c 0
 834.395507812 796.001953125 838.728515625 797.668945312 844.061523438 797.001953125 c 0
 849.39453125 796.334960938 853.727539062 794.66796875 857.060546875 792.000976562 c 2
 907.060546875 741.000976562 l 2
 910.393554688 737.66796875 912.060546875 733.66796875 912.060546875 729.000976562 c 0
 912.060546875 724.333984375 910.393554688 720.000976562 907.060546875 716.000976562 c 0
1035.0625 588.001953125 m 0
 1031.0625 584.668945312 1026.73046875 583.002929688 1022.06347656 583.002929688 c 0
 1017.39648438 583.002929688 1013.06347656 584.669921875 1009.06347656 588.002929688 c 2
 959.063476562 639.002929688 l 2
 955.73046875 642.3359375 954.063476562 646.3359375 954.063476562 651.002929688 c 0
 954.063476562 655.669921875 955.73046875 660.002929688 959.063476562 664.002929688 c 0
 962.396484375 668.002929688 966.729492188 669.669921875 972.0625 669.002929688 c 0
 977.395507812 668.3359375 981.395507812 666.668945312 984.0625 664.001953125 c 2
 1035.0625 614.001953125 l 2
 1038.39550781 610.001953125 1040.0625 605.668945312 1040.0625 601.001953125 c 0
 1040.0625 596.334960938 1038.39550781 592.001953125 1035.0625 588.001953125 c 0
1058.06347656 690.002929688 m 0
 1058.06347656 684.669921875 1056.39648438 680.336914062 1053.06347656 677.00390625 c 0
 1049.73046875 673.670898438 1045.39746094 672.00390625 1040.06445312 672.00390625 c 2
 987.064453125 672.00390625 l 2
 981.731445312 672.00390625 977.3984375 673.670898438 974.065429688 677.00390625 c 0
 970.732421875 680.336914062 969.065429688 684.669921875 969.065429688 690.002929688 c 0
 969.065429688 695.3359375 970.732421875 699.668945312 974.065429688 703.001953125 c 0
 977.3984375 706.334960938 981.731445312 708.001953125 987.064453125 708.001953125 c 2
 1040.06445312 708.001953125 l 2
 1045.39746094 708.001953125 1049.73046875 706.334960938 1053.06347656 703.001953125 c 0
 1056.39648438 699.668945312 1058.06347656 695.3359375 1058.06347656 690.002929688 c 0
951.063476562 797.002929688 m 2
 951.063476562 743.002929688 l 2
 951.063476562 738.3359375 949.396484375 734.3359375 946.063476562 731.002929688 c 0
 942.73046875 727.669921875 938.397460938 726.002929688 933.064453125 726.002929688 c 0
 927.731445312 726.002929688 923.3984375 727.669921875 920.065429688 731.002929688 c 0
 916.732421875 734.3359375 915.065429688 738.3359375 915.065429688 743.002929688 c 2
 915.065429688 797.002929688 l 2
 915.065429688 802.3359375 916.732421875 806.668945312 920.065429688 810.001953125 c 0
 923.3984375 813.334960938 927.731445312 815.001953125 933.064453125 815.001953125 c 0
 938.397460938 815.001953125 942.73046875 813.334960938 946.063476562 810.001953125 c 0
 949.396484375 806.668945312 951.063476562 802.3359375 951.063476562 797.002929688 c 2
1035.06347656 766.002929688 m 2
 984.064453125 716.001953125 l 2
 980.731445312 712.668945312 976.731445312 711.001953125 972.064453125 711.001953125 c 0
 967.397460938 711.001953125 963.397460938 712.668945312 960.064453125 716.001953125 c 0
 956.731445312 719.334960938 954.731445312 723.66796875 954.064453125 729.000976562 c 0
 953.397460938 734.333984375 955.064453125 738.333984375 959.064453125 741.000976562 c 2
 1009.06445312 792.000976562 l 2
 1013.06445312 795.333984375 1017.39746094 797.000976562 1022.06445312 797.000976562 c 0
 1026.73144531 797.000976562 1031.06445312 795.333984375 1035.06445312 792.000976562 c 0
 1039.06445312 788.66796875 1040.73144531 784.334960938 1040.06445312 779.001953125 c 0
 1039.39746094 773.668945312 1037.73046875 769.3359375 1035.06347656 766.002929688 c 2
EndSplineSet
Validated: 33
EndChar

StartChar: nine
Encoding: 57 57 26
Width: 1045
Flags: W
LayerCount: 2
Fore
SplineSet
973.01171875 523 m 0
 987.678710938 501.666992188 991.00390625 477.662109375 983.00390625 450.995117188 c 2
 829.00390625 -54.0048828125 l 2
 822.336914062 -78.0048828125 808.336914062 -98.0048828125 787.00390625 -114.004882812 c 0
 765.670898438 -130.004882812 742.670898438 -138.337890625 718.00390625 -139.004882812 c 2
 203.00390625 -139.004882812 l 2
 174.336914062 -139.004882812 146.669921875 -129.004882812 120.002929688 -109.004882812 c 0
 93.3359375 -89.0048828125 75.0029296875 -64.337890625 65.0029296875 -35.0048828125 c 0
 55.669921875 -10.337890625 55.3369140625 13.3291015625 64.00390625 35.99609375 c 1
 65.00390625 50.99609375 l 2
 65.6708984375 59.6630859375 66.6708984375 66.330078125 68.00390625 70.9970703125 c 0
 68.00390625 74.330078125 67.3369140625 78.330078125 66.00390625 82.9970703125 c 0
 64.6708984375 87.6640625 64.00390625 91.3310546875 64.00390625 93.998046875 c 0
 64.6708984375 97.998046875 66.337890625 101.998046875 69.0048828125 105.998046875 c 2
 87.0048828125 131.998046875 l 2
 95.671875 145.998046875 104.004882812 162.998046875 112.004882812 182.998046875 c 0
 120.004882812 202.998046875 125.671875 219.998046875 129.004882812 233.998046875 c 0
 130.337890625 237.998046875 130.337890625 243.665039062 129.004882812 250.998046875 c 0
 127.671875 258.331054688 127.671875 263.998046875 129.004882812 267.998046875 c 0
 130.337890625 271.998046875 133.337890625 276.665039062 138.004882812 281.998046875 c 2
 148.004882812 294.998046875 l 2
 156.004882812 308.331054688 163.671875 325.331054688 171.004882812 345.998046875 c 0
 178.337890625 366.665039062 183.004882812 383.665039062 185.004882812 396.998046875 c 0
 185.671875 400.331054688 185.338867188 405.998046875 184.005859375 413.998046875 c 0
 182.672851562 421.998046875 182.672851562 427.331054688 184.005859375 429.998046875 c 0
 185.338867188 434.665039062 189.338867188 440.33203125 196.005859375 446.999023438 c 2
 209.005859375 459.999023438 l 2
 215.672851562 469.33203125 223.33984375 484.999023438 232.006835938 506.999023438 c 0
 240.673828125 528.999023438 246.006835938 546.999023438 248.006835938 560.999023438 c 0
 248.006835938 563.666015625 247.33984375 568.333007812 246.006835938 575 c 0
 244.673828125 581.666992188 244.340820312 586.666992188 245.0078125 590 c 0
 245.674804688 593.333007812 247.341796875 596.666015625 250.008789062 599.999023438 c 2
 260.008789062 612.999023438 l 1
 270.008789062 623.999023438 l 1
 279.008789062 640.999023438 l 2
 282.341796875 647.666015625 285.008789062 654.333007812 287.008789062 661 c 0
 289.008789062 667.666992188 292.008789062 674.333984375 296.008789062 681.000976562 c 2
 307.008789062 699.000976562 l 2
 310.341796875 704.333984375 315.341796875 708.666992188 322.008789062 712 c 0
 328.67578125 715.333007812 335.342773438 717.333007812 342.009765625 718 c 0
 348.676757812 718.666992188 357.34375 717.666992188 368.010742188 715 c 1
 368.010742188 714 l 1
 382.010742188 717.333007812 391.34375 719 396.010742188 719 c 2
 821.010742188 719 l 2
 848.34375 719 869.34375 708.333007812 884.010742188 687 c 0
 898.677734375 665.666992188 902.010742188 641.666992188 894.010742188 615 c 2
 742.010742188 109 l 2
 728.677734375 65 715.344726562 36.6669921875 702.01171875 24 c 0
 688.678710938 11.3330078125 664.678710938 4.666015625 630.01171875 3.9990234375 c 2
 145.01171875 3.9990234375 l 2
 135.01171875 3.9990234375 128.01171875 1.33203125 124.01171875 -4.0009765625 c 0
 120.01171875 -9.333984375 119.678710938 -17.333984375 123.01171875 -28.0009765625 c 0
 132.344726562 -54.0009765625 159.344726562 -67.0009765625 204.01171875 -67.0009765625 c 2
 719.01171875 -67.0009765625 l 2
 729.678710938 -67.0009765625 740.01171875 -64.0009765625 750.01171875 -58.0009765625 c 0
 760.01171875 -52.0009765625 766.344726562 -44.333984375 769.01171875 -35.0009765625 c 2
 937.01171875 514.999023438 l 2
 939.678710938 523.666015625 940.678710938 534.333007812 940.01171875 547 c 1
 954.01171875 541.666992188 965.01171875 533.666992188 973.01171875 523 c 0
379.00390625 521.995117188 m 2
 377.670898438 517.328125 378.006835938 513.328125 380.006835938 509.995117188 c 0
 382.006835938 506.662109375 385.673828125 504.662109375 391.006835938 503.995117188 c 2
 730.006835938 503.995117188 l 2
 735.33984375 503.995117188 740.33984375 505.995117188 745.006835938 509.995117188 c 0
 749.673828125 513.995117188 752.673828125 517.995117188 754.006835938 521.995117188 c 2
 766.006835938 557.995117188 l 2
 767.33984375 562.662109375 766.672851562 566.662109375 764.005859375 569.995117188 c 0
 761.338867188 573.328125 757.671875 575.328125 753.004882812 575.995117188 c 2
 414.004882812 575.995117188 l 2
 409.337890625 575.995117188 404.670898438 573.995117188 400.00390625 569.995117188 c 0
 395.336914062 565.995117188 392.336914062 561.995117188 391.00390625 557.995117188 c 2
 379.00390625 521.995117188 l 2
333.006835938 378.995117188 m 2
 331.006835938 374.328125 331.338867188 370.327148438 334.005859375 366.994140625 c 0
 336.672851562 363.661132812 340.33984375 361.661132812 345.006835938 360.994140625 c 2
 684.006835938 360.994140625 l 2
 688.673828125 360.994140625 693.340820312 362.994140625 698.0078125 366.994140625 c 0
 702.674804688 370.994140625 706.0078125 374.994140625 708.0078125 378.994140625 c 2
 719.0078125 414.994140625 l 2
 721.0078125 419.661132812 720.674804688 423.994140625 718.0078125 427.994140625 c 0
 715.340820312 431.994140625 711.673828125 433.661132812 707.006835938 432.994140625 c 2
 368.006835938 432.994140625 l 2
 362.673828125 432.994140625 358.006835938 431.327148438 354.006835938 427.994140625 c 0
 350.006835938 424.661132812 346.673828125 420.328125 344.006835938 414.995117188 c 2
 333.006835938 378.995117188 l 2
EndSplineSet
Validated: 33
EndChar

StartChar: colon
Encoding: 58 58 27
Width: 1048
Flags: W
LayerCount: 2
Fore
SplineSet
630.515625 404 m 2
 630.516601562 368.001953125 l 2
 630.516601562 363.334960938 628.849609375 359.001953125 625.516601562 355.001953125 c 0
 622.18359375 351.001953125 618.18359375 349.334960938 613.516601562 350.001953125 c 2
 488.516601562 350.001953125 l 1
 488.516601562 225.001953125 l 2
 488.516601562 220.334960938 486.516601562 216.001953125 482.516601562 212.001953125 c 0
 478.516601562 208.001953125 474.516601562 206.334960938 470.516601562 207.001953125 c 2
 434.516601562 207.001953125 l 2
 429.849609375 207.001953125 425.516601562 208.668945312 421.516601562 212.001953125 c 0
 417.516601562 215.334960938 415.849609375 219.66796875 416.516601562 225.000976562 c 2
 416.516601562 350.000976562 l 1
 291.516601562 350.000976562 l 2
 286.849609375 350.000976562 282.849609375 351.66796875 279.516601562 355.000976562 c 0
 276.18359375 358.333984375 274.18359375 362.666992188 273.516601562 368 c 2
 273.516601562 404 l 2
 273.516601562 408.666992188 275.516601562 412.666992188 279.516601562 416 c 0
 283.516601562 419.333007812 287.516601562 421 291.516601562 421 c 2
 416.516601562 421 l 1
 416.516601562 546 l 2
 416.516601562 551.333007812 418.18359375 555.666015625 421.516601562 558.999023438 c 0
 424.849609375 562.33203125 429.182617188 563.999023438 434.515625 563.999023438 c 2
 470.515625 563.999023438 l 2
 475.182617188 563.999023438 479.182617188 562.33203125 482.515625 558.999023438 c 0
 485.848632812 555.666015625 487.848632812 551.333007812 488.515625 546 c 2
 488.515625 421 l 1
 613.515625 421 l 2
 618.182617188 421 622.182617188 419.333007812 625.515625 416 c 0
 628.848632812 412.666992188 630.515625 408.666992188 630.515625 404 c 2
702.516601562 386.001953125 m 0
 702.516601562 454.668945312 677.848632812 513.333984375 628.515625 562.000976562 c 0
 579.182617188 610.66796875 520.515625 635.334960938 452.515625 636.001953125 c 0
 384.515625 636.668945312 325.515625 612.001953125 275.515625 562.001953125 c 0
 225.515625 512.001953125 201.182617188 453.334960938 202.515625 386.001953125 c 0
 203.848632812 318.668945312 228.181640625 259.668945312 275.514648438 209.001953125 c 0
 322.84765625 158.334960938 381.84765625 134.001953125 452.514648438 136.001953125 c 0
 523.181640625 138.001953125 581.848632812 162.334960938 628.515625 209.001953125 c 0
 675.182617188 255.668945312 699.849609375 314.668945312 702.516601562 386.001953125 c 0
988.515625 -79 m 0
 988.515625 -98.3330078125 981.514648438 -114.999023438 967.514648438 -128.999023438 c 0
 953.514648438 -142.999023438 936.514648438 -149.999023438 916.514648438 -149.999023438 c 0
 896.514648438 -149.999023438 879.84765625 -142.999023438 866.514648438 -128.999023438 c 2
 675.514648438 62.0009765625 l 1
 608.84765625 16.0009765625 534.514648438 -6.9990234375 452.514648438 -6.9990234375 c 0
 399.181640625 -6.9990234375 348.181640625 3.333984375 299.514648438 24.0009765625 c 0
 250.84765625 44.66796875 209.180664062 72.66796875 174.513671875 108.000976562 c 0
 139.846679688 143.333984375 111.846679688 185.000976562 90.513671875 233.000976562 c 0
 69.1806640625 281.000976562 58.84765625 332.000976562 59.5146484375 386.000976562 c 0
 60.181640625 440.000976562 70.5146484375 490.66796875 90.5146484375 538.000976562 c 0
 110.514648438 585.333984375 138.514648438 627.333984375 174.514648438 664.000976562 c 0
 210.514648438 700.66796875 252.181640625 728.66796875 299.514648438 748.000976562 c 0
 346.84765625 767.333984375 397.84765625 777.666992188 452.514648438 779 c 0
 507.181640625 780.333007812 557.848632812 770 604.515625 748 c 0
 651.182617188 726 693.182617188 698 730.515625 664 c 0
 767.848632812 630 795.848632812 588 814.515625 538 c 0
 833.182617188 488 843.515625 437.333007812 845.515625 386 c 0
 845.515625 304 822.515625 229.666992188 776.515625 163 c 1
 967.515625 -28 l 2
 981.515625 -42 988.515625 -59 988.515625 -79 c 0
EndSplineSet
Validated: 33
EndChar

StartChar: semicolon
Encoding: 59 59 28
Width: 987
Flags: W
LayerCount: 2
Fore
SplineSet
907.857421875 201 m 2
 907.860351562 197 l 1
 883.860351562 97 833.860351562 16 757.860351562 -46 c 0
 681.860351562 -108 592.860351562 -139 490.860351562 -139 c 0
 436.860351562 -139 384.52734375 -128.666992188 333.860351562 -108 c 0
 283.193359375 -87.3330078125 237.860351562 -58 197.860351562 -20 c 1
 125.860351562 -92 l 2
 118.52734375 -99.3330078125 110.194335938 -103 100.861328125 -103 c 0
 91.5283203125 -103 83.1953125 -99.3330078125 75.8623046875 -92 c 0
 68.529296875 -84.6669921875 64.8623046875 -76.333984375 64.8623046875 -67.0009765625 c 2
 64.8623046875 182.999023438 l 2
 64.8623046875 192.33203125 68.529296875 200.665039062 75.8623046875 207.998046875 c 0
 83.1953125 215.331054688 91.5283203125 218.998046875 100.861328125 218.998046875 c 2
 350.861328125 218.998046875 l 2
 360.194335938 218.998046875 368.52734375 215.331054688 375.860351562 207.998046875 c 0
 383.193359375 200.665039062 386.526367188 192.33203125 385.859375 182.999023438 c 0
 385.192382812 173.666015625 381.859375 165.333007812 375.859375 158 c 2
 298.859375 81 l 1
 325.526367188 56.3330078125 355.526367188 37.3330078125 388.859375 24 c 0
 422.192382812 10.6669921875 457.192382812 4 493.859375 4 c 0
 543.192382812 4 589.525390625 16.3330078125 632.858398438 41 c 0
 676.19140625 65.6669921875 710.858398438 98.6669921875 736.858398438 140 c 0
 740.858398438 146.666992188 750.525390625 168.666992188 765.858398438 206 c 0
 769.19140625 214.666992188 774.858398438 219 782.858398438 219 c 2
 889.858398438 219 l 2
 895.19140625 219 899.524414062 217 902.857421875 213 c 0
 906.190429688 209 907.857421875 205 907.857421875 201 c 2
921.860351562 647 m 2
 921.861328125 397 l 2
 921.861328125 387.666992188 918.528320312 379.333984375 911.861328125 372.000976562 c 0
 905.194335938 364.66796875 896.52734375 361.000976562 885.860351562 361.000976562 c 2
 635.860351562 361.000976562 l 2
 626.52734375 361.000976562 618.194335938 364.66796875 610.861328125 372.000976562 c 0
 603.528320312 379.333984375 600.1953125 387.666992188 600.862304688 397 c 0
 601.529296875 406.333007812 604.862304688 414.666015625 610.862304688 421.999023438 c 2
 687.862304688 498.999023438 l 1
 633.1953125 550.33203125 568.528320312 575.999023438 493.861328125 575.999023438 c 0
 443.861328125 575.999023438 397.194335938 563.666015625 353.861328125 538.999023438 c 0
 310.528320312 514.33203125 275.861328125 481.33203125 249.861328125 439.999023438 c 0
 245.861328125 433.33203125 236.194335938 411.33203125 220.861328125 373.999023438 c 0
 217.528320312 365.33203125 211.861328125 360.999023438 203.861328125 360.999023438 c 2
 92.861328125 360.999023438 l 2
 88.1943359375 360.999023438 83.861328125 362.999023438 79.861328125 366.999023438 c 0
 75.861328125 370.999023438 74.1943359375 374.999023438 74.861328125 378.999023438 c 2
 74.861328125 382.999023438 l 1
 98.861328125 482.999023438 149.194335938 563.999023438 225.861328125 625.999023438 c 0
 302.528320312 687.999023438 391.861328125 718.999023438 493.861328125 718.999023438 c 0
 547.861328125 718.999023438 600.528320312 708.666015625 651.861328125 687.999023438 c 0
 703.194335938 667.33203125 748.861328125 637.999023438 788.861328125 599.999023438 c 1
 860.861328125 671.999023438 l 2
 868.194335938 679.33203125 876.52734375 682.999023438 885.860351562 682.999023438 c 0
 895.193359375 682.999023438 903.860351562 679.33203125 911.860351562 671.999023438 c 0
 919.860351562 664.666015625 923.193359375 656.333007812 921.860351562 647 c 2
EndSplineSet
Validated: 1
EndChar

StartChar: less
Encoding: 60 60 29
Width: 1125
Flags: W
LayerCount: 2
Fore
SplineSet
587.5 -129 m 2
 580.833007812 -135.666992188 572.502929688 -138.998046875 562.502929688 -138.998046875 c 0
 553.169921875 -138.998046875 544.836914062 -135.665039062 537.50390625 -128.998046875 c 2
 189.50390625 207.001953125 l 1
 174.50390625 222.001953125 l 2
 167.836914062 228.668945312 157.50390625 240.668945312 143.50390625 258.001953125 c 0
 129.50390625 275.334960938 116.836914062 293.66796875 105.50390625 313.000976562 c 0
 94.1708984375 332.333984375 84.1708984375 354.666992188 75.50390625 380 c 0
 66.8369140625 405.333007812 62.50390625 431 62.50390625 457 c 0
 62.50390625 539 86.1708984375 603 133.50390625 649 c 0
 180.836914062 695 246.169921875 718.333007812 329.502929688 719 c 0
 352.169921875 719 375.502929688 715 399.502929688 707 c 0
 423.502929688 699 445.8359375 688 466.502929688 674 c 0
 487.169921875 660 505.169921875 647.333007812 520.502929688 636 c 0
 535.8359375 624.666992188 549.8359375 612 562.502929688 598 c 1
 575.8359375 611.333007812 589.8359375 624 604.502929688 636 c 0
 619.169921875 648 637.169921875 660.666992188 658.502929688 674 c 0
 679.8359375 687.333007812 702.168945312 698.333007812 725.501953125 707 c 0
 748.834960938 715.666992188 772.16796875 719.666992188 795.500976562 719 c 0
 878.833984375 719 944.166992188 695.666992188 991.5 649 c 0
 1038.83300781 602.333007812 1062.5 538.333007812 1062.5 457 c 0
 1062.5 375.666992188 1019.83300781 292 934.5 206 c 2
 587.5 -129 l 2
EndSplineSet
Validated: 33
EndChar

StartChar: equal
Encoding: 61 61 30
Width: 1123
Flags: W
LayerCount: 2
Fore
SplineSet
1061.5 94 m 2
 1061.5 -85.001953125 l 2
 1061.5 -99.6689453125 1056.16699219 -112.3359375 1045.5 -123.002929688 c 0
 1034.83300781 -133.669921875 1022.16601562 -139.002929688 1007.49902344 -139.002929688 c 2
 829.499023438 -139.002929688 l 2
 814.83203125 -139.002929688 802.165039062 -133.669921875 791.498046875 -123.002929688 c 0
 780.831054688 -112.3359375 775.498046875 -99.6689453125 775.498046875 -85.001953125 c 2
 775.498046875 93.998046875 l 2
 775.498046875 108.665039062 780.831054688 121.33203125 791.498046875 131.999023438 c 0
 802.165039062 142.666015625 814.83203125 147.666015625 829.499023438 146.999023438 c 2
 882.499023438 146.999023438 l 1
 882.499023438 253.999023438 l 1
 597.499023438 253.999023438 l 1
 597.499023438 146.999023438 l 1
 650.499023438 146.999023438 l 2
 665.83203125 146.999023438 678.499023438 141.999023438 688.499023438 131.999023438 c 0
 698.499023438 121.999023438 703.83203125 109.33203125 704.499023438 93.9990234375 c 2
 704.499023438 -85.0009765625 l 2
 704.499023438 -99.66796875 699.166015625 -112.334960938 688.499023438 -123.001953125 c 0
 677.83203125 -133.668945312 665.165039062 -139.001953125 650.498046875 -139.001953125 c 2
 472.498046875 -139.001953125 l 2
 457.165039062 -139.001953125 444.498046875 -133.668945312 434.498046875 -123.001953125 c 0
 424.498046875 -112.334960938 419.165039062 -99.66796875 418.498046875 -85.0009765625 c 2
 418.498046875 93.9990234375 l 2
 418.498046875 108.666015625 423.831054688 121.333007812 434.498046875 132 c 0
 445.165039062 142.666992188 457.83203125 147.666992188 472.499023438 147 c 2
 525.499023438 147 l 1
 525.499023438 254 l 1
 240.499023438 254 l 1
 240.499023438 147 l 1
 293.499023438 147 l 2
 308.166015625 147 320.833007812 142 331.5 132 c 0
 342.166992188 122 347.5 109.333007812 347.5 94 c 2
 347.5 -85 l 2
 347.5 -99.6669921875 342.166992188 -112.333984375 331.5 -123.000976562 c 0
 320.833007812 -133.66796875 308.166015625 -139.000976562 293.499023438 -139.000976562 c 2
 115.499023438 -139.000976562 l 2
 100.166015625 -139.000976562 87.4990234375 -133.66796875 77.4990234375 -123.000976562 c 0
 67.4990234375 -112.333984375 62.166015625 -99.6669921875 61.4990234375 -85 c 2
 61.4990234375 94 l 2
 61.4990234375 108.666992188 66.83203125 121.333984375 77.4990234375 132.000976562 c 0
 88.166015625 142.66796875 100.833007812 147.66796875 115.5 147.000976562 c 2
 168.5 147.000976562 l 1
 168.5 254.000976562 l 2
 168.5 273.333984375 175.5 290.333984375 189.5 305.000976562 c 0
 203.5 319.66796875 220.5 326.66796875 240.5 326.000976562 c 2
 525.5 326.000976562 l 1
 525.5 433.000976562 l 1
 472.5 433.000976562 l 2
 457.166992188 433.000976562 444.5 438.000976562 434.5 448.000976562 c 0
 424.5 458.000976562 419.166992188 470.66796875 418.5 486.000976562 c 2
 418.5 665.000976562 l 2
 418.5 679.66796875 423.833007812 692.334960938 434.5 703.001953125 c 0
 445.166992188 713.668945312 457.833984375 719.001953125 472.500976562 719.001953125 c 2
 650.500976562 719.001953125 l 2
 665.833984375 719.001953125 678.500976562 713.668945312 688.500976562 703.001953125 c 0
 698.500976562 692.334960938 703.833984375 679.66796875 704.500976562 665.000976562 c 2
 704.500976562 486.000976562 l 2
 704.500976562 471.333984375 699.16796875 458.666992188 688.500976562 448 c 0
 677.833984375 437.333007812 665.166992188 432.333007812 650.5 433 c 2
 597.5 433 l 1
 597.5 326 l 1
 882.5 326 l 2
 901.833007812 326 918.833007812 319 933.5 305 c 0
 948.166992188 291 955.166992188 274 954.5 254 c 2
 954.5 147 l 1
 1007.5 147 l 2
 1022.83300781 147 1035.5 142 1045.5 132 c 0
 1055.5 122 1060.83300781 109.333007812 1061.5 94 c 2
EndSplineSet
Validated: 33
EndChar

StartChar: greater
Encoding: 62 62 31
Width: 878
Flags: W
LayerCount: 2
Fore
SplineSet
197.5 263 m 1
 141.501953125 205.999023438 l 1
 125.501953125 244.666015625 117.501953125 284.666015625 117.501953125 325.999023438 c 2
 117.501953125 396.999023438 l 2
 117.501953125 406.999023438 121.168945312 415.33203125 128.501953125 421.999023438 c 0
 135.834960938 428.666015625 144.16796875 432.333007812 153.500976562 433 c 0
 162.833984375 433.666992188 171.166992188 430 178.5 422 c 0
 185.833007812 414 189.5 405.666992188 189.5 397 c 2
 189.5 326 l 2
 189.5 306 192.166992188 285 197.5 263 c 1
819.501953125 598.999023438 m 2
 617.499023438 397.000976562 l 1
 617.499023438 326.000976562 l 2
 617.499023438 276.66796875 600.166015625 234.66796875 565.499023438 200.000976562 c 0
 530.83203125 165.333984375 488.83203125 147.666992188 439.499023438 147 c 0
 418.83203125 147 398.499023438 150.666992188 378.499023438 158 c 1
 324.499023438 104 l 1
 361.166015625 85.3330078125 399.499023438 76 439.499023438 76 c 0
 508.166015625 76 566.833007812 100.333007812 615.5 149 c 0
 664.166992188 197.666992188 688.833984375 256.666992188 689.500976562 326 c 2
 689.500976562 397 l 2
 689.500976562 407 692.833984375 415.333007812 699.500976562 422 c 0
 706.16796875 428.666992188 714.834960938 432.333984375 725.501953125 433.000976562 c 0
 736.168945312 433.66796875 744.501953125 430.000976562 750.501953125 422.000976562 c 0
 756.501953125 414.000976562 759.834960938 405.66796875 760.501953125 397.000976562 c 2
 760.501953125 326.000976562 l 2
 760.501953125 243.333984375 733.168945312 171.666992188 678.501953125 111 c 0
 623.834960938 50.3330078125 556.16796875 15.666015625 475.500976562 6.9990234375 c 1
 475.500976562 -67.0009765625 l 1
 617.500976562 -67.0009765625 l 2
 627.500976562 -67.0009765625 636.16796875 -70.66796875 643.500976562 -78.0009765625 c 0
 650.833984375 -85.333984375 654.166992188 -93.6669921875 653.5 -103 c 0
 652.833007812 -112.333007812 649.5 -120.666015625 643.5 -127.999023438 c 0
 637.5 -135.33203125 628.833007812 -138.999023438 617.5 -138.999023438 c 2
 260.5 -138.999023438 l 2
 251.166992188 -138.999023438 242.833984375 -135.33203125 235.500976562 -127.999023438 c 0
 228.16796875 -120.666015625 224.834960938 -112.333007812 225.501953125 -103 c 0
 226.168945312 -93.6669921875 229.501953125 -85.333984375 235.501953125 -78.0009765625 c 0
 241.501953125 -70.66796875 249.834960938 -67.0009765625 260.501953125 -67.0009765625 c 2
 403.501953125 -67.0009765625 l 1
 403.501953125 6.9990234375 l 1
 356.834960938 11.666015625 313.16796875 26.666015625 272.500976562 51.9990234375 c 1
 130.500976562 -90.0009765625 l 2
 127.16796875 -94.0009765625 122.834960938 -96.0009765625 117.501953125 -96.0009765625 c 0
 112.168945312 -96.0009765625 108.168945312 -94.0009765625 105.501953125 -90.0009765625 c 2
 59.501953125 -44.0009765625 l 2
 55.501953125 -40.66796875 53.501953125 -36.3349609375 53.501953125 -31.001953125 c 0
 53.501953125 -25.6689453125 55.501953125 -21.6689453125 59.501953125 -19.001953125 c 2
 747.501953125 669.998046875 l 2
 751.501953125 673.998046875 755.834960938 675.998046875 760.501953125 675.998046875 c 0
 765.168945312 675.998046875 769.501953125 673.998046875 773.501953125 669.998046875 c 2
 819.501953125 623.998046875 l 2
 822.834960938 620.665039062 824.501953125 616.33203125 824.501953125 610.999023438 c 0
 824.501953125 605.666015625 822.834960938 601.666015625 819.501953125 598.999023438 c 2
607.499023438 672.000976562 m 1
 260.498046875 326.002929688 l 1
 260.498046875 611.002929688 l 2
 260.498046875 660.3359375 278.165039062 702.668945312 313.498046875 738.001953125 c 0
 348.831054688 773.334960938 390.831054688 790.66796875 439.498046875 790.000976562 c 0
 477.498046875 790.000976562 511.831054688 779.000976562 542.498046875 757.000976562 c 0
 573.165039062 735.000976562 594.83203125 706.66796875 607.499023438 672.000976562 c 1
EndSplineSet
Validated: 33
EndChar

StartChar: question
Encoding: 63 63 32
Width: 763
Flags: MW
HStem: -175.979 220.319 646.982 149.039<353.42 400.94>
VStem: 251.9 224.64 271.34 172.8<163.142 165.301> 504.621 190.079<508.742 537.901>
LayerCount: 2
Fore
SplineSet
601.8203125 729.061523438 m 0xe8
 662.299804688 685.861328125 694.700195312 618.901367188 694.700195312 532.500976562 c 0
 694.700195312 478.500976562 675.260742188 433.140625 649.33984375 396.421875 c 0
 632.060546875 374.822265625 597.5 346.741210938 552.139648438 312.182617188 c 2
 504.62109375 277.622070312 l 2
 480.860351562 260.340820312 459.260742188 238.741210938 450.62109375 212.822265625 c 0
 446.299804688 199.861328125 444.139648438 189.061523438 444.139648438 165.30078125 c 0
 444.139648438 160.982421875 439.8203125 150.182617188 426.860351562 150.182617188 c 2
 288.62109375 150.182617188 l 2
 271.33984375 150.182617188 271.33984375 160.982421875 271.33984375 165.30078125 c 0xd8
 273.5 225.782226562 275.66015625 271.140625 299.420898438 299.221679688 c 0
 342.62109375 348.901367188 439.8203125 411.541015625 439.8203125 411.541015625 c 2
 452.779296875 422.340820312 465.739257812 433.140625 474.37890625 448.26171875 c 0
 491.66015625 469.861328125 504.62109375 495.782226562 504.62109375 521.701171875 c 0
 504.62109375 554.1015625 495.979492188 582.182617188 476.540039062 608.1015625 c 0
 459.260742188 634.021484375 424.700195312 646.982421875 377.1796875 646.982421875 c 0
 329.66015625 646.982421875 295.099609375 629.701171875 275.66015625 599.461914062 c 0
 256.220703125 567.061523438 245.420898438 534.661132812 245.420898438 500.1015625 c 1
 68.2998046875 500.1015625 l 1
 72.62109375 616.741210938 113.66015625 700.982421875 189.260742188 748.500976562 c 0
 238.939453125 780.901367188 299.420898438 796.021484375 368.540039062 796.021484375 c 0
 461.420898438 796.021484375 539.1796875 774.421875 601.8203125 729.061523438 c 0xe8
366.37890625 44.3408203125 m 0
 431.1796875 42.1826171875 478.700195312 -3.177734375 476.540039062 -70.138671875 c 0
 474.37890625 -137.098632812 424.700195312 -178.138671875 359.900390625 -175.978515625 c 0
 299.420898438 -173.817382812 249.739257812 -130.618164062 251.900390625 -63.6591796875 c 0xe8
 254.060546875 3.30078125 305.900390625 46.5009765625 366.37890625 44.3408203125 c 0
EndSplineSet
Validated: 33
EndChar

StartChar: at
Encoding: 64 64 33
Width: 1046
Flags: W
LayerCount: 2
Fore
SplineSet
629.515625 384 m 2
 629.515625 348.000976562 l 2
 629.515625 343.333984375 627.848632812 339.000976562 624.515625 335.000976562 c 0
 621.182617188 331.000976562 617.182617188 329.333984375 612.515625 330.000976562 c 2
 290.515625 330.000976562 l 2
 285.848632812 330.000976562 281.848632812 331.66796875 278.515625 335.000976562 c 0
 275.182617188 338.333984375 273.182617188 342.666992188 272.515625 348 c 2
 272.515625 384 l 2
 272.515625 388.666992188 274.515625 392.666992188 278.515625 396 c 0
 282.515625 399.333007812 286.515625 401 290.515625 401 c 2
 612.515625 401 l 2
 617.182617188 401 621.182617188 399.333007812 624.515625 396 c 0
 627.848632812 392.666992188 629.515625 388.666992188 629.515625 384 c 2
701.515625 366.000976562 m 0
 701.515625 434.66796875 676.84765625 493.333007812 627.514648438 542 c 0
 578.181640625 590.666992188 519.514648438 615.333984375 451.514648438 616.000976562 c 0
 383.514648438 616.66796875 324.514648438 592.000976562 274.514648438 542.000976562 c 0
 224.514648438 492.000976562 200.181640625 433.333984375 201.514648438 366.000976562 c 0
 202.84765625 298.66796875 227.180664062 239.66796875 274.513671875 189.000976562 c 0
 321.846679688 138.333984375 380.846679688 114.000976562 451.513671875 116.000976562 c 0
 522.180664062 118.000976562 580.84765625 142.333984375 627.514648438 189.000976562 c 0
 674.181640625 235.66796875 698.848632812 294.66796875 701.515625 366.000976562 c 0
987.514648438 -99.0009765625 m 0
 987.514648438 -118.333984375 980.513671875 -135 966.513671875 -149 c 0
 952.513671875 -163 935.513671875 -170 915.513671875 -170 c 0
 895.513671875 -170 878.846679688 -163 865.513671875 -149 c 2
 674.513671875 42 l 1
 607.846679688 -4 533.513671875 -27 451.513671875 -27 c 0
 398.180664062 -27 347.180664062 -16.6669921875 298.513671875 4 c 0
 249.846679688 24.6669921875 208.1796875 52.6669921875 173.512695312 88 c 0
 138.845703125 123.333007812 110.845703125 165 89.5126953125 213 c 0
 68.1796875 261 57.8466796875 312 58.513671875 366 c 0
 59.1806640625 420 69.513671875 470.666992188 89.513671875 518 c 0
 109.513671875 565.333007812 137.513671875 607.333007812 173.513671875 644 c 0
 209.513671875 680.666992188 251.180664062 708.666992188 298.513671875 728 c 0
 345.846679688 747.333007812 396.846679688 757.666015625 451.513671875 758.999023438 c 0
 506.180664062 760.33203125 556.84765625 749.999023438 603.514648438 727.999023438 c 0
 650.181640625 705.999023438 692.181640625 677.999023438 729.514648438 643.999023438 c 0
 766.84765625 609.999023438 794.84765625 567.999023438 813.514648438 517.999023438 c 0
 832.181640625 467.999023438 842.514648438 417.33203125 844.514648438 365.999023438 c 0
 844.514648438 283.999023438 821.514648438 209.666015625 775.514648438 142.999023438 c 1
 966.514648438 -48.0009765625 l 2
 980.514648438 -62.0009765625 987.514648438 -79.0009765625 987.514648438 -99.0009765625 c 0
EndSplineSet
Validated: 33
EndChar

StartChar: A
Encoding: 65 65 34
Width: 987
Flags: W
LayerCount: 2
Fore
SplineSet
464.809570312 12 m 1
 717.811523438 265.000976562 l 2
 725.14453125 272.333984375 728.811523438 280.666992188 728.811523438 290 c 0
 728.811523438 299.333007812 725.14453125 307.666015625 717.811523438 314.999023438 c 2
 464.811523438 567.999023438 l 2
 458.14453125 575.33203125 449.811523438 578.999023438 439.811523438 578.999023438 c 0
 429.811523438 578.999023438 421.478515625 575.33203125 414.811523438 567.999023438 c 2
 357.811523438 511.999023438 l 2
 350.478515625 504.666015625 346.811523438 495.999023438 346.811523438 485.999023438 c 0
 346.811523438 475.999023438 350.478515625 467.666015625 357.811523438 460.999023438 c 2
 528.811523438 289.999023438 l 1
 357.811523438 118.999023438 l 2
 350.478515625 111.666015625 346.811523438 103.333007812 346.811523438 94 c 0
 346.811523438 84.6669921875 350.478515625 76 357.811523438 68 c 2
 414.811523438 11 l 2
 422.14453125 4.3330078125 430.477539062 1 439.810546875 1 c 0
 449.143554688 1 457.4765625 4.3330078125 464.809570312 11 c 1
 464.809570312 12 l 1
921.811523438 290.000976562 m 0
 921.811523438 212.000976562 902.811523438 140.333984375 864.811523438 75.0009765625 c 0
 826.811523438 9.66796875 774.811523438 -42.33203125 708.811523438 -80.9990234375 c 0
 642.811523438 -119.666015625 571.14453125 -138.999023438 493.811523438 -138.999023438 c 0
 416.478515625 -138.999023438 344.478515625 -119.666015625 277.811523438 -80.9990234375 c 0
 211.14453125 -42.33203125 159.477539062 9.66796875 122.810546875 75.0009765625 c 0
 86.1435546875 140.333984375 66.810546875 212.000976562 64.810546875 290.000976562 c 0
 62.810546875 368.000976562 82.1435546875 439.66796875 122.810546875 505.000976562 c 0
 163.477539062 570.333984375 215.14453125 622.333984375 277.811523438 661.000976562 c 0
 340.478515625 699.66796875 412.478515625 719.000976562 493.811523438 719.000976562 c 0
 575.14453125 719.000976562 646.811523438 699.66796875 708.811523438 661.000976562 c 0
 770.811523438 622.333984375 822.811523438 570.333984375 864.811523438 505.000976562 c 0
 906.811523438 439.66796875 925.811523438 368.000976562 921.811523438 290.000976562 c 0
EndSplineSet
Validated: 33
EndChar

StartChar: B
Encoding: 66 66 35
Width: 916
Flags: W
LayerCount: 2
Fore
SplineSet
837.5 273 m 2
 96.5 -138.997070312 l 2
 87.8330078125 -143.6640625 80.5 -144.331054688 74.5 -140.998046875 c 0
 68.5 -137.665039062 65.5 -130.998046875 65.5 -120.998046875 c 2
 65.5 701.001953125 l 2
 65.5 710.334960938 68.5 717.001953125 74.5 721.001953125 c 0
 80.5 725.001953125 87.8330078125 724.334960938 96.5 719.001953125 c 2
 837.5 307.001953125 l 2
 846.166992188 302.334960938 850.5 296.66796875 850.5 290.000976562 c 0
 850.5 283.333984375 846.166992188 277.666992188 837.5 273 c 2
EndSplineSet
Validated: 1
EndChar

StartChar: C
Encoding: 67 67 36
Width: 987
Flags: W
LayerCount: 2
Fore
SplineSet
571.809570312 12 m 1
 628.811523438 68 l 2
 636.14453125 75.3330078125 639.811523438 84 639.811523438 94 c 0
 639.811523438 104 636.14453125 112.333007812 628.811523438 119 c 2
 457.811523438 290 l 1
 628.811523438 461 l 2
 636.14453125 468.333007812 639.811523438 476.666015625 639.811523438 485.999023438 c 0
 639.811523438 495.33203125 636.14453125 503.665039062 628.811523438 510.998046875 c 2
 571.811523438 567.998046875 l 2
 565.14453125 575.331054688 556.811523438 578.998046875 546.811523438 578.998046875 c 0
 536.811523438 578.998046875 528.478515625 575.331054688 521.811523438 567.998046875 c 2
 268.811523438 314.998046875 l 2
 261.478515625 307.665039062 257.811523438 299.33203125 257.811523438 289.999023438 c 0
 257.811523438 280.666015625 261.478515625 272.333007812 268.811523438 265 c 2
 521.811523438 11 l 2
 529.14453125 4.3330078125 537.477539062 1 546.810546875 1 c 0
 556.143554688 1 564.4765625 4.3330078125 571.809570312 11 c 1
 571.809570312 12 l 1
921.811523438 290 m 0
 921.811523438 212 902.811523438 140.333007812 864.811523438 75 c 0
 826.811523438 9.6669921875 774.811523438 -42.3330078125 708.811523438 -81 c 0
 642.811523438 -119.666992188 571.14453125 -139 493.811523438 -139 c 0
 416.478515625 -139 344.478515625 -119.666992188 277.811523438 -81 c 0
 211.14453125 -42.3330078125 159.477539062 9.6669921875 122.810546875 75 c 0
 86.1435546875 140.333007812 66.810546875 212 64.810546875 290 c 0
 62.810546875 368 82.1435546875 439.666992188 122.810546875 505 c 0
 163.477539062 570.333007812 215.14453125 622.333007812 277.811523438 661 c 0
 340.478515625 699.666992188 412.478515625 719 493.811523438 719 c 0
 575.14453125 719 646.811523438 699.666992188 708.811523438 661 c 0
 770.811523438 622.333007812 822.811523438 570.333007812 864.811523438 505 c 0
 906.811523438 439.666992188 925.811523438 368 921.811523438 290 c 0
EndSplineSet
Validated: 33
EndChar

StartChar: D
Encoding: 68 68 37
Width: 1260
Flags: W
LayerCount: 2
Fore
SplineSet
451.428710938 290 m 0
 392.095703125 290 341.426757812 310.999023438 299.426757812 352.999023438 c 0
 257.426757812 394.999023438 236.759765625 445.33203125 237.426757812 503.999023438 c 0
 238.09375 562.666015625 258.760742188 613.333007812 299.427734375 656 c 0
 340.094726562 698.666992188 390.76171875 719.666992188 451.428710938 719 c 0
 512.095703125 718.333007812 562.428710938 697.333007812 602.428710938 656 c 0
 642.428710938 614.666992188 663.428710938 564 665.428710938 504 c 0
 667.428710938 444 646.428710938 393.666992188 602.428710938 353 c 0
 558.428710938 312.333007812 508.095703125 291.333007812 451.428710938 290 c 0
987.426757812 218.999023438 m 1
 1183.42578125 218.998046875 l 2
 1188.09277344 218.998046875 1192.42578125 216.998046875 1196.42578125 212.998046875 c 0
 1200.42578125 208.998046875 1202.09277344 204.998046875 1201.42578125 200.998046875 c 2
 1201.42578125 93.998046875 l 2
 1201.42578125 88.6650390625 1199.75878906 84.33203125 1196.42578125 80.9990234375 c 0
 1193.09277344 77.666015625 1188.75976562 75.9990234375 1183.42675781 75.9990234375 c 2
 987.426757812 75.9990234375 l 1
 987.426757812 -121.000976562 l 2
 987.426757812 -125.66796875 985.426757812 -129.66796875 981.426757812 -133.000976562 c 0
 977.426757812 -136.333984375 973.426757812 -138.333984375 969.426757812 -139.000976562 c 2
 862.426757812 -139.000976562 l 2
 857.09375 -139.000976562 852.760742188 -137.000976562 849.427734375 -133.000976562 c 0
 846.094726562 -129.000976562 844.427734375 -125.000976562 844.427734375 -121.000976562 c 2
 844.427734375 75.9990234375 l 1
 647.427734375 75.9990234375 l 2
 642.760742188 75.9990234375 638.760742188 77.666015625 635.427734375 80.9990234375 c 0
 632.094726562 84.33203125 630.094726562 88.6650390625 629.427734375 93.998046875 c 2
 629.427734375 200.998046875 l 2
 629.427734375 205.665039062 631.427734375 209.665039062 635.427734375 212.998046875 c 0
 639.427734375 216.331054688 643.427734375 218.331054688 647.427734375 218.998046875 c 2
 844.427734375 218.998046875 l 1
 844.427734375 414.998046875 l 2
 844.427734375 419.665039062 846.094726562 423.998046875 849.427734375 427.998046875 c 0
 852.760742188 431.998046875 857.09375 433.665039062 862.426757812 432.998046875 c 2
 969.426757812 432.998046875 l 2
 974.09375 432.998046875 978.09375 431.331054688 981.426757812 427.998046875 c 0
 984.759765625 424.665039062 986.759765625 420.33203125 987.426757812 414.999023438 c 2
 987.426757812 218.999023438 l 1
576.42578125 93.998046875 m 2
 576.42578125 74.6650390625 583.427734375 57.6640625 597.427734375 42.9970703125 c 0
 611.427734375 28.330078125 628.094726562 21.330078125 647.427734375 21.9970703125 c 2
 790.427734375 21.9970703125 l 1
 790.427734375 -111.002929688 l 1
 765.094726562 -129.669921875 733.427734375 -139.002929688 695.427734375 -139.002929688 c 2
 207.427734375 -139.002929688 l 2
 162.760742188 -139.002929688 126.760742188 -126.002929688 99.427734375 -100.002929688 c 0
 72.0947265625 -74.0029296875 58.427734375 -38.669921875 58.427734375 5.9970703125 c 0
 58.427734375 25.9970703125 59.0947265625 45.330078125 60.427734375 63.9970703125 c 0
 61.7607421875 82.6640625 64.427734375 102.997070312 68.427734375 124.997070312 c 0
 72.427734375 146.997070312 77.427734375 166.997070312 83.427734375 184.997070312 c 0
 89.427734375 202.997070312 97.427734375 221.330078125 107.427734375 239.997070312 c 0
 117.427734375 258.6640625 128.760742188 273.6640625 141.427734375 284.997070312 c 0
 154.094726562 296.330078125 170.094726562 306.330078125 189.427734375 314.997070312 c 0
 208.760742188 323.6640625 229.427734375 327.331054688 251.427734375 325.998046875 c 0
 258.760742188 325.998046875 266.09375 322.665039062 273.426757812 315.998046875 c 0
 302.759765625 293.331054688 331.426757812 276.331054688 359.426757812 264.998046875 c 0
 387.426757812 253.665039062 418.09375 247.998046875 451.426757812 247.998046875 c 0
 484.759765625 247.998046875 515.426757812 253.665039062 543.426757812 264.998046875 c 0
 571.426757812 276.331054688 600.09375 293.331054688 629.426757812 315.998046875 c 0
 636.759765625 322.665039062 644.092773438 325.998046875 651.42578125 325.998046875 c 0
 700.092773438 325.998046875 740.42578125 307.998046875 772.42578125 271.998046875 c 1
 647.42578125 271.998046875 l 2
 628.092773438 271.998046875 611.42578125 264.998046875 597.42578125 250.998046875 c 0
 583.42578125 236.998046875 576.42578125 220.331054688 576.42578125 200.998046875 c 2
 576.42578125 93.998046875 l 2
EndSplineSet
Validated: 33
EndChar

StartChar: E
Encoding: 69 69 38
Width: 1126
Flags: W
LayerCount: 2
Fore
SplineSet
420 340 m 0
 420 320 412.999023438 303.33203125 398.999023438 289.999023438 c 0
 384.999023438 276.666015625 368.33203125 269.666015625 348.999023438 268.999023438 c 0
 329.666015625 268.33203125 312.666015625 275.33203125 297.999023438 289.999023438 c 0
 283.33203125 304.666015625 276.33203125 321.333007812 276.999023438 340 c 0
 277.666015625 358.666992188 284.666015625 375.666992188 297.999023438 391 c 0
 311.33203125 406.333007812 328.33203125 413 348.999023438 411 c 0
 369.666015625 409 386.333007812 402.333007812 399 391 c 0
 411.666992188 379.666992188 418.666992188 362.666992188 420 340 c 0
633.999023438 339.999023438 m 0
 633.999023438 319.999023438 627.333007812 303.331054688 614 289.998046875 c 0
 600.666992188 276.665039062 583.666992188 269.665039062 563 268.998046875 c 0
 542.333007812 268.331054688 525.666015625 275.331054688 512.999023438 289.998046875 c 0
 500.33203125 304.665039062 493.33203125 321.33203125 491.999023438 339.999023438 c 0
 490.666015625 358.666015625 497.666015625 375.666015625 512.999023438 390.999023438 c 0
 528.33203125 406.33203125 544.999023438 412.999023438 562.999023438 410.999023438 c 0
 580.999023438 408.999023438 597.999023438 402.33203125 613.999023438 390.999023438 c 0
 629.999023438 379.666015625 636.666015625 362.666015625 633.999023438 339.999023438 c 0
849 339.998046875 m 0
 849 319.998046875 841.999023438 303.330078125 827.999023438 289.997070312 c 0
 813.999023438 276.6640625 796.999023438 269.6640625 776.999023438 268.997070312 c 0
 756.999023438 268.330078125 740.33203125 275.330078125 726.999023438 289.997070312 c 0
 713.666015625 304.6640625 706.666015625 321.331054688 705.999023438 339.998046875 c 0
 705.33203125 358.665039062 712.33203125 375.665039062 726.999023438 390.998046875 c 0
 741.666015625 406.331054688 758.333007812 412.998046875 777 410.998046875 c 0
 795.666992188 408.998046875 812.666992188 402.331054688 828 390.998046875 c 0
 843.333007812 379.665039062 850.333007812 362.665039062 849 339.998046875 c 0
562.999023438 625.997070312 m 0
 486.999023438 625.997070312 415.998046875 612.997070312 349.998046875 586.997070312 c 0
 283.998046875 560.997070312 231.665039062 525.997070312 192.998046875 481.997070312 c 0
 154.331054688 437.997070312 134.6640625 390.6640625 133.997070312 339.997070312 c 0
 133.997070312 298.6640625 147.330078125 258.997070312 173.997070312 220.997070312 c 0
 200.6640625 182.997070312 238.331054688 150.330078125 286.998046875 122.997070312 c 2
 334.998046875 94.9970703125 l 1
 319.998046875 41.9970703125 l 2
 311.331054688 7.9970703125 298.331054688 -24.3359375 280.998046875 -55.0029296875 c 1
 337.665039062 -31.0029296875 388.998046875 0.9970703125 434.998046875 40.9970703125 c 2
 458.998046875 61.9970703125 l 1
 490.998046875 58.9970703125 l 2
 516.331054688 55.6640625 540.331054688 53.9970703125 562.998046875 53.9970703125 c 0
 638.998046875 53.9970703125 709.998046875 66.9970703125 775.998046875 92.9970703125 c 0
 841.998046875 118.997070312 894.331054688 153.997070312 932.998046875 197.997070312 c 0
 971.665039062 241.997070312 991.33203125 289.330078125 991.999023438 339.997070312 c 0
 992.666015625 390.6640625 972.999023438 437.997070312 932.999023438 481.997070312 c 0
 892.999023438 525.997070312 840.666015625 560.997070312 775.999023438 586.997070312 c 0
 711.33203125 612.997070312 640.33203125 625.997070312 562.999023438 625.997070312 c 0
1062.99804688 339.997070312 m 0
 1062.99804688 275.330078125 1040.6640625 215.666992188 995.997070312 161 c 0
 951.330078125 106.333007812 890.663085938 63 813.99609375 31 c 0
 737.329101562 -1 653.662109375 -17 562.995117188 -17 c 0
 536.995117188 -17 509.995117188 -15.6669921875 481.995117188 -13 c 1
 408.662109375 -77.6669921875 322.995117188 -122.666992188 224.995117188 -148 c 0
 206.995117188 -153.333007812 185.995117188 -157.333007812 161.995117188 -160 c 2
 158.995117188 -160 l 2
 153.662109375 -160 148.662109375 -158 143.995117188 -154 c 0
 139.328125 -150 136.328125 -145 134.995117188 -139 c 2
 134.995117188 -138 l 2
 133.662109375 -136.666992188 133.662109375 -134.666992188 134.995117188 -132 c 0
 136.328125 -129.333007812 136.661132812 -127.333007812 135.994140625 -126 c 0
 135.327148438 -124.666992188 135.994140625 -123 137.994140625 -121 c 2
 149.994140625 -106 l 2
 152.661132812 -102.666992188 158.328125 -96.333984375 166.995117188 -87.0009765625 c 2
 186.995117188 -65.0009765625 l 2
 191.662109375 -59.66796875 197.329101562 -52.3349609375 203.99609375 -43.001953125 c 0
 210.663085938 -33.6689453125 216.663085938 -24.3359375 221.99609375 -15.0029296875 c 0
 227.329101562 -5.669921875 232.329101562 5.330078125 236.99609375 17.9970703125 c 2
 251.99609375 59.9970703125 l 1
 193.329101562 93.330078125 147.329101562 134.330078125 113.99609375 182.997070312 c 0
 80.6630859375 231.6640625 63.6630859375 283.997070312 62.99609375 339.997070312 c 0
 62.99609375 388.6640625 76.3291015625 434.997070312 102.99609375 478.997070312 c 0
 129.663085938 522.997070312 164.99609375 560.997070312 208.99609375 592.997070312 c 0
 252.99609375 624.997070312 306.329101562 650.330078125 368.99609375 668.997070312 c 0
 431.663085938 687.6640625 496.330078125 696.997070312 562.997070312 696.997070312 c 0
 629.6640625 696.997070312 694.331054688 687.6640625 756.998046875 668.997070312 c 0
 819.665039062 650.330078125 872.998046875 624.997070312 916.998046875 592.997070312 c 0
 960.998046875 560.997070312 996.331054688 522.997070312 1022.99804688 478.997070312 c 0
 1049.66503906 434.997070312 1062.99804688 388.6640625 1062.99804688 339.997070312 c 0
EndSplineSet
Validated: 33
EndChar

StartChar: F
Encoding: 70 70 39
Width: 1011
Flags: MW
HStem: -67.5 21G 347.775 95.55 507.27 160.23
VStem: 58.2525 894.495 89.8575 223.44 696.967 223.44
LayerCount: 2
Fore
SplineSet
697.702148438 300 m 0xf0
 697.702148438 313.23046875 692.924804688 324.500976562 683.370117188 333.810546875 c 0
 673.814453125 343.120117188 662.421875 347.775390625 649.192382812 347.775390625 c 2
 361.807617188 347.775390625 l 2
 348.578125 347.775390625 337.30859375 343.120117188 327.999023438 333.810546875 c 0
 318.689453125 324.500976562 314.034179688 313.23046875 314.034179688 300 c 0
 314.034179688 286.76953125 318.689453125 275.499023438 327.999023438 266.189453125 c 0
 337.30859375 256.879882812 348.578125 252.224609375 361.807617188 252.224609375 c 2
 649.192382812 252.224609375 l 2
 662.421875 252.224609375 673.814453125 256.879882812 683.370117188 266.189453125 c 0
 692.924804688 275.499023438 697.702148438 286.76953125 697.702148438 300 c 0xf0
921.142578125 411.720703125 m 2
 921.142578125 -35.8955078125 l 2
 921.142578125 -44.224609375 917.958007812 -51.57421875 911.587890625 -57.9443359375 c 0
 905.217773438 -64.314453125 897.623046875 -67.4990234375 888.802734375 -67.4990234375 c 2
 122.197265625 -67.4990234375 l 2
 113.376953125 -67.4990234375 105.782226562 -64.314453125 99.412109375 -57.9443359375 c 0
 93.0419921875 -51.57421875 89.857421875 -44.224609375 89.857421875 -35.8955078125 c 2xec
 89.857421875 411.720703125 l 2
 89.857421875 420.540039062 93.0419921875 428.134765625 99.412109375 434.504882812 c 0
 105.782226562 440.875 113.376953125 444.060546875 122.197265625 444.060546875 c 2
 888.802734375 444.060546875 l 2
 897.623046875 444.060546875 905.217773438 440.875 911.587890625 434.504882812 c 0
 917.958007812 428.134765625 921.142578125 420.540039062 921.142578125 411.720703125 c 2
952.748046875 635.895507812 m 2xf0
 952.748046875 539.610351562 l 2
 952.748046875 530.790039062 949.685546875 523.317382812 943.560546875 517.192382812 c 0
 937.435546875 511.067382812 929.962890625 508.004882812 921.142578125 508.004882812 c 2
 89.857421875 508.004882812 l 2xec
 81.52734375 508.004882812 74.177734375 511.067382812 67.8076171875 517.192382812 c 0
 61.4375 523.317382812 58.251953125 530.790039062 58.251953125 539.610351562 c 2xf0
 58.251953125 635.895507812 l 2
 58.251953125 644.224609375 61.4375 651.57421875 67.8076171875 657.944335938 c 0
 74.177734375 664.314453125 81.52734375 667.499023438 89.857421875 667.499023438 c 2xec
 921.142578125 667.499023438 l 2
 929.962890625 667.499023438 937.435546875 664.314453125 943.560546875 657.944335938 c 0
 949.685546875 651.57421875 952.748046875 644.224609375 952.748046875 635.895507812 c 2xf0
EndSplineSet
Validated: 1
EndChar

StartChar: G
Encoding: 71 71 40
Width: 978
Flags: W
LayerCount: 2
Fore
SplineSet
476.458007812 239 m 2
 479.791015625 235 481.4609375 230.666992188 481.4609375 226 c 0
 481.4609375 220.666992188 479.793945312 216.333984375 476.4609375 213.000976562 c 2
 291.4609375 28.0009765625 l 1
 371.4609375 -52.9990234375 l 2
 378.127929688 -59.666015625 381.4609375 -67.9990234375 381.4609375 -77.9990234375 c 0
 381.4609375 -87.9990234375 378.127929688 -96.33203125 371.4609375 -102.999023438 c 0
 364.793945312 -109.666015625 356.4609375 -113.333007812 346.4609375 -114 c 2
 96.4609375 -114 l 2
 86.4609375 -114 78.1279296875 -110.333007812 71.4609375 -103 c 0
 64.7939453125 -95.6669921875 61.126953125 -87.333984375 60.4599609375 -78.0009765625 c 2
 60.4599609375 171.999023438 l 2
 60.4599609375 181.999023438 64.126953125 190.33203125 71.4599609375 196.999023438 c 0
 78.79296875 203.666015625 87.1259765625 207.333007812 96.458984375 208 c 0
 105.791992188 208.666992188 114.125 205 121.458007812 197 c 2
 201.458007812 117 l 1
 386.458007812 302 l 2
 390.458007812 306 394.791015625 308 399.458007812 308 c 0
 404.125 308 408.458007812 306 412.458007812 302 c 2
 476.458007812 239 l 2
917.4609375 708 m 2
 917.462890625 457.999023438 l 2
 917.462890625 447.999023438 914.129882812 439.666015625 907.462890625 432.999023438 c 0
 900.795898438 426.33203125 892.12890625 422.665039062 881.461914062 421.998046875 c 0
 870.794921875 421.331054688 862.461914062 424.998046875 856.461914062 432.998046875 c 2
 776.461914062 512.998046875 l 1
 591.461914062 327.998046875 l 2
 587.461914062 323.998046875 583.12890625 321.998046875 578.461914062 321.998046875 c 0
 573.794921875 321.998046875 569.461914062 323.998046875 565.461914062 327.998046875 c 2
 501.461914062 390.998046875 l 2
 498.12890625 394.998046875 496.461914062 399.331054688 496.461914062 403.998046875 c 0
 496.461914062 408.665039062 498.12890625 412.998046875 501.461914062 416.998046875 c 2
 687.461914062 601.998046875 l 1
 606.461914062 682.998046875 l 2
 599.794921875 689.665039062 596.461914062 697.998046875 596.461914062 707.998046875 c 0
 596.461914062 717.998046875 599.794921875 726.331054688 606.461914062 732.998046875 c 0
 613.12890625 739.665039062 621.461914062 743.33203125 631.461914062 743.999023438 c 2
 881.461914062 743.999023438 l 2
 891.461914062 743.999023438 900.12890625 740.33203125 907.461914062 732.999023438 c 0
 914.794921875 725.666015625 918.127929688 717.333007812 917.4609375 708 c 2
EndSplineSet
Validated: 1
EndChar

StartChar: H
Encoding: 72 72 41
Width: 688
Flags: W
LayerCount: 2
Fore
SplineSet
623 291 m 2
 208.999023438 -123.998046875 l 2
 201.666015625 -130.665039062 193.333007812 -133.998046875 184 -133.998046875 c 0
 174.666992188 -133.998046875 166 -130.665039062 158 -123.998046875 c 2
 66 -30.998046875 l 2
 58.6669921875 -23.6650390625 55 -15.33203125 55 -5.9990234375 c 0
 55 3.333984375 58.6669921875 11.6669921875 66 19 c 2
 362 316 l 1
 66 612 l 2
 58.6669921875 619.333007812 55 627.666015625 55 636.999023438 c 0
 55 646.33203125 58.6669921875 654.665039062 66 661.998046875 c 2
 158 754.998046875 l 2
 165.333007812 761.665039062 174 764.998046875 184 764.998046875 c 0
 194 764.998046875 202.333007812 761.665039062 209 754.998046875 c 2
 623 340.998046875 l 2
 629.666992188 333.665039062 633 325.33203125 633 315.999023438 c 0
 633 306.666015625 629.666992188 298.333007812 623 291 c 2
EndSplineSet
Validated: 1
EndChar

StartChar: I
Encoding: 73 73 42
Width: 1192
Flags: W
LayerCount: 2
Fore
SplineSet
560.5 315 m 0
 560.5 354.333007812 546.5 388 518.5 416 c 0
 490.5 444 456.833007812 458 417.5 458 c 0
 378.166992188 458 344.5 444 316.5 416 c 0
 288.5 388 274.5 354.333007812 274.5 315 c 0
 274.5 275.666992188 288.5 242 316.5 214 c 0
 344.5 186 378.166992188 172 417.5 172 c 0
 456.833007812 172 490.5 186 518.5 214 c 0
 546.5 242 560.5 275.666992188 560.5 315 c 0
989.5 29 m 0
 989.5 48.3330078125 982.168945312 65.3330078125 967.501953125 80 c 0
 952.834960938 94.6669921875 936.16796875 101.666992188 917.500976562 101 c 0
 898.833984375 100.333007812 882.166992188 93.3330078125 867.5 80 c 0
 852.833007812 66.6669921875 845.833007812 49.6669921875 846.5 29 c 0
 846.5 9.6669921875 853.5 -7 867.5 -21 c 0
 881.5 -35 898.166992188 -42 917.5 -42 c 0
 936.833007812 -42 953.833007812 -35 968.5 -21 c 0
 983.166992188 -7 990.166992188 9.6669921875 989.5 29 c 0
989.501953125 601 m 0
 989.501953125 620.333007812 982.170898438 637 967.50390625 651 c 0
 952.836914062 665 936.169921875 672 917.502929688 672 c 0
 898.8359375 672 882.168945312 665 867.501953125 651 c 0
 852.834960938 637 845.834960938 620.333007812 846.501953125 601 c 0
 847.168945312 581.666992188 854.168945312 564.666992188 867.501953125 550 c 0
 880.834960938 535.333007812 897.501953125 528.333007812 917.501953125 529 c 0
 937.501953125 529.666992188 954.501953125 536.666992188 968.501953125 550 c 0
 982.501953125 563.333007812 989.501953125 580.333007812 989.501953125 601 c 0
774.50390625 366 m 2
 774.501953125 262.999023438 l 2
 774.501953125 258.999023438 773.168945312 255.33203125 770.501953125 251.999023438 c 0
 767.834960938 248.666015625 764.834960938 246.666015625 761.501953125 245.999023438 c 2
 675.501953125 231.999023438 l 1
 671.501953125 219.33203125 665.501953125 205.33203125 657.501953125 189.999023438 c 1
 670.168945312 171.999023438 686.8359375 150.666015625 707.502929688 125.999023438 c 0
 710.169921875 121.999023438 711.502929688 117.999023438 711.502929688 113.999023438 c 0
 711.502929688 109.999023438 710.169921875 106.666015625 707.502929688 103.999023438 c 0
 698.8359375 92.666015625 683.502929688 75.9990234375 661.502929688 53.9990234375 c 0
 639.502929688 31.9990234375 624.8359375 20.9990234375 617.502929688 20.9990234375 c 0
 613.502929688 20.9990234375 609.8359375 22.33203125 606.502929688 24.9990234375 c 2
 542.502929688 74.9990234375 l 1
 528.502929688 67.666015625 514.169921875 61.9990234375 499.502929688 57.9990234375 c 1
 495.502929688 17.9990234375 491.169921875 -11.0009765625 486.502929688 -29.0009765625 c 0
 483.8359375 -37.66796875 478.168945312 -42.0009765625 469.501953125 -42.0009765625 c 2
 365.501953125 -42.0009765625 l 2
 361.501953125 -42.0009765625 357.834960938 -40.66796875 354.501953125 -38.0009765625 c 0
 351.168945312 -35.333984375 349.501953125 -32.0009765625 349.501953125 -28.0009765625 c 2
 336.501953125 56.9990234375 l 1
 323.834960938 60.9990234375 309.834960938 66.9990234375 294.501953125 74.9990234375 c 1
 228.501953125 24.9990234375 l 2
 225.834960938 22.33203125 222.501953125 20.9990234375 218.501953125 20.9990234375 c 0
 214.501953125 20.9990234375 210.168945312 22.33203125 205.501953125 24.9990234375 c 0
 152.168945312 74.9990234375 125.501953125 104.999023438 125.501953125 114.999023438 c 0
 125.501953125 118.33203125 126.834960938 121.665039062 129.501953125 124.998046875 c 0
 132.834960938 130.331054688 140.501953125 140.331054688 152.501953125 154.998046875 c 0
 164.501953125 169.665039062 173.168945312 180.998046875 178.501953125 188.998046875 c 1
 169.834960938 204.998046875 163.16796875 220.331054688 158.500976562 234.998046875 c 1
 73.5009765625 247.998046875 l 2
 70.16796875 248.665039062 67.16796875 250.33203125 64.5009765625 252.999023438 c 0
 61.833984375 255.666015625 60.5009765625 259.333007812 60.5009765625 264 c 2
 60.5009765625 367 l 2
 60.5009765625 371 61.833984375 374.666992188 64.5009765625 378 c 0
 67.16796875 381.333007812 70.16796875 383.333007812 73.5009765625 384 c 2
 159.500976562 398 l 1
 164.16796875 410.666992188 170.16796875 424.666992188 177.500976562 440 c 1
 164.833984375 458 148.166992188 479.333007812 127.5 504 c 0
 124.833007812 508 123.5 512 123.5 516 c 0
 123.5 520 124.833007812 523.333007812 127.5 526 c 0
 135.5 537.333007812 150.833007812 554 173.5 576 c 0
 196.166992188 598 210.833984375 609 217.500976562 609 c 0
 221.500976562 609 225.500976562 607.666992188 229.500976562 605 c 2
 293.500976562 555 l 1
 306.16796875 561.666992188 320.500976562 567.666992188 336.500976562 573 c 1
 340.500976562 613 344.833984375 641.666992188 349.500976562 659 c 0
 351.500976562 667.666992188 356.833984375 672 365.500976562 672 c 2
 469.500976562 672 l 2
 473.500976562 672 477.16796875 670.666992188 480.500976562 668 c 0
 483.833984375 665.333007812 485.833984375 662 486.500976562 658 c 2
 499.500976562 573 l 1
 512.16796875 569 525.834960938 563.333007812 540.501953125 556 c 1
 606.501953125 605 l 2
 609.834960938 607.666992188 613.834960938 609 618.501953125 609 c 0
 623.168945312 609 626.8359375 607.666992188 629.502929688 605 c 0
 683.502929688 555 710.502929688 525 710.502929688 515 c 0
 710.502929688 511.666992188 709.169921875 508.333984375 706.502929688 505.000976562 c 2
 682.502929688 475.000976562 l 2
 671.169921875 461.000976562 662.836914062 449.66796875 657.50390625 441.000976562 c 1
 666.170898438 423.000976562 672.50390625 407.66796875 676.50390625 395.000976562 c 1
 761.50390625 383.000976562 l 2
 764.836914062 381.66796875 767.836914062 379.66796875 770.50390625 377.000976562 c 0
 773.170898438 374.333984375 774.50390625 370.666992188 774.50390625 366 c 2
1131.50195312 67.9990234375 m 2
 1131.50195312 -10.001953125 l 2
 1131.50195312 -16.001953125 1103.83496094 -21.6689453125 1048.50195312 -27.001953125 c 1
 1044.50195312 -37.001953125 1039.16894531 -46.6689453125 1032.50195312 -56.001953125 c 1
 1051.16894531 -98.001953125 1060.50195312 -123.668945312 1060.50195312 -133.001953125 c 0
 1060.50195312 -134.334960938 1059.83496094 -135.66796875 1058.50195312 -137.000976562 c 0
 1013.16894531 -163.66796875 990.168945312 -177.000976562 989.501953125 -177.000976562 c 0
 986.168945312 -177.000976562 977.501953125 -168.000976562 963.501953125 -150.000976562 c 2
 934.501953125 -113.000976562 l 1
 927.168945312 -113.66796875 921.501953125 -114.000976562 917.501953125 -114.000976562 c 0
 913.501953125 -114.000976562 907.834960938 -113.66796875 900.501953125 -113.000976562 c 1
 895.834960938 -120.333984375 886.16796875 -132.666992188 871.500976562 -150 c 0
 856.833984375 -167.333007812 848.500976562 -176.333007812 846.500976562 -177 c 0
 845.833984375 -177 822.833984375 -163.666992188 777.500976562 -137 c 0
 775.500976562 -135.666992188 774.500976562 -134.333984375 774.500976562 -133.000976562 c 0
 774.500976562 -123.66796875 784.16796875 -98.0009765625 803.500976562 -56.0009765625 c 1
 796.833984375 -46.66796875 791.166992188 -37.0009765625 786.5 -27.0009765625 c 1
 731.166992188 -21.66796875 703.5 -16.0009765625 703.5 -10.0009765625 c 2
 703.5 67.9990234375 l 2
 703.5 73.9990234375 731.166992188 79.9990234375 786.5 85.9990234375 c 1
 791.166992188 96.666015625 796.833984375 106.333007812 803.500976562 115 c 1
 784.16796875 157 774.500976562 182.666992188 774.500976562 192 c 0
 774.500976562 193.333007812 775.500976562 194.666015625 777.500976562 195.999023438 c 2
 829.500976562 225.999023438 l 2
 840.16796875 231.999023438 845.834960938 234.999023438 846.501953125 234.999023438 c 0
 849.168945312 234.999023438 857.501953125 226.33203125 871.501953125 208.999023438 c 0
 885.501953125 191.666015625 895.168945312 178.999023438 900.501953125 170.999023438 c 1
 917.501953125 171.999023438 l 1
 934.501953125 170.999023438 l 1
 953.168945312 197.666015625 970.168945312 218.666015625 985.501953125 233.999023438 c 1
 989.501953125 234.999023438 l 2
 990.834960938 234.999023438 1013.83496094 221.999023438 1058.50195312 195.999023438 c 0
 1059.83496094 194.666015625 1060.50195312 193.333007812 1060.50195312 192 c 0
 1060.50195312 182.666992188 1051.16894531 157 1032.50195312 115 c 1
 1038.50195312 106.333007812 1043.83496094 96.666015625 1048.50195312 85.9990234375 c 1
 1103.83496094 79.9990234375 1131.50195312 73.9990234375 1131.50195312 67.9990234375 c 2
1131.50195312 639.998046875 m 2
 1131.50097656 561.998046875 l 2
 1131.50097656 555.998046875 1103.83398438 549.998046875 1048.50097656 543.998046875 c 1
 1044.50097656 533.998046875 1039.16796875 524.331054688 1032.50097656 514.998046875 c 1
 1051.16796875 472.998046875 1060.50097656 447.331054688 1060.50097656 437.998046875 c 0
 1060.50097656 436.665039062 1059.83398438 435.33203125 1058.50097656 433.999023438 c 0
 1013.16796875 407.999023438 990.16796875 394.999023438 989.500976562 394.999023438 c 0
 986.16796875 394.999023438 977.500976562 403.666015625 963.500976562 420.999023438 c 0
 949.500976562 438.33203125 939.833984375 450.999023438 934.500976562 458.999023438 c 1
 927.16796875 458.33203125 921.500976562 457.999023438 917.500976562 457.999023438 c 0
 913.500976562 457.999023438 907.833984375 458.33203125 900.500976562 458.999023438 c 1
 895.833984375 450.999023438 886.166992188 438.33203125 871.5 420.999023438 c 0
 856.833007812 403.666015625 848.833007812 394.999023438 847.5 394.999023438 c 0
 846.166992188 394.999023438 822.833984375 407.999023438 777.500976562 433.999023438 c 0
 775.500976562 435.33203125 774.500976562 436.665039062 774.500976562 437.998046875 c 0
 774.500976562 447.331054688 784.16796875 472.998046875 803.500976562 514.998046875 c 1
 796.833984375 524.331054688 791.166992188 533.998046875 786.5 543.998046875 c 1
 731.166992188 549.998046875 703.5 555.998046875 703.5 561.998046875 c 2
 703.5 639.998046875 l 2
 703.5 645.998046875 731.166992188 651.665039062 786.5 656.998046875 c 1
 791.166992188 667.665039062 796.833984375 677.33203125 803.500976562 685.999023438 c 1
 784.16796875 727.999023438 774.500976562 753.666015625 774.500976562 762.999023438 c 0
 774.500976562 764.33203125 775.500976562 765.665039062 777.500976562 766.998046875 c 2
 829.500976562 796.998046875 l 2
 840.16796875 802.998046875 845.834960938 805.998046875 846.501953125 805.998046875 c 0
 849.168945312 805.998046875 857.501953125 797.331054688 871.501953125 779.998046875 c 0
 885.501953125 762.665039062 895.168945312 749.998046875 900.501953125 741.998046875 c 1
 908.501953125 743.331054688 914.168945312 743.998046875 917.501953125 743.998046875 c 0
 920.834960938 743.998046875 926.501953125 743.331054688 934.501953125 741.998046875 c 1
 953.168945312 768.665039062 970.168945312 789.665039062 985.501953125 804.998046875 c 1
 989.501953125 805.998046875 l 2
 990.834960938 805.998046875 1013.83496094 792.998046875 1058.50195312 766.998046875 c 0
 1059.83496094 765.665039062 1060.50195312 764.33203125 1060.50195312 762.999023438 c 0
 1060.50195312 753.666015625 1051.16894531 727.999023438 1032.50195312 685.999023438 c 1
 1038.50195312 677.33203125 1043.83496094 667.665039062 1048.50195312 656.998046875 c 1
 1103.83496094 651.665039062 1131.50195312 645.998046875 1131.50195312 639.998046875 c 2
EndSplineSet
Validated: 33
EndChar

StartChar: J
Encoding: 74 74 43
Width: 976
Flags: W
LayerCount: 2
Fore
SplineSet
905 537 m 2
 915 526.333007812 919.998046875 513.666015625 919.998046875 498.999023438 c 0
 919.998046875 484.33203125 914.998046875 471.665039062 904.998046875 460.998046875 c 2
 424.998046875 -19.001953125 l 2
 414.331054688 -29.001953125 401.6640625 -34.001953125 386.997070312 -34.001953125 c 0
 372.330078125 -34.001953125 359.663085938 -29.001953125 348.99609375 -19.001953125 c 2
 70.99609375 258.998046875 l 2
 60.99609375 269.665039062 55.99609375 282.33203125 55.99609375 296.999023438 c 0
 55.99609375 311.666015625 60.99609375 324.333007812 70.99609375 335 c 2
 146.99609375 411 l 2
 157.663085938 421.666992188 170.330078125 427 184.997070312 427 c 0
 199.6640625 427 212.331054688 421.666992188 222.998046875 411 c 2
 386.998046875 246 l 1
 752.998046875 613 l 2
 763.665039062 623.666992188 776.33203125 629 790.999023438 629 c 0
 805.666015625 629 818.333007812 623.666992188 829 613 c 2
 905 537 l 2
EndSplineSet
Validated: 1
EndChar

StartChar: K
Encoding: 75 75 44
Width: 1020
Flags: W
LayerCount: 2
Fore
SplineSet
254.5 9 m 0
 254.5 18.3330078125 251.16796875 26.66796875 244.500976562 34.0009765625 c 0
 237.833984375 41.333984375 229.500976562 44.6669921875 219.500976562 44 c 0
 209.500976562 43.3330078125 200.833984375 40 193.500976562 34 c 0
 186.16796875 28 182.834960938 19.6669921875 183.501953125 9 c 0
 184.168945312 -1.6669921875 187.501953125 -10.333984375 193.501953125 -17.0009765625 c 0
 199.501953125 -23.66796875 208.168945312 -27.0009765625 219.501953125 -27.0009765625 c 0
 230.834960938 -27.0009765625 239.16796875 -23.66796875 244.500976562 -17.0009765625 c 0
 249.833984375 -10.333984375 253.166992188 -1.6669921875 254.5 9 c 0
614.500976562 243.001953125 m 1
 233.500976562 -137.99609375 l 2
 219.500976562 -151.329101562 202.833984375 -157.99609375 183.500976562 -157.99609375 c 0
 164.16796875 -157.99609375 147.16796875 -151.329101562 132.500976562 -137.99609375 c 2
 73.5009765625 -76.99609375 l 2
 59.5009765625 -63.6630859375 52.5009765625 -47.330078125 52.5009765625 -27.9970703125 c 0
 52.5009765625 -8.6640625 59.5009765625 8.6689453125 73.5009765625 24.001953125 c 2
 453.500976562 404.001953125 l 1
 468.16796875 367.334960938 489.500976562 335.001953125 517.500976562 307.001953125 c 0
 545.500976562 279.001953125 577.833984375 257.668945312 614.500976562 243.001953125 c 1
967.500976562 486.00390625 m 0
 967.500976562 471.336914062 963.501953125 451.670898438 955.501953125 427.00390625 c 0
 937.501953125 377.00390625 906.834960938 336.336914062 863.501953125 305.00390625 c 0
 820.168945312 273.670898438 772.168945312 258.337890625 719.501953125 259.004882812 c 0
 650.168945312 259.004882812 591.168945312 283.337890625 542.501953125 332.004882812 c 0
 493.834960938 380.671875 469.501953125 439.671875 469.501953125 509.004882812 c 0
 469.501953125 578.337890625 493.834960938 637.004882812 542.501953125 685.004882812 c 0
 591.168945312 733.004882812 650.168945312 757.671875 719.501953125 759.004882812 c 0
 740.834960938 759.004882812 763.16796875 755.671875 786.500976562 749.004882812 c 0
 809.833984375 742.337890625 829.833984375 733.670898438 846.500976562 723.00390625 c 0
 852.500976562 719.00390625 855.500976562 714.00390625 855.500976562 708.00390625 c 0
 855.500976562 702.00390625 852.500976562 696.670898438 846.500976562 692.00390625 c 2
 683.500976562 598.00390625 l 1
 683.500976562 473.00390625 l 1
 791.500976562 413.00390625 l 2
 792.833984375 414.336914062 807.500976562 423.336914062 835.500976562 440.00390625 c 2
 910.500976562 485.00390625 l 2
 932.500976562 498.336914062 946.16796875 505.00390625 951.500976562 505.00390625 c 0
 956.833984375 505.00390625 960.833984375 503.336914062 963.500976562 500.00390625 c 0
 966.16796875 496.670898438 967.500976562 492.00390625 967.500976562 486.00390625 c 0
EndSplineSet
Validated: 33
EndChar

StartChar: L
Encoding: 76 76 45
Width: 978
Flags: W
LayerCount: 2
Fore
SplineSet
828.041015625 320 m 1
 905.0390625 245 l 2
 916.372070312 234.333007812 920.0390625 221.333007812 916.0390625 206 c 0
 912.0390625 190.666992188 902.372070312 181 887.0390625 177 c 2
 782.0390625 150 l 1
 812.0390625 47 l 2
 816.0390625 31.6669921875 812.372070312 18.6669921875 801.0390625 8 c 0
 790.372070312 -4 777.372070312 -7.6669921875 762.0390625 -3 c 2
 658.0390625 27 l 1
 631.0390625 -78 l 2
 627.706054688 -93.3330078125 618.373046875 -103.333007812 603.040039062 -108 c 0
 598.373046875 -108.666992188 594.706054688 -109 592.0390625 -109 c 0
 580.706054688 -109 571.373046875 -104.666992188 564.040039062 -96 c 2
 489.040039062 -19 l 1
 413.040039062 -96 l 2
 403.040039062 -107.333007812 390.040039062 -111.333007812 374.040039062 -108 c 0
 358.70703125 -103.333007812 349.374023438 -93.3330078125 346.041015625 -78 c 2
 319.041015625 27 l 1
 215.041015625 -3 l 2
 199.708007812 -7.6669921875 186.708007812 -4 176.041015625 8 c 0
 164.708007812 18.6669921875 161.375 31.6669921875 166.041992188 47 c 2
 195.041992188 150 l 1
 90.0419921875 177 l 2
 75.375 181 66.0419921875 190.666992188 62.0419921875 206 c 0
 58.0419921875 221.333007812 61.375 234.333007812 72.0419921875 245 c 2
 149.041992188 320 l 1
 72.0419921875 395 l 2
 60.708984375 405.666992188 57.3759765625 418.666992188 62.04296875 434 c 0
 66.7099609375 449.333007812 76.04296875 459 90.04296875 463 c 2
 195.04296875 490 l 1
 166.04296875 593 l 2
 161.375976562 608.333007812 164.708984375 621.333007812 176.041992188 632 c 0
 186.708984375 644 199.708984375 647.666992188 215.041992188 643 c 2
 319.041992188 614 l 1
 346.041992188 718 l 2
 349.375 733.333007812 358.708007812 743.333007812 374.041015625 748 c 0
 389.374023438 752.666992188 402.374023438 748.666992188 413.041015625 736 c 2
 489.041015625 659 l 1
 564.041015625 736 l 2
 574.708007812 747.333007812 587.708007812 751 603.041015625 747 c 0
 618.374023438 743 627.70703125 733.333007812 631.040039062 718 c 2
 658.040039062 614 l 1
 762.040039062 643 l 2
 777.373046875 647.666992188 790.373046875 644 801.040039062 632 c 0
 812.373046875 621.333007812 816.040039062 608.333007812 812.040039062 593 c 2
 782.040039062 490 l 1
 887.040039062 463 l 2
 901.70703125 459 911.374023438 449.333007812 916.041015625 434 c 0
 920.708007812 418.666992188 917.041015625 405.666992188 905.041015625 395 c 2
 828.041015625 320 l 1
EndSplineSet
Validated: 33
EndChar

StartChar: M
Encoding: 77 77 46
Width: 1005
Flags: W
LayerCount: 2
Fore
SplineSet
949.038085938 264 m 0
 949.038085938 254.666992188 945.37109375 246.327148438 938.038085938 238.994140625 c 0
 930.705078125 231.661132812 922.372070312 228.328125 913.0390625 228.995117188 c 2
 788.0390625 228.995117188 l 1
 788.0390625 164.995117188 775.706054688 110.995117188 751.0390625 66.9951171875 c 1
 867.0390625 -50.0048828125 l 2
 873.706054688 -57.337890625 877.0390625 -65.6708984375 877.0390625 -75.00390625 c 0
 877.0390625 -84.3369140625 873.706054688 -92.669921875 867.0390625 -100.002929688 c 0
 860.372070312 -107.3359375 852.0390625 -111.002929688 842.0390625 -111.002929688 c 0
 832.0390625 -111.002929688 823.372070312 -107.3359375 816.0390625 -100.002929688 c 2
 706.0390625 9.9970703125 l 1
 698.0390625 2.9970703125 l 2
 694.706054688 0.330078125 686.706054688 -5.0029296875 674.0390625 -13.0029296875 c 0
 661.372070312 -21.0029296875 649.372070312 -28.0029296875 638.0390625 -34.0029296875 c 0
 626.706054688 -40.0029296875 611.373046875 -45.3359375 592.040039062 -50.0029296875 c 0
 572.70703125 -54.669921875 554.70703125 -57.0029296875 538.040039062 -57.0029296875 c 1
 538.040039062 442.997070312 l 1
 467.040039062 442.997070312 l 1
 467.040039062 -57.0029296875 l 1
 447.70703125 -57.0029296875 428.70703125 -54.669921875 410.040039062 -50.0029296875 c 0
 391.373046875 -45.3359375 375.040039062 -39.0029296875 361.040039062 -31.0029296875 c 0
 347.040039062 -23.0029296875 335.040039062 -15.669921875 325.040039062 -9.0029296875 c 0
 315.040039062 -2.3359375 306.70703125 3.6640625 300.040039062 8.9970703125 c 2
 292.040039062 16.9970703125 l 1
 190.040039062 -99.0029296875 l 2
 182.70703125 -107.002929688 173.70703125 -111.002929688 163.040039062 -111.002929688 c 0
 154.373046875 -111.002929688 146.373046875 -108.002929688 139.040039062 -102.002929688 c 0
 131.70703125 -96.0029296875 128.040039062 -87.669921875 128.040039062 -77.0029296875 c 0
 128.040039062 -66.3359375 130.70703125 -57.6689453125 136.040039062 -51.001953125 c 2
 249.040039062 75.998046875 l 1
 227.70703125 117.998046875 217.040039062 168.998046875 217.040039062 228.998046875 c 1
 92.0400390625 228.998046875 l 2
 82.0400390625 228.998046875 73.70703125 232.331054688 67.0400390625 238.998046875 c 0
 60.373046875 245.665039062 56.7060546875 253.998046875 56.0390625 263.998046875 c 0
 55.3720703125 273.998046875 59.0390625 282.331054688 67.0390625 288.998046875 c 0
 75.0390625 295.665039062 83.3720703125 299.33203125 92.0390625 299.999023438 c 2
 217.0390625 299.999023438 l 1
 217.0390625 463.999023438 l 1
 120.0390625 560.999023438 l 2
 112.706054688 567.666015625 109.0390625 575.999023438 109.0390625 585.999023438 c 0
 109.0390625 595.999023438 112.706054688 604.33203125 120.0390625 610.999023438 c 0
 127.372070312 617.666015625 135.705078125 620.999023438 145.038085938 620.999023438 c 0
 154.37109375 620.999023438 162.704101562 617.666015625 170.037109375 610.999023438 c 2
 267.037109375 513.999023438 l 1
 738.037109375 513.999023438 l 1
 834.037109375 610.999023438 l 2
 841.370117188 617.666015625 849.703125 620.999023438 859.036132812 620.999023438 c 0
 868.369140625 620.999023438 877.036132812 617.666015625 885.036132812 610.999023438 c 0
 893.036132812 604.33203125 896.369140625 595.999023438 895.036132812 585.999023438 c 0
 893.703125 575.999023438 890.370117188 567.666015625 885.037109375 560.999023438 c 2
 788.037109375 463.999023438 l 1
 788.037109375 299.999023438 l 1
 913.037109375 299.999023438 l 2
 923.037109375 299.999023438 931.370117188 296.33203125 938.037109375 288.999023438 c 0
 944.704101562 281.666015625 948.37109375 273.333007812 949.038085938 264 c 0
681.038085938 585.993164062 m 1
 324.040039062 585.993164062 l 1
 324.040039062 635.326171875 341.373046875 677.326171875 376.040039062 711.993164062 c 0
 410.70703125 746.66015625 452.70703125 763.993164062 502.040039062 763.993164062 c 0
 551.373046875 763.993164062 593.706054688 746.66015625 629.0390625 711.993164062 c 0
 664.372070312 677.326171875 681.705078125 635.326171875 681.038085938 585.993164062 c 1
EndSplineSet
Validated: 33
EndChar

StartChar: N
Encoding: 78 78 47
Width: 1220
Flags: W
LayerCount: 2
Fore
SplineSet
503.458007812 157 m 1
 717.458007812 157.000976562 l 1
 717.458007812 211.000976562 l 1
 645.458007812 211.000976562 l 1
 645.458007812 461.000976562 l 1
 582.458007812 461.000976562 l 1
 499.458007812 384.000976562 l 1
 542.458007812 340.000976562 l 1
 558.458007812 353.333984375 568.791015625 363.666992188 573.458007812 371 c 1
 574.458007812 371 l 1
 574.458007812 211 l 1
 503.458007812 211 l 1
 503.458007812 157 l 1
788.458007812 300.000976562 m 0
 788.458007812 274.000976562 784.791015625 247.669921875 777.458007812 221.002929688 c 0
 770.125 194.3359375 758.791992188 169.3359375 743.458984375 146.002929688 c 0
 728.125976562 122.669921875 709.458984375 104.002929688 687.458984375 90.0029296875 c 0
 665.458984375 76.0029296875 639.791992188 68.669921875 610.458984375 68.0029296875 c 0
 581.125976562 67.3359375 555.458984375 74.6689453125 533.458984375 90.001953125 c 0
 511.458984375 105.334960938 492.458984375 124.001953125 476.458984375 146.001953125 c 0
 460.458984375 168.001953125 449.458984375 193.001953125 443.458984375 221.001953125 c 0
 437.458984375 249.001953125 433.458984375 275.334960938 431.458984375 300.001953125 c 0
 429.458984375 324.668945312 433.458984375 351.001953125 443.458984375 379.001953125 c 0
 453.458984375 407.001953125 464.458984375 432.001953125 476.458984375 454.001953125 c 0
 488.458984375 476.001953125 507.458984375 494.668945312 533.458984375 510.001953125 c 0
 559.458984375 525.334960938 585.125976562 532.66796875 610.458984375 532.000976562 c 0
 635.791992188 531.333984375 661.458984375 524.000976562 687.458984375 510.000976562 c 0
 713.458984375 496.000976562 732.125976562 477.333984375 743.458984375 454.000976562 c 0
 754.791992188 430.66796875 766.125 405.66796875 777.458007812 379.000976562 c 0
 788.791015625 352.333984375 792.458007812 326.000976562 788.458007812 300.000976562 c 0
1074.45800781 157.002929688 m 1
 1074.45800781 443.002929688 l 1
 1035.125 443.002929688 1001.45800781 457.002929688 973.458007812 485.002929688 c 0
 945.458007812 513.002929688 931.458007812 546.669921875 931.458007812 586.002929688 c 1
 288.458007812 586.002929688 l 1
 288.458007812 546.669921875 274.458007812 513.002929688 246.458007812 485.002929688 c 0
 218.458007812 457.002929688 184.791015625 443.002929688 145.458007812 443.002929688 c 1
 145.458007812 157.002929688 l 1
 185.458007812 157.002929688 219.125 143.002929688 246.458007812 115.002929688 c 0
 273.791015625 87.0029296875 287.791015625 53.3359375 288.458007812 14.0029296875 c 1
 931.458007812 14.0029296875 l 1
 931.458007812 53.3359375 945.458007812 87.0029296875 973.458007812 115.002929688 c 0
 1001.45800781 143.002929688 1035.125 157.002929688 1074.45800781 157.002929688 c 1
1145.45800781 621.002929688 m 2
 1145.46191406 -20.9970703125 l 2
 1145.46191406 -30.9970703125 1142.12890625 -39.6640625 1135.46191406 -46.9970703125 c 0
 1128.79492188 -54.330078125 1120.46191406 -57.6630859375 1110.46191406 -56.99609375 c 2
 110.461914062 -56.99609375 l 2
 100.461914062 -56.99609375 92.12890625 -53.6630859375 85.4619140625 -46.99609375 c 0
 78.794921875 -40.3291015625 75.1279296875 -31.662109375 74.4609375 -20.9951171875 c 2
 74.4609375 621.004882812 l 2
 74.4609375 631.004882812 78.1279296875 639.671875 85.4609375 647.004882812 c 0
 92.7939453125 654.337890625 101.126953125 657.670898438 110.459960938 657.00390625 c 2
 1110.45996094 657.00390625 l 2
 1119.79296875 657.00390625 1128.12597656 653.670898438 1135.45898438 647.00390625 c 0
 1142.79199219 640.336914062 1146.125 631.669921875 1145.45800781 621.002929688 c 2
EndSplineSet
Validated: 33
EndChar

StartChar: O
Encoding: 79 79 48
Width: 1150
Flags: W
LayerCount: 2
Fore
SplineSet
146 14 m 1
 718 14 l 1
 718 86 l 1
 146 86 l 1
 146 14 l 1
146 300 m 1
 718 300 l 1
 718 371 l 1
 146 371 l 1
 146 300 l 1
1021 50 m 0
 1021 64.6669921875 1016.00097656 77.333984375 1006.00097656 88.0009765625 c 0
 996.000976562 98.66796875 983.333984375 104.000976562 968.000976562 104.000976562 c 0
 952.66796875 104.000976562 940.000976562 98.66796875 930.000976562 88.0009765625 c 0
 920.000976562 77.333984375 914.66796875 64.6669921875 914.000976562 50 c 0
 913.333984375 35.3330078125 918.666992188 22.666015625 930 11.9990234375 c 0
 941.333007812 1.33203125 954 -4.0009765625 968 -4.0009765625 c 0
 982 -4.0009765625 994.666992188 1.33203125 1006 11.9990234375 c 0
 1017.33300781 22.666015625 1022.33300781 35.3330078125 1021 50 c 0
146.000976562 586 m 1
 718.000976562 586 l 1
 718.000976562 657 l 1
 146.000976562 657 l 1
 146.000976562 586 l 1
1021.00097656 336 m 0
 1021.00097656 350.666992188 1016.00195312 363.33203125 1006.00195312 373.999023438 c 0
 996.001953125 384.666015625 983.334960938 389.666015625 968.001953125 388.999023438 c 0
 952.668945312 388.33203125 940.001953125 383.33203125 930.001953125 373.999023438 c 0
 920.001953125 364.666015625 914.668945312 351.999023438 914.001953125 335.999023438 c 0
 913.334960938 319.999023438 918.66796875 307.33203125 930.000976562 297.999023438 c 0
 941.333984375 288.666015625 954.000976562 283.333007812 968.000976562 282 c 0
 982.000976562 280.666992188 994.66796875 286 1006.00097656 298 c 0
 1017.33398438 310 1022.33398438 322.666992188 1021.00097656 336 c 0
1021.00195312 620.998046875 m 0
 1021.00195312 636.331054688 1016.00292969 648.99609375 1006.00292969 658.99609375 c 0
 996.002929688 668.99609375 983.3359375 674.329101562 968.002929688 674.99609375 c 0
 952.669921875 675.663085938 940.002929688 670.330078125 930.002929688 658.997070312 c 0
 920.002929688 647.6640625 914.669921875 634.997070312 914.002929688 620.997070312 c 0
 913.3359375 606.997070312 918.668945312 594.330078125 930.001953125 582.997070312 c 0
 941.334960938 571.6640625 954.001953125 566.6640625 968.001953125 567.997070312 c 0
 982.001953125 569.330078125 994.668945312 574.330078125 1006.00195312 582.997070312 c 0
 1017.33496094 591.6640625 1022.33496094 604.331054688 1021.00195312 620.998046875 c 0
1075.00292969 156.99609375 m 1
 1075.00292969 -57.00390625 l 1
 75.0029296875 -57.00390625 l 1
 75.0029296875 156.99609375 l 1
 1075.00292969 156.99609375 l 1
1075.00292969 442.99609375 m 1
 1075.00292969 228.99609375 l 1
 75.0029296875 228.99609375 l 1
 75.0029296875 442.99609375 l 1
 1075.00292969 442.99609375 l 1
1075.00292969 728.99609375 m 1
 1075.00292969 513.99609375 l 1
 75.0029296875 513.99609375 l 1
 75.0029296875 728.99609375 l 1
 1075.00292969 728.99609375 l 1
EndSplineSet
Validated: 33
EndChar

StartChar: P
Encoding: 80 80 49
Width: 1141
Flags: W
LayerCount: 2
Fore
SplineSet
890.5 622 m 1
 890.5 686 l 1
 890.5 750 l 1
 250.5 750 l 1
 250.5 622 l 1
 58.5 622 l 1
 58.5 494 l 2
 59.8330078125 439.333007812 78.5 394 114.5 358 c 0
 150.5 322 195.833007812 303.333007812 250.5 302 c 0
 270.5 302 289.833007812 305 308.5 311 c 1
 331.833007812 277.666992188 360.333007812 249.666992188 394 227 c 0
 427.666992188 204.333007812 465.166992188 188.666015625 506.5 179.999023438 c 1
 506.5 -18.0009765625 l 1
 442.5 -18.0009765625 l 2
 406.5 -18.66796875 376.333007812 -31.16796875 352 -55.5009765625 c 0
 327.666992188 -79.833984375 315.166992188 -110.000976562 314.5 -146.000976562 c 1
 826.5 -146.000976562 l 1
 825.833007812 -110.000976562 813.333007812 -79.833984375 789 -55.5009765625 c 0
 764.666992188 -31.16796875 734.5 -18.66796875 698.5 -18.0009765625 c 2
 634.5 -18.0009765625 l 1
 634.5 179.999023438 l 1
 675.833007812 188.666015625 713.333007812 204.333007812 747 227 c 0
 780.666992188 249.666992188 809.166992188 277.666992188 832.5 311 c 1
 851.166992188 305 870.5 302 890.5 302 c 0
 945.166992188 303.333007812 990.5 322 1026.5 358 c 0
 1062.5 394 1081.16699219 439.333007812 1082.5 494 c 2
 1082.5 622 l 1
 890.5 622 l 1
250.5 378 m 0
 217.833007812 378.666992188 190.5 390 168.5 412 c 0
 146.5 434 135.166992188 461.333007812 134.5 494 c 2
 134.5 558 l 1
 250.5 558 l 1
 250.5 494 l 2
 250.5 453.333007812 257.5 415.333007812 271.5 380 c 1
 264.833007812 378.666992188 257.833007812 378 250.5 378 c 0
1006.5 494 m 2
 1005.83300781 461.333007812 994.5 434 972.5 412 c 0
 950.5 390 923.166992188 378.666992188 890.5 378 c 0
 883.166992188 378 876.166992188 378.666992188 869.5 380 c 1
 883.5 415.333007812 890.5 453.333007812 890.5 494 c 2
 890.5 558 l 1
 1006.5 558 l 1
 1006.5 494 l 2
EndSplineSet
Validated: 9
EndChar

StartChar: Q
Encoding: 81 81 50
Width: 1039
Flags: W
LayerCount: 2
Fore
SplineSet
698.015625 386 m 0
 698.015625 454.666992188 673.34765625 513.33203125 624.014648438 561.999023438 c 0
 574.681640625 610.666015625 516.014648438 635.333007812 448.014648438 636 c 0
 380.014648438 636.666992188 321.014648438 612 271.014648438 562 c 0
 221.014648438 512 196.681640625 453.333007812 198.014648438 386 c 0
 199.34765625 318.666992188 223.680664062 259.666992188 271.013671875 209 c 0
 318.346679688 158.333007812 377.346679688 134 448.013671875 136 c 0
 518.680664062 138 577.34765625 162.333007812 624.014648438 209 c 0
 670.681640625 255.666992188 695.348632812 314.666992188 698.015625 386 c 0
984.014648438 -79.001953125 m 0
 984.014648438 -98.3349609375 976.6796875 -115.000976562 962.012695312 -129.000976562 c 0
 947.345703125 -143.000976562 930.345703125 -150.000976562 911.012695312 -150.000976562 c 0
 891.6796875 -150.000976562 875.346679688 -143.000976562 862.013671875 -129.000976562 c 2
 671.013671875 61.9990234375 l 1
 604.346679688 15.9990234375 530.013671875 -7.0009765625 448.013671875 -7.0009765625 c 0
 394.680664062 -7.0009765625 343.680664062 3.33203125 295.013671875 23.9990234375 c 0
 246.346679688 44.666015625 204.6796875 72.666015625 170.012695312 107.999023438 c 0
 135.345703125 143.33203125 107.345703125 184.999023438 86.0126953125 232.999023438 c 0
 64.6796875 280.999023438 54.3466796875 331.999023438 55.013671875 385.999023438 c 0
 55.6806640625 439.999023438 66.013671875 490.666015625 86.013671875 537.999023438 c 0
 106.013671875 585.33203125 134.013671875 627.33203125 170.013671875 663.999023438 c 0
 206.013671875 700.666015625 247.680664062 728.666015625 295.013671875 747.999023438 c 0
 342.346679688 767.33203125 393.346679688 777.665039062 448.013671875 778.998046875 c 0
 502.680664062 780.331054688 553.34765625 769.998046875 600.014648438 747.998046875 c 0
 646.681640625 725.998046875 688.681640625 697.998046875 726.014648438 663.998046875 c 0
 763.34765625 629.998046875 791.34765625 587.998046875 810.014648438 537.998046875 c 0
 828.681640625 487.998046875 839.014648438 437.331054688 841.014648438 385.998046875 c 0
 841.014648438 303.998046875 818.014648438 229.665039062 772.014648438 162.998046875 c 1
 963.014648438 -28.001953125 l 2
 977.014648438 -42.001953125 984.014648438 -59.001953125 984.014648438 -79.001953125 c 0
EndSplineSet
Validated: 33
EndChar

StartChar: R
Encoding: 82 82 51
Width: 1044
Flags: W
LayerCount: 2
Fore
SplineSet
771.538085938 457 m 0
 771.538085938 467 768.204101562 475.330078125 761.537109375 481.997070312 c 0
 754.870117188 488.6640625 746.537109375 492.331054688 736.537109375 492.998046875 c 0
 726.537109375 493.665039062 717.870117188 489.998046875 710.537109375 481.998046875 c 2
 628.537109375 400.998046875 l 1
 628.537109375 563.998046875 l 2
 628.537109375 573.998046875 625.204101562 582.331054688 618.537109375 588.998046875 c 0
 611.870117188 595.665039062 603.537109375 599.33203125 593.537109375 599.999023438 c 0
 583.537109375 600.666015625 575.204101562 596.999023438 568.537109375 588.999023438 c 0
 561.870117188 580.999023438 558.203125 572.666015625 557.536132812 563.999023438 c 2
 557.536132812 400.999023438 l 1
 475.536132812 481.999023438 l 2
 468.203125 489.33203125 459.870117188 492.999023438 450.537109375 492.999023438 c 0
 441.204101562 492.999023438 432.87109375 489.33203125 425.538085938 481.999023438 c 0
 418.205078125 474.666015625 414.538085938 466.333007812 414.538085938 457 c 0
 414.538085938 447.666992188 418.205078125 439.333984375 425.538085938 432.000976562 c 2
 568.538085938 289.000976562 l 2
 575.205078125 282.333984375 583.538085938 279.000976562 593.538085938 279.000976562 c 0
 603.538085938 279.000976562 611.87109375 282.333984375 618.538085938 289.000976562 c 2
 761.538085938 432.000976562 l 2
 768.205078125 439.333984375 771.538085938 447.666992188 771.538085938 457 c 0
414.537109375 -7.0029296875 m 0
 414.537109375 -27.0029296875 407.536132812 -44.001953125 393.536132812 -58.001953125 c 0
 379.536132812 -72.001953125 362.869140625 -79.001953125 343.536132812 -79.001953125 c 0
 324.203125 -79.001953125 307.203125 -72.001953125 292.536132812 -58.001953125 c 0
 277.869140625 -44.001953125 270.869140625 -27.001953125 271.536132812 -7.001953125 c 0
 272.203125 12.998046875 279.203125 29.6650390625 292.536132812 42.998046875 c 0
 305.869140625 56.3310546875 322.869140625 63.3310546875 343.536132812 63.998046875 c 0
 364.203125 64.6650390625 380.870117188 57.6650390625 393.537109375 42.998046875 c 0
 406.204101562 28.3310546875 413.204101562 11.6640625 414.537109375 -7.0029296875 c 0
914.536132812 -7.001953125 m 0
 914.536132812 -27.001953125 907.53515625 -44.0009765625 893.53515625 -58.0009765625 c 0
 879.53515625 -72.0009765625 862.868164062 -79.0009765625 843.53515625 -79.0009765625 c 0
 824.202148438 -79.0009765625 807.202148438 -72.0009765625 792.53515625 -58.0009765625 c 0
 777.868164062 -44.0009765625 770.868164062 -27.0009765625 771.53515625 -7.0009765625 c 0
 772.202148438 12.9990234375 779.202148438 29.666015625 792.53515625 42.9990234375 c 0
 805.868164062 56.33203125 822.868164062 63.33203125 843.53515625 63.9990234375 c 0
 864.202148438 64.666015625 880.869140625 57.666015625 893.536132812 42.9990234375 c 0
 906.203125 28.33203125 913.203125 11.6650390625 914.536132812 -7.001953125 c 0
986.53515625 599.999023438 m 2
 986.536132812 314.000976562 l 2
 986.536132812 305.333984375 983.536132812 297.666992188 977.536132812 291 c 0
 971.536132812 284.333007812 963.869140625 280.333007812 954.536132812 279 c 2
 371.536132812 211 l 1
 374.536132812 199 l 2
 375.869140625 193.666992188 376.869140625 188.666992188 377.536132812 184 c 0
 378.203125 179.333007812 378.536132812 174.666015625 378.536132812 169.999023438 c 0
 378.536132812 165.33203125 374.203125 153.999023438 365.536132812 135.999023438 c 1
 878.536132812 135.999023438 l 2
 888.536132812 135.999023438 897.203125 132.33203125 904.536132812 124.999023438 c 0
 911.869140625 117.666015625 915.202148438 109.333007812 914.53515625 100 c 0
 913.868164062 90.6669921875 910.53515625 82.333984375 904.53515625 75.0009765625 c 0
 898.53515625 67.66796875 889.868164062 64.0009765625 878.53515625 64.0009765625 c 2
 307.53515625 64.0009765625 l 2
 298.202148438 64.0009765625 289.869140625 67.66796875 282.536132812 75.0009765625 c 0
 275.203125 82.333984375 271.536132812 90.6669921875 271.536132812 100 c 0
 271.536132812 105.333007812 273.536132812 112.666015625 277.536132812 121.999023438 c 0
 281.536132812 131.33203125 287.203125 142.33203125 294.536132812 154.999023438 c 0
 301.869140625 167.666015625 305.536132812 174.666015625 305.536132812 175.999023438 c 2
 207.536132812 635.999023438 l 1
 93.5361328125 635.999023438 l 2
 83.5361328125 635.999023438 75.203125 639.33203125 68.5361328125 645.999023438 c 0
 61.869140625 652.666015625 58.2021484375 660.999023438 57.53515625 670.999023438 c 0
 56.8681640625 680.999023438 60.53515625 689.666015625 68.53515625 696.999023438 c 0
 76.53515625 704.33203125 84.8681640625 707.665039062 93.53515625 706.998046875 c 2
 236.53515625 706.998046875 l 2
 242.53515625 706.998046875 247.868164062 705.998046875 252.53515625 703.998046875 c 0
 257.202148438 701.998046875 260.869140625 698.998046875 263.536132812 694.998046875 c 0
 266.203125 690.998046875 268.536132812 686.331054688 270.536132812 680.998046875 c 0
 272.536132812 675.665039062 273.869140625 670.665039062 274.536132812 665.998046875 c 0
 275.203125 661.331054688 276.203125 655.998046875 277.536132812 649.998046875 c 2
 280.536132812 635.998046875 l 1
 950.536132812 635.998046875 l 2
 959.869140625 635.998046875 968.202148438 632.331054688 975.53515625 624.998046875 c 0
 982.868164062 617.665039062 986.53515625 609.33203125 986.53515625 599.999023438 c 2
EndSplineSet
Validated: 37
EndChar

StartChar: S
Encoding: 83 83 52
Width: 937
Flags: W
LayerCount: 2
Fore
SplineSet
469 284 m 2
 468.998046875 34.0009765625 l 2
 468.998046875 24.66796875 465.331054688 16.3349609375 457.998046875 9.001953125 c 0
 450.665039062 1.6689453125 442.33203125 -1.6640625 432.999023438 -0.9970703125 c 0
 423.666015625 -0.330078125 415.333007812 3.0029296875 408 9.0029296875 c 2
 327 90.0029296875 l 1
 142 -95.9970703125 l 2
 138.666992188 -99.330078125 134.333984375 -100.997070312 129.000976562 -100.997070312 c 0
 123.66796875 -100.997070312 119.334960938 -99.330078125 116.001953125 -95.9970703125 c 2
 53.001953125 -31.9970703125 l 2
 49.001953125 -28.6640625 47.001953125 -24.3310546875 47.001953125 -18.998046875 c 0
 47.001953125 -13.6650390625 49.001953125 -9.33203125 53.001953125 -5.9990234375 c 2
 238.001953125 179.000976562 l 1
 158.001953125 259.000976562 l 2
 150.668945312 266.333984375 147.001953125 274.666992188 147.001953125 284 c 0
 147.001953125 293.333007812 150.668945312 301.666015625 158.001953125 308.999023438 c 0
 165.334960938 316.33203125 173.66796875 319.999023438 183.000976562 319.999023438 c 2
 433.000976562 319.999023438 l 2
 442.333984375 319.999023438 450.666992188 316.33203125 458 308.999023438 c 0
 465.333007812 301.666015625 469 293.333007812 469 284 c 2
883.998046875 672.000976562 m 2
 887.998046875 668.66796875 889.995117188 664.334960938 889.995117188 659.001953125 c 0
 889.995117188 654.334960938 887.995117188 650.001953125 883.995117188 646.001953125 c 2
 698.995117188 461.001953125 l 1
 778.995117188 381.001953125 l 2
 786.328125 373.668945312 789.995117188 365.3359375 789.995117188 356.002929688 c 0
 789.995117188 346.669921875 786.328125 338.336914062 778.995117188 331.00390625 c 0
 771.662109375 323.670898438 763.329101562 320.00390625 753.99609375 320.00390625 c 2
 503.99609375 320.00390625 l 2
 494.663085938 320.00390625 486.330078125 323.670898438 478.997070312 331.00390625 c 0
 471.6640625 338.336914062 468.331054688 346.669921875 468.998046875 356.002929688 c 2
 468.998046875 606.002929688 l 2
 468.998046875 615.3359375 472.331054688 623.668945312 478.998046875 631.001953125 c 0
 485.665039062 638.334960938 493.998046875 641.66796875 503.998046875 641.000976562 c 0
 513.998046875 640.333984375 522.331054688 637.000976562 528.998046875 631.000976562 c 2
 609.998046875 550.000976562 l 1
 794.998046875 736.000976562 l 2
 798.998046875 739.333984375 803.331054688 741.000976562 807.998046875 741.000976562 c 0
 812.665039062 741.000976562 816.998046875 739.333984375 820.998046875 736.000976562 c 2
 883.998046875 672.000976562 l 2
EndSplineSet
Validated: 1
EndChar

StartChar: T
Encoding: 84 84 53
Width: 1147
Flags: W
LayerCount: 2
Fore
SplineSet
1073.51757812 454 m 1
 1073.51464844 11 l 2
 1073.51464844 -13.6669921875 1064.84765625 -34.6669921875 1047.51464844 -52 c 0
 1030.18164062 -69.3330078125 1009.18164062 -78.3330078125 984.514648438 -79 c 2
 162.514648438 -79 l 2
 138.514648438 -79 117.514648438 -70 99.5146484375 -52 c 0
 81.5146484375 -34 72.84765625 -13 73.5146484375 11 c 2
 73.5146484375 454 l 1
 90.181640625 435.333007812 108.848632812 419 129.515625 405 c 0
 264.182617188 313.666992188 356.849609375 249.666992188 407.516601562 213 c 0
 428.849609375 197 445.849609375 184.666992188 458.516601562 176 c 0
 471.18359375 167.333007812 488.850585938 158.333007812 511.517578125 149 c 0
 534.184570312 139.666992188 554.517578125 135.333984375 572.517578125 136.000976562 c 2
 574.517578125 136.000976562 l 2
 593.184570312 136.000976562 613.517578125 140.333984375 635.517578125 149.000976562 c 0
 657.517578125 157.66796875 675.184570312 166.66796875 688.517578125 176.000976562 c 0
 701.850585938 185.333984375 718.850585938 197.666992188 739.517578125 213 c 0
 802.850585938 258.333007812 895.517578125 322.333007812 1017.51757812 405 c 0
 1038.85058594 419.666992188 1057.51757812 436 1073.51757812 454 c 1
1073.51464844 618 m 0
 1073.51464844 588.666992188 1064.51464844 560.666992188 1046.51464844 534 c 0
 1028.51464844 507.333007812 1005.84765625 484.333007812 978.514648438 465 c 0
 838.514648438 367.666992188 751.181640625 307.333984375 716.514648438 284.000976562 c 2
 663.514648438 245.000976562 l 2
 655.514648438 239.000976562 645.84765625 233.000976562 634.514648438 227.000976562 c 0
 623.181640625 221.000976562 612.181640625 216.000976562 601.514648438 212.000976562 c 0
 590.84765625 208.000976562 581.84765625 206.333984375 574.514648438 207.000976562 c 2
 572.514648438 207.000976562 l 2
 564.514648438 207.000976562 555.514648438 208.66796875 545.514648438 212.000976562 c 0
 535.514648438 215.333984375 524.514648438 220.333984375 512.514648438 227.000976562 c 0
 500.514648438 233.66796875 490.84765625 239.66796875 483.514648438 245.000976562 c 2
 430.514648438 284.000976562 l 1
 283.514648438 385.000976562 l 2
 219.514648438 429.000976562 181.514648438 455.66796875 169.514648438 465.000976562 c 0
 146.181640625 480.333984375 124.514648438 501.666992188 104.514648438 529 c 0
 84.5146484375 556.333007812 74.181640625 582 73.5146484375 606 c 0
 73.5146484375 634.666992188 81.181640625 658.666992188 96.5146484375 678 c 0
 111.84765625 697.333007812 133.84765625 707 162.514648438 707 c 2
 984.514648438 707 l 2
 1008.51464844 707 1029.18164062 698.333007812 1046.51464844 681 c 0
 1063.84765625 663.666992188 1072.84765625 642.666992188 1073.51464844 618 c 0
EndSplineSet
Validated: 33
EndChar

StartChar: U
Encoding: 85 85 54
Width: 1028
Flags: W
LayerCount: 2
Fore
SplineSet
523 -126 m 0
 523 -120.666992188 520 -118.001953125 514 -118.001953125 c 0
 492 -118.001953125 473 -110.001953125 457 -94.001953125 c 0
 441 -78.001953125 433.333007812 -59.001953125 434 -37.001953125 c 0
 434 -31.001953125 431 -28.001953125 425 -28.001953125 c 0
 419 -28.001953125 416 -31.001953125 416 -37.001953125 c 0
 416 -64.3349609375 425.666992188 -87.66796875 445 -107.000976562 c 0
 464.333007812 -126.333984375 487.333007812 -135.666992188 514 -135 c 0
 520 -135 523 -132 523 -126 c 0
978 33.998046875 m 1
 978 14.6650390625 970.998046875 -2.0029296875 956.998046875 -16.0029296875 c 0
 942.998046875 -30.0029296875 926.331054688 -37.0029296875 906.998046875 -37.0029296875 c 2
 656.998046875 -37.0029296875 l 1
 656.998046875 -76.3359375 642.998046875 -110.002929688 614.998046875 -138.002929688 c 0
 586.998046875 -166.002929688 553.331054688 -180.002929688 513.998046875 -180.002929688 c 0
 474.665039062 -180.002929688 440.998046875 -166.002929688 412.998046875 -138.002929688 c 0
 384.998046875 -110.002929688 370.998046875 -76.3359375 370.998046875 -37.0029296875 c 1
 120.998046875 -37.0029296875 l 2
 101.665039062 -37.0029296875 84.998046875 -30.0029296875 70.998046875 -16.0029296875 c 0
 56.998046875 -2.0029296875 49.998046875 14.6640625 49.998046875 33.9970703125 c 1
 68.6650390625 49.9970703125 85.6650390625 66.330078125 100.998046875 82.9970703125 c 0
 116.331054688 99.6640625 131.998046875 121.997070312 147.998046875 149.997070312 c 0
 163.998046875 177.997070312 177.998046875 207.6640625 189.998046875 238.997070312 c 0
 201.998046875 270.330078125 210.998046875 308.330078125 216.998046875 352.997070312 c 0
 222.998046875 397.6640625 226.665039062 446.331054688 227.998046875 498.998046875 c 0
 227.998046875 554.998046875 249.998046875 607.331054688 293.998046875 655.998046875 c 0
 337.998046875 704.665039062 394.998046875 734.33203125 464.998046875 744.999023438 c 1
 461.665039062 751.666015625 459.998046875 758.666015625 459.998046875 765.999023438 c 0
 459.998046875 781.33203125 465.331054688 793.999023438 475.998046875 803.999023438 c 0
 486.665039062 813.999023438 499.33203125 819.33203125 513.999023438 819.999023438 c 0
 528.666015625 820.666015625 541.333007812 815.333007812 552 804 c 0
 562.666992188 792.666992188 568 780 568 766 c 0
 568 758.666992188 566.333007812 751.666992188 563 745 c 1
 633.666992188 734.333007812 690.666992188 704.666015625 734 655.999023438 c 0
 777.333007812 607.33203125 799.333007812 554.999023438 800 498.999023438 c 0
 800 446.999023438 803.666992188 398.33203125 811 352.999023438 c 0
 818.333007812 307.666015625 827.333007812 269.666015625 838 238.999023438 c 0
 848.666992188 208.33203125 862.666992188 178.665039062 880 149.998046875 c 0
 897.333007812 121.331054688 913 98.998046875 927 82.998046875 c 0
 941 66.998046875 958 50.6650390625 978 33.998046875 c 1
EndSplineSet
Validated: 33
EndChar

StartChar: V
Encoding: 86 86 55
Width: 1146
Flags: W
LayerCount: 2
Fore
SplineSet
359 94 m 2
 358.999023438 -14.0009765625 l 2
 358.999023438 -28.66796875 353.666015625 -41.0009765625 342.999023438 -51.0009765625 c 0
 332.33203125 -61.0009765625 319.665039062 -66.333984375 304.998046875 -67.0009765625 c 2
 126.998046875 -67.0009765625 l 2
 111.665039062 -67.0009765625 98.998046875 -61.66796875 88.998046875 -51.0009765625 c 0
 78.998046875 -40.333984375 73.6650390625 -28.0009765625 72.998046875 -14.0009765625 c 2
 72.998046875 93.9990234375 l 2
 72.998046875 108.666015625 78.3310546875 121.333007812 88.998046875 132 c 0
 99.6650390625 142.666992188 112.33203125 147.666992188 126.999023438 147 c 2
 304.999023438 147 l 2
 319.666015625 147 332.333007812 142 343 132 c 0
 353.666992188 122 359 109.333007812 359 94 c 2
358.999023438 378.999023438 m 2
 358.998046875 272.000976562 l 2
 358.998046875 257.333984375 353.665039062 244.666992188 342.998046875 234 c 0
 332.331054688 223.333007812 319.6640625 218.333007812 304.997070312 219 c 2
 126.997070312 219 l 2
 111.6640625 219 98.9970703125 224 88.9970703125 234 c 0
 78.9970703125 244 73.6640625 256.666992188 72.9970703125 272 c 2
 72.9970703125 379 l 2
 72.9970703125 394.333007812 78.330078125 407 88.9970703125 417 c 0
 99.6640625 427 112.331054688 432.333007812 126.998046875 433 c 2
 304.998046875 433 l 2
 319.665039062 433 332.33203125 427.666992188 342.999023438 417 c 0
 353.666015625 406.333007812 358.999023438 393.666015625 358.999023438 378.999023438 c 2
715.998046875 94.0009765625 m 2
 715.998046875 -14 l 2
 715.998046875 -28.6669921875 710.665039062 -41 699.998046875 -51 c 0
 689.331054688 -61 676.6640625 -66.3330078125 661.997070312 -67 c 2
 483.997070312 -67 l 2
 468.6640625 -67 455.997070312 -61.6669921875 445.997070312 -51 c 0
 435.997070312 -40.3330078125 430.6640625 -28 429.997070312 -14 c 2
 429.997070312 94 l 2
 429.997070312 108.666992188 435.330078125 121.333984375 445.997070312 132.000976562 c 0
 456.6640625 142.66796875 469.331054688 147.66796875 483.998046875 147.000976562 c 2
 661.998046875 147.000976562 l 2
 677.331054688 147.000976562 689.998046875 142.000976562 699.998046875 132.000976562 c 0
 709.998046875 122.000976562 715.331054688 109.333984375 715.998046875 94.0009765625 c 2
358.998046875 665 m 2
 358.997070312 558 l 2
 358.997070312 543.333007812 353.6640625 530.666015625 342.997070312 519.999023438 c 0
 332.330078125 509.33203125 319.663085938 503.999023438 304.99609375 503.999023438 c 2
 126.99609375 503.999023438 l 2
 111.663085938 503.999023438 98.99609375 509.33203125 88.99609375 519.999023438 c 0
 78.99609375 530.666015625 73.6630859375 543.333007812 72.99609375 558 c 2
 72.99609375 665 l 2
 72.99609375 679.666992188 78.3291015625 692.333984375 88.99609375 703.000976562 c 0
 99.6630859375 713.66796875 112.330078125 719.000976562 126.997070312 719.000976562 c 2
 304.997070312 719.000976562 l 2
 319.6640625 719.000976562 332.331054688 713.66796875 342.998046875 703.000976562 c 0
 353.665039062 692.333984375 358.998046875 679.666992188 358.998046875 665 c 2
715.997070312 379 m 2
 715.997070312 272.001953125 l 2
 715.997070312 257.334960938 710.6640625 244.66796875 699.997070312 234.000976562 c 0
 689.330078125 223.333984375 676.663085938 218.333984375 661.99609375 219.000976562 c 2
 483.99609375 219.000976562 l 2
 468.663085938 219.000976562 455.99609375 224.000976562 445.99609375 234.000976562 c 0
 435.99609375 244.000976562 430.663085938 256.66796875 429.99609375 272.000976562 c 2
 429.99609375 379.000976562 l 2
 429.99609375 394.333984375 435.329101562 407.000976562 445.99609375 417.000976562 c 0
 456.663085938 427.000976562 469.330078125 432.333984375 483.997070312 433.000976562 c 2
 661.997070312 433.000976562 l 2
 677.330078125 433.000976562 689.997070312 427.66796875 699.997070312 417.000976562 c 0
 709.997070312 406.333984375 715.330078125 393.666992188 715.997070312 379 c 2
1072.99707031 94.001953125 m 2
 1072.99804688 -13.9990234375 l 2
 1072.99804688 -28.666015625 1067.66503906 -40.9990234375 1056.99804688 -50.9990234375 c 0
 1046.33105469 -60.9990234375 1033.6640625 -66.33203125 1018.99707031 -66.9990234375 c 2
 840.997070312 -66.9990234375 l 2
 826.330078125 -66.9990234375 813.663085938 -61.666015625 802.99609375 -50.9990234375 c 0
 792.329101562 -40.33203125 786.99609375 -27.9990234375 786.99609375 -13.9990234375 c 2
 786.99609375 94.0009765625 l 2
 786.99609375 108.66796875 792.329101562 121.334960938 802.99609375 132.001953125 c 0
 813.663085938 142.668945312 826.330078125 147.668945312 840.997070312 147.001953125 c 2
 1018.99707031 147.001953125 l 2
 1034.33007812 147.001953125 1046.99707031 142.001953125 1056.99707031 132.001953125 c 0
 1066.99707031 122.001953125 1072.33007812 109.334960938 1072.99707031 94.001953125 c 2
715.998046875 665.000976562 m 2
 715.998046875 558.000976562 l 2
 715.998046875 543.333984375 710.665039062 530.666992188 699.998046875 520 c 0
 689.331054688 509.333007812 676.6640625 504 661.997070312 504 c 2
 483.997070312 504 l 2
 468.6640625 504 455.997070312 509.333007812 445.997070312 520 c 0
 435.997070312 530.666992188 430.6640625 543.333984375 429.997070312 558.000976562 c 2
 429.997070312 665.000976562 l 2
 429.997070312 679.66796875 435.330078125 692.334960938 445.997070312 703.001953125 c 0
 456.6640625 713.668945312 469.331054688 719.001953125 483.998046875 719.001953125 c 2
 661.998046875 719.001953125 l 2
 677.331054688 719.001953125 689.998046875 713.668945312 699.998046875 703.001953125 c 0
 709.998046875 692.334960938 715.331054688 679.66796875 715.998046875 665.000976562 c 2
1072.99804688 379.000976562 m 2
 1072.99902344 272.002929688 l 2
 1072.99902344 257.3359375 1067.66601562 244.668945312 1056.99902344 234.001953125 c 0
 1046.33203125 223.334960938 1033.66503906 218.334960938 1018.99804688 219.001953125 c 2
 840.998046875 219.001953125 l 2
 826.331054688 219.001953125 813.6640625 224.001953125 802.997070312 234.001953125 c 0
 792.330078125 244.001953125 786.997070312 256.668945312 786.997070312 272.001953125 c 2
 786.997070312 379.001953125 l 2
 786.997070312 394.334960938 792.330078125 407.001953125 802.997070312 417.001953125 c 0
 813.6640625 427.001953125 826.331054688 432.334960938 840.998046875 433.001953125 c 2
 1018.99804688 433.001953125 l 2
 1034.33105469 433.001953125 1046.99804688 427.668945312 1056.99804688 417.001953125 c 0
 1066.99804688 406.334960938 1072.33105469 393.66796875 1072.99804688 379.000976562 c 2
1072.99902344 665.002929688 m 2
 1073 558.002929688 l 2
 1073 543.3359375 1067.66699219 530.668945312 1057 520.001953125 c 0
 1046.33300781 509.334960938 1033.66601562 504.001953125 1018.99902344 504.001953125 c 2
 840.999023438 504.001953125 l 2
 826.33203125 504.001953125 813.665039062 509.334960938 802.998046875 520.001953125 c 0
 792.331054688 530.668945312 786.998046875 543.3359375 786.998046875 558.002929688 c 2
 786.998046875 665.002929688 l 2
 786.998046875 679.669921875 792.331054688 692.336914062 802.998046875 703.00390625 c 0
 813.665039062 713.670898438 826.33203125 719.00390625 840.999023438 719.00390625 c 2
 1018.99902344 719.00390625 l 2
 1034.33203125 719.00390625 1046.99902344 713.670898438 1056.99902344 703.00390625 c 0
 1066.99902344 692.336914062 1072.33203125 679.669921875 1072.99902344 665.002929688 c 2
EndSplineSet
Validated: 33
EndChar

StartChar: W
Encoding: 87 87 56
Width: 780
Flags: W
LayerCount: 2
Fore
SplineSet
706.5 150 m 2
 716.5 140 721.5 127.330078125 721.5 111.997070312 c 0
 721.5 97.330078125 716.5 84.6630859375 706.5 73.99609375 c 2
 630.5 -2.00390625 l 2
 619.833007812 -12.00390625 607.166015625 -17.00390625 592.499023438 -17.00390625 c 0
 577.83203125 -17.00390625 565.165039062 -12.00390625 554.498046875 -2.00390625 c 2
 390.498046875 162.99609375 l 1
 226.498046875 -2.00390625 l 2
 215.831054688 -12.00390625 203.1640625 -17.00390625 188.497070312 -17.00390625 c 0
 173.830078125 -17.00390625 161.163085938 -12.00390625 150.49609375 -2.00390625 c 2
 74.49609375 73.99609375 l 2
 63.8291015625 84.6630859375 58.49609375 97.330078125 58.49609375 111.997070312 c 0
 58.49609375 126.6640625 63.8291015625 139.331054688 74.49609375 149.998046875 c 2
 238.49609375 313.998046875 l 1
 74.49609375 477.998046875 l 2
 63.8291015625 488.665039062 58.49609375 501.33203125 58.49609375 515.999023438 c 0
 58.49609375 530.666015625 63.8291015625 543.333007812 74.49609375 554 c 2
 150.49609375 630 l 2
 161.163085938 640.666992188 173.830078125 646 188.497070312 646 c 0
 203.1640625 646 215.831054688 640.666992188 226.498046875 630 c 2
 390.498046875 466 l 1
 554.498046875 630 l 2
 565.165039062 640.666992188 577.83203125 646 592.499023438 646 c 0
 607.166015625 646 619.833007812 640.666992188 630.5 630 c 2
 706.5 554 l 2
 716.5 544 721.5 531.333007812 721.5 516 c 0
 721.5 500.666992188 716.5 488 706.5 478 c 2
 542.5 314 l 1
 706.5 150 l 2
EndSplineSet
Validated: 1
EndChar

